ply
format ascii 1.0
element vertex 1802
property float x
property float y
property float z
element face 0
property list uchar int vertex_index
end_header
-0.282399 12.0182 -0.0247102
-0.313697 12.035 -0.0149423
-0.313697 12.035 -0.0149423
-0.312969 12.0331 -0.00563004
-0.312969 12.0331 -0.00563004
-0.312969 12.0331 -0.00563004
-0.312969 12.0331 -0.00563004
-0.312969 12.0331 -0.00563004
-0.312969 12.0331 -0.00563004
-0.312969 12.0331 -0.00563004
-0.303111 12.0507 0.00403213
-0.325158 12.0516 0.00378652
-0.325158 12.0516 0.00378652
-0.313907 12.0316 0.0041189
-0.313907 12.0316 0.0041189
-0.31319 12.0298 0.0134378
-0.31319 12.0298 0.0134378
-0.31319 12.0298 0.0134378
-0.314115 12.0283 0.0231926
-0.314115 12.0283 0.0231926
-0.313907 12.0316 0.0041189
-0.312969 12.0331 -0.00563004
-0.312969 12.0331 -0.00563004
-0.312969 12.0331 -0.00563004
-0.313697 12.035 -0.0149423
-0.313697 12.035 -0.0149423
-0.313907 12.0316 0.0041189
-0.313907 12.0316 0.0041189
-0.313907 12.0316 0.0041189
-0.313907 12.0316 0.0041189
-0.325158 12.0516 0.00378652
-0.325886 12.0535 -0.00552096
-0.325886 12.0535 -0.00552096
-0.325886 12.0535 -0.00552096
-0.325158 12.0516 0.00378652
-0.325158 12.0516 0.00378652
-0.325158 12.0516 0.00378652
-0.325158 12.0516 0.00378652
-0.325158 12.0516 0.00378652
-0.325158 12.0516 0.00378652
-0.325243 12.0578 0.00963178
-0.325243 12.0578 0.00963178
-0.325243 12.0578 0.00963178
-0.314923 12.0363 0.019709
-0.326176 12.0564 0.0193846
-0.314923 12.0363 0.019709
-0.325243 12.0578 0.00963178
-0.325243 12.0578 0.00963178
-0.325243 12.0578 0.00963178
-0.326176 12.0564 0.0193846
-0.313907 12.0316 0.0041189
-0.314636 12.0334 -0.00519291
-0.313907 12.0316 0.0041189
-0.314636 12.0334 -0.00519291
-0.314636 12.0334 -0.00519291
-0.293084 12.0132 0.00372017
-0.293084 12.0132 0.00372017
-0.313907 12.0316 0.0041189
-0.313907 12.0316 0.0041189
-0.313907 12.0316 0.0041189
-0.313907 12.0316 0.0041189
-0.313907 12.0316 0.0041189
-0.313907 12.0316 0.0041189
-0.313907 12.0316 0.0041189
-0.313907 12.0316 0.0041189
-0.314636 12.0334 -0.00519291
-0.314636 12.0334 -0.00519291
-0.313907 12.0316 0.0041189
-0.315744 12.0286 0.0236356
-0.316473 12.0305 0.0143247
-0.315289 12.0692 0.0134496
-0.303111 12.0507 0.00403213
-0.560724 11.8282 0.103574
-0.313907 12.0316 0.0041189
-0.325158 12.0516 0.00378652
-0.313907 12.0316 0.0041189
-0.303111 12.0507 0.00403213
-0.303111 12.0507 0.00403213
-0.303111 12.0507 0.00403213
-0.303111 12.0507 0.00403213
-0.326814 12.052 0.0042337
-0.326814 12.052 0.0042337
-0.326814 12.052 0.0042337
-0.314832 12.0301 0.0138741
-0.314832 12.0301 0.0138741
-0.314832 12.0301 0.0138741
-0.304036 12.0492 0.013783
-0.304036 12.0492 0.013783
-0.304036 12.0492 0.013783
-0.304036 12.0492 0.013783
-0.314636 12.0334 -0.00519291
-0.314636 12.0334 -0.00519291
-0.314636 12.0334 -0.00519291
-0.314636 12.0334 -0.00519291
-0.314636 12.0334 -0.00519291
-0.314636 12.0334 -0.00519291
-0.314636 12.0334 -0.00519291
-0.314636 12.0334 -0.00519291
-0.314636 12.0334 -0.00519291
-0.314636 12.0334 -0.00519291
-0.314636 12.0334 -0.00519291
-0.314636 12.0334 -0.00519291
-0.313907 12.0316 0.0041189
-0.313907 12.0316 0.0041189
-0.313907 12.0316 0.0041189
-0.313907 12.0316 0.0041189
-0.312969 12.0331 -0.00563004
-0.313907 12.0316 0.0041189
-0.313907 12.0316 0.0041189
-0.312969 12.0331 -0.00563004
-0.314635 12.0302 -0.0199426
-0.314635 12.0302 -0.0199426
-0.314636 12.0334 -0.00519291
-0.314636 12.0334 -0.00519291
-0.313907 12.0316 0.0041189
-0.314636 12.0334 -0.00519291
-0.314636 12.0334 -0.00519291
-0.314636 12.0334 -0.00519291
-0.326814 12.052 0.0042337
-0.326814 12.052 0.0042337
-0.314832 12.0301 0.0138741
-0.313907 12.0316 0.0041189
-0.313907 12.0316 0.0041189
-0.313907 12.0316 0.0041189
-0.313907 12.0316 0.0041189
-0.313907 12.0316 0.0041189
-0.313907 12.0316 0.0041189
-0.313907 12.0316 0.0041189
-0.313907 12.0316 0.0041189
-0.313907 12.0316 0.0041189
-0.313907 12.0316 0.0041189
-0.313907 12.0316 0.0041189
-0.313907 12.0316 0.0041189
-0.313907 12.0316 0.0041189
-0.313907 12.0316 0.0041189
-0.313907 12.0316 0.0041189
-0.313907 12.0316 0.0041189
-0.313907 12.0316 0.0041189
-0.313907 12.0316 0.0041189
-0.325158 12.0516 0.00378652
-0.314636 12.0334 -0.00519291
-0.314636 12.0334 -0.00519291
-0.314636 12.0334 -0.00519291
-0.314636 12.0334 -0.00519291
-0.314636 12.0334 -0.00519291
-0.314636 12.0334 -0.00519291
-0.313993 12.0378 0.00995521
-0.313993 12.0378 0.00995521
-0.313993 12.0378 0.00995521
-0.313993 12.0378 0.00995521
-0.313907 12.0316 0.0041189
-0.313907 12.0316 0.0041189
-0.313911 12.0283 -0.0106293
-0.312969 12.0331 -0.00563004
-0.312969 12.0331 -0.00563004
-0.313907 12.0316 0.0041189
-0.313907 12.0316 0.0041189
-0.313907 12.0316 0.0041189
-0.313907 12.0316 0.0041189
-0.313907 12.0316 0.0041189
-0.314635 12.0302 -0.0199426
-0.314635 12.0302 -0.0199426
-0.314636 12.0334 -0.00519291
-0.314636 12.0334 -0.00519291
-0.314636 12.0334 -0.00519291
-0.314636 12.0334 -0.00519291
-0.314636 12.0334 -0.00519291
-0.314636 12.0334 -0.00519291
-0.315561 12.032 0.00456274
-0.314832 12.0301 0.0138741
-0.325158 12.0516 0.00378652
-0.312969 12.0331 -0.00563004
-0.312975 12.0298 -0.02038
-0.312975 12.0298 -0.02038
-0.312975 12.0298 -0.02038
-0.312975 12.0298 -0.02038
-0.312969 12.0331 -0.00563004
-0.312969 12.0331 -0.00563004
-0.312969 12.0331 -0.00563004
-0.312969 12.0331 -0.00563004
-0.325158 12.0516 0.00378652
-0.325158 12.0516 0.00378652
-0.325158 12.0516 0.00378652
-0.325886 12.0535 -0.00552096
-0.325158 12.0516 0.00378652
-0.325158 12.0516 0.00378652
-0.325162 12.0483 -0.0109643
-0.325162 12.0483 -0.0109643
-0.324217 12.0531 -0.00596141
-0.312701 12.0704 0.00327051
-0.313907 12.0316 0.0041189
-0.313911 12.0283 -0.0106293
-0.313911 12.0283 -0.0106293
-0.314832 12.0301 0.0138741
-0.326085 12.0501 0.0135408
-0.326173 12.0531 0.0046336
-0.314635 12.0302 -0.0199426
-0.314636 12.0334 -0.00519291
-0.314635 12.0302 -0.0199426
-0.314635 12.0302 -0.0199426
-0.314636 12.0334 -0.00519291
-0.314636 12.0334 -0.00519291
-0.314636 12.0334 -0.00519291
-0.314636 12.0334 -0.00519291
-0.314636 12.0334 -0.00519291
-0.314636 12.0334 -0.00519291
-0.314636 12.0334 -0.00519291
-0.314636 12.0334 -0.00519291
-0.314636 12.0334 -0.00519291
-0.179937 11.9228 0.0357444
-0.313907 12.0316 0.0041189
-0.313907 12.0316 0.0041189
-0.313907 12.0316 0.0041189
-0.313907 12.0316 0.0041189
-0.313907 12.0316 0.0041189
-0.313907 12.0316 0.0041189
-0.313907 12.0316 0.0041189
-0.313907 12.0316 0.0041189
-0.314832 12.0301 0.0138741
-0.29401 12.0117 0.013475
-0.325158 12.0516 0.00378652
-0.324217 12.0531 -0.00596141
-0.324217 12.0531 -0.00596141
-0.324217 12.0531 -0.00596141
-0.324217 12.0531 -0.00596141
-0.324217 12.0531 -0.00596141
-0.324217 12.0531 -0.00596141
-0.324217 12.0531 -0.00596141
-0.324217 12.0531 -0.00596141
-0.324217 12.0531 -0.00596141
-0.324945 12.055 -0.0152693
-0.324297 12.0594 -0.000114714
-0.324297 12.0594 -0.000114714
-0.314832 12.0301 0.0138741
-0.324945 12.055 -0.0152693
-0.324945 12.055 -0.0152693
-0.324945 12.055 -0.0152693
-0.324945 12.055 -0.0152693
-0.324297 12.0594 -0.000114714
-0.314832 12.0301 0.0138741
-0.313907 12.0316 0.0041189
-0.313907 12.0316 0.0041189
-0.312486 12.028 0.0227637
-0.300986 12.0453 0.0320079
-0.313907 12.0316 0.0041189
-0.314636 12.0334 -0.00519291
-0.313907 12.0316 0.0041189
-0.313697 12.035 -0.0149423
-0.322796 12.0495 0.0126755
-0.300745 12.0486 0.0129319
-0.313907 12.0316 0.0041189
-0.312975 12.0298 -0.02038
-0.312975 12.0298 -0.02038
-0.313911 12.0283 -0.0106293
-0.312969 12.0331 -0.00563004
-0.312969 12.0331 -0.00563004
-0.312975 12.0298 -0.02038
-0.312975 12.0298 -0.02038
-0.324217 12.0531 -0.00596141
-0.324223 12.0498 -0.020714
-0.313907 12.0316 0.0041189
-0.313907 12.0316 0.0041189
-0.313907 12.0316 0.0041189
-0.313907 12.0316 0.0041189
-0.313907 12.0316 0.0041189
-0.314636 12.0334 -0.00519291
-0.313907 12.0316 0.0041189
-0.313907 12.0316 0.0041189
-0.315561 12.032 0.00456274
-0.315561 12.032 0.00456274
-0.325886 12.0535 -0.00552096
-0.325886 12.0535 -0.00552096
-0.325243 12.0578 0.00963178
-0.325886 12.0535 -0.00552096
-0.325886 12.0535 -0.00552096
-0.314636 12.0334 -0.00519291
-0.314636 12.0334 -0.00519291
-0.314636 12.0334 -0.00519291
-0.325886 12.0535 -0.00552096
-0.314636 12.0334 -0.00519291
-0.313907 12.0316 0.0041189
-0.313907 12.0316 0.0041189
-0.313907 12.0316 0.0041189
-0.313907 12.0316 0.0041189
-0.313907 12.0316 0.0041189
-0.31319 12.0298 0.0134378
-0.313907 12.0316 0.0041189
-0.313907 12.0316 0.0041189
-0.313907 12.0316 0.0041189
-0.313907 12.0316 0.0041189
-0.314636 12.0334 -0.00519291
-0.325886 12.0535 -0.00552096
-0.325886 12.0535 -0.00552096
-0.326814 12.052 0.0042337
-0.326814 12.052 0.0042337
-0.326814 12.052 0.0042337
-0.314636 12.0334 -0.00519291
-0.314636 12.0334 -0.00519291
-0.314636 12.0334 -0.00519291
-0.325886 12.0535 -0.00552096
-0.313907 12.0316 0.0041189
-0.313907 12.0316 0.0041189
-0.313907 12.0316 0.0041189
-0.313907 12.0316 0.0041189
-0.313907 12.0316 0.0041189
-0.313907 12.0316 0.0041189
-0.313907 12.0316 0.0041189
-0.313907 12.0316 0.0041189
-0.313907 12.0316 0.0041189
-0.313907 12.0316 0.0041189
-0.324947 12.0517 -0.0300233
-0.324947 12.0517 -0.0300233
-0.324947 12.0517 -0.0300233
-0.324223 12.0498 -0.020714
-0.324947 12.0517 -0.0300233
-0.324947 12.0517 -0.0300233
-0.324945 12.055 -0.0152693
-0.324947 12.0517 -0.0300233
-0.325886 12.0535 -0.00552096
-0.325886 12.0535 -0.00552096
-0.314832 12.0301 0.0138741
-0.314636 12.0334 -0.00519291
-0.313907 12.0316 0.0041189
-0.313907 12.0316 0.0041189
-0.313907 12.0316 0.0041189
-0.313907 12.0316 0.0041189
-0.313907 12.0316 0.0041189
-0.313907 12.0316 0.0041189
-0.313907 12.0316 0.0041189
-0.313697 12.035 -0.0149423
-0.312969 12.0331 -0.00563004
-0.312969 12.0331 -0.00563004
-0.312969 12.0331 -0.00563004
-0.312969 12.0331 -0.00563004
-0.312969 12.0331 -0.00563004
-0.312969 12.0331 -0.00563004
-0.312969 12.0331 -0.00563004
-0.312969 12.0331 -0.00563004
-0.312969 12.0331 -0.00563004
-0.312969 12.0331 -0.00563004
-0.314636 12.0334 -0.00519291
-0.314636 12.0334 -0.00519291
-0.314636 12.0334 -0.00519291
-0.314636 12.0334 -0.00519291
-0.313907 12.0316 0.0041189
-0.312969 12.0331 -0.00563004
-0.313697 12.035 -0.0149423
-0.313907 12.0316 0.0041189
-0.313907 12.0316 0.0041189
-0.313697 12.035 -0.0149423
-0.3245 12.0159 -0.01486
-0.313697 12.035 -0.0149423
-0.313697 12.035 -0.0149423
-0.3245 12.0159 -0.01486
-0.3245 12.0159 -0.01486
-0.3245 12.0159 -0.01486
-0.3245 12.0159 -0.01486
-0.3245 12.0159 -0.01486
-0.3245 12.0159 -0.01486
-0.3245 12.0159 -0.01486
-0.325886 12.0535 -0.00552096
-0.325886 12.0535 -0.00552096
-0.325886 12.0535 -0.00552096
-0.325243 12.0578 0.00963178
-0.327729 12.0505 0.0139946
-0.326814 12.052 0.0042337
-0.325886 12.0535 -0.00552096
-0.314636 12.0334 -0.00519291
-0.326814 12.052 0.0042337
-0.326814 12.052 0.0042337
-0.326814 12.052 0.0042337
-0.314636 12.0334 -0.00519291
-0.313907 12.0316 0.0041189
-0.301682 12.0471 0.0226757
-0.301682 12.0471 0.0226757
-0.325158 12.0516 0.00378652
-0.325158 12.0516 0.00378652
-0.325158 12.0516 0.00378652
-0.325158 12.0516 0.00378652
-0.325158 12.0516 0.00378652
-0.314636 12.0334 -0.00519291
-0.314636 12.0334 -0.00519291
-0.314636 12.0334 -0.00519291
-0.314636 12.0334 -0.00519291
-0.314636 12.0334 -0.00519291
-0.314636 12.0334 -0.00519291
-0.314636 12.0334 -0.00519291
-0.314636 12.0334 -0.00519291
-0.314636 12.0334 -0.00519291
-0.314636 12.0334 -0.00519291
-0.314636 12.0334 -0.00519291
-0.314636 12.0334 -0.00519291
-0.314636 12.0334 -0.00519291
-0.315561 12.032 0.00456274
-0.315561 12.032 0.00456274
-0.316473 12.0305 0.0143247
-0.314636 12.0334 -0.00519291
-0.314636 12.0334 -0.00519291
-0.314636 12.0334 -0.00519291
-0.336182 12.075 -0.0155955
-0.324945 12.055 -0.0152693
-0.336182 12.075 -0.0155955
-0.336182 12.075 -0.0155955
-0.336182 12.075 -0.0155955
-0.336182 12.075 -0.0155955
-0.335454 12.0731 -0.00629191
-0.336182 12.075 -0.0155955
-0.336182 12.075 -0.0155955
-0.335454 12.0731 -0.00629191
-0.335454 12.0731 -0.00629191
-0.346984 12.056 -0.0155131
-0.327353 12.0771 -0.0245145
-0.346984 12.056 -0.0155131
-0.335747 12.0359 -0.015187
-0.346984 12.056 -0.0155131
-0.346984 12.056 -0.0155131
-0.346984 12.056 -0.0155131
-0.347928 12.0545 -0.00576138
-0.336182 12.075 -0.0155955
-0.347928 12.0545 -0.00576138
-0.347928 12.0545 -0.00576138
-0.316335 12.0537 -0.00514454
-0.324611 12.0883 0.0302753
-0.319548 12.0166 0.0627477
-0.328176 12.01 0.0241926
-0.335747 12.0359 -0.015187
-0.315808 12.0942 -0.0153004
-0.303857 12.0724 -0.00566642
-0.313755 12.1011 0.0243233
-0.350931 12.0564 0.0868924
-0.319258 12.0492 0.0579663
-0.315394 12.0552 -0.0148914
-0.289578 12.0826 0.0408929
-0.29879 12.0634 0.0405957
-0.314441 12.0567 -0.024632
-0.314441 12.0567 -0.024632
-0.313717 12.0549 -0.0153229
-0.335747 12.0359 -0.015187
-0.333341 12.0678 0.021661
-0.288918 12.0809 0.0502422
-0.326618 12.0752 -0.0152173
-0.315394 12.0552 -0.0148914
-0.315394 12.0552 -0.0148914
-0.314671 12.0533 -0.00558276
-0.316335 12.0537 -0.00514454
-0.316335 12.0537 -0.00514454
-0.315081 12.0924 -0.00599664
-0.315081 12.0924 -0.00599664
-0.315394 12.0552 -0.0148914
-0.326618 12.0752 -0.0152173
-0.335747 12.0359 -0.015187
-0.335747 12.0359 -0.015187
-0.335747 12.0359 -0.015187
-0.31613 12.057 -0.024193
-0.316547 12.0961 -0.0245971
-0.358945 12.0779 -0.0251311
-0.327353 12.0771 -0.0245145
-0.326618 12.0752 -0.0152173
-0.326618 12.0752 -0.0152173
-0.337438 12.0562 -0.0151336
-0.346984 12.056 -0.0155131
-0.346984 12.056 -0.0155131
-0.346984 12.056 -0.0155131
-0.34772 12.0578 -0.0248102
-0.346984 12.056 -0.0155131
-0.35821 12.076 -0.0158384
-0.346984 12.056 -0.0155131
-0.347928 12.0545 -0.00576138
-0.347204 12.0526 0.00354237
-0.358741 12.0355 -0.00567406
-0.336689 12.0344 -0.00543422
-0.324945 12.055 -0.0152693
-0.324945 12.055 -0.0152693
-0.336182 12.075 -0.0155955
-0.346984 12.056 -0.0155131
-0.346984 12.056 -0.0155131
-0.346984 12.056 -0.0155131
-0.346984 12.056 -0.0155131
-0.346984 12.056 -0.0155131
-0.335747 12.0359 -0.015187
-0.336689 12.0344 -0.00543422
-0.336689 12.0344 -0.00543422
-0.336182 12.075 -0.0155955
-0.336397 12.0716 0.00345501
-0.336182 12.075 -0.0155955
-0.34626 12.0541 -0.00620892
-0.34626 12.0541 -0.00620892
-0.34561 12.0585 0.00894639
-0.347284 12.0589 0.00939375
-0.338532 12.0315 0.0140901
-0.325886 12.0535 -0.00552096
-0.336182 12.075 -0.0155955
-0.336182 12.075 -0.0155955
-0.336182 12.075 -0.0155955
-0.346984 12.056 -0.0155131
-0.335747 12.0359 -0.015187
-0.335747 12.0359 -0.015187
-0.335747 12.0359 -0.015187
-0.324217 12.0531 -0.00596141
-0.336397 12.0716 0.00345501
-0.336182 12.075 -0.0155955
-0.336182 12.075 -0.0155955
-0.336182 12.075 -0.0155955
-0.346984 12.056 -0.0155131
-0.346984 12.056 -0.0155131
-0.346984 12.056 -0.0155131
-0.335023 12.0341 -0.00587845
-0.335023 12.0341 -0.00587845
-0.335747 12.0359 -0.015187
-0.336182 12.075 -0.0155955
-0.336182 12.075 -0.0155955
-0.336182 12.075 -0.0155955
-0.336182 12.075 -0.0155955
-0.336182 12.075 -0.0155955
-0.346984 12.056 -0.0155131
-0.335023 12.0341 -0.00587845
-0.335023 12.0341 -0.00587845
-0.335023 12.0341 -0.00587845
-0.325886 12.0535 -0.00552096
-0.336182 12.075 -0.0155955
-0.337125 12.0735 -0.00584814
-0.346984 12.056 -0.0155131
-0.335747 12.0359 -0.015187
-0.335747 12.0359 -0.015187
-0.335747 12.0359 -0.015187
-0.335747 12.0359 -0.015187
-0.347502 12.0154 -0.00534694
-0.335747 12.0359 -0.015187
-0.347928 12.0545 -0.00576138
-5.1976 5.6143 0.171213
-0.346984 12.056 -0.0155131
-0.346984 12.056 -0.0155131
-0.327103 12.036 -0.00616373
-0.590709 11.7759 0.0895146
-0.347502 12.0154 -0.00534694
-0.315611 12.0518 0.00416369
-0.314676 12.0566 0.00918001
-0.303863 12.0756 0.00910078
-0.315086 12.0956 0.00877318
-0.313898 12.0529 0.00262756
-0.324721 12.0338 0.00271135
-0.345964 12.0914 0.00268473
-0.314366 12.0906 0.00331414
-0.334738 12.0713 0.0030187
-0.334738 12.0713 0.0030187
-0.334738 12.0713 0.0030187
-0.335034 12.0742 0.0279192
-0.335759 12.0793 0.0333739
-0.336494 12.0811 0.0240738
-0.347416 12.0982 -0.00115228
-0.325509 12.0419 -0.000763372
-0.325509 12.0419 -0.000763372
-0.325509 12.0419 -0.000763372
-0.31289 12.0244 0.0240247
-0.31729 12.0205 0.0774221
-0.318167 12.0159 0.0724336
-0.324782 12.0401 0.00854465
-0.314913 12.0608 0.0329732
-0.315342 12.0565 -0.0159977
-0.315342 12.0565 -0.0159977
-0.314613 12.0579 0.0080775
-0.326161 12.0408 -0.001152
-0.325432 12.0389 0.00815626
-0.312486 12.0525 0.0360428
-0.298588 12.0256 0.0737845
-0.303385 12.0379 0.00840456
-0.315234 12.0236 0.024067
-0.30347 12.0442 0.0142424
-0.315346 12.0598 -0.00123017
-0.314613 12.0579 0.0080775
-0.326378 12.0342 0.00314552
-0.325433 12.0357 -0.0066054
-0.325433 12.0357 -0.0066054
-0.326379 12.0374 0.0179055
-0.325332 12.0027 0.0334589
-0.324781 12.0433 0.0233068
-0.336728 12.0652 0.013683
-0.35757 12.0837 0.0140878
-0.325913 12.0842 0.013607
-0.303683 12.0408 0.0332966
-0.315642 12.0594 0.0089014
-0.314281 12.0219 -0.000442692
-0.324781 12.0433 0.0233068
-0.324782 12.0401 0.00854465
-0.313245 12.0573 0.0177782
-0.302433 12.0763 0.0176972
-0.313245 12.0573 0.0177782
-0.313963 12.0591 0.0084637
-0.313245 12.0573 0.0177782
-0.313963 12.0591 0.0084637
-0.324782 12.0401 0.00854465
-0.302735 12.0391 0.00878873
-0.302017 12.0372 0.0181076
-0.334086 12.0757 0.0181746
-0.302017 12.0372 0.0181076
-0.334086 12.0757 0.0181746
-0.302735 12.0391 0.00878873
-0.313554 12.02 0.00886965
-0.323567 12.0575 0.00919153
-0.302735 12.0391 0.00878873
-0.324782 12.0401 0.00854465
-0.314912 12.0576 0.0182084
-0.323567 12.0575 0.00919153
-0.324782 12.0401 0.00854465
-0.302735 12.0391 0.00878873
-0.313554 12.02 0.00886965
-0.324782 12.0401 0.00854465
-0.302735 12.0391 0.00878873
-0.325509 12.0419 -0.000763372
-0.313554 12.02 0.00886965
-0.314501 12.0185 0.0186197
-0.326458 12.0404 0.00898611
-0.314912 12.0576 0.0182084
-0.325732 12.0385 0.0182937
-0.294867 12.0396 0.00959453
-0.327395 12.0389 0.0187419
-0.305359 12.0578 0.0185809
-0.315435 12.017 0.0283761
-0.304615 12.0361 0.0282864
-0.305078 12.0738 0.0289708
-0.315228 12.0204 0.00930781
-0.325509 12.0419 -0.000763372
-0.325509 12.0419 -0.000763372
-0.325732 12.0385 0.0182937
-0.325509 12.0419 -0.000763372
-0.314281 12.0219 -0.000442692
-0.325509 12.0419 -0.000763372
-0.314281 12.0219 -0.000442692
-0.336334 12.0229 -0.000682449
-0.325509 12.0419 -0.000763372
-0.316101 12.0971 0.00959609
-0.346558 12.057 0.0186958
-0.314913 12.0608 0.0329732
-0.327859 12.0799 0.0341954
-0.314253 12.0652 0.0481336
-0.313962 12.0623 0.0232302
-0.295808 12.0414 0.0341083
-0.313963 12.0591 0.0084637
-0.325733 12.0418 0.0330541
-0.314503 12.0218 0.0333775
-0.303682 12.0375 0.0185344
-0.325509 12.0419 -0.000763372
-0.325509 12.0419 -0.000763372
-0.314501 12.0185 0.0186197
-0.326458 12.0404 0.00898611
-0.326458 12.0404 0.00898611
-0.326458 12.0404 0.00898611
-0.325509 12.0419 -0.000763372
-0.324781 12.0433 0.0233068
-0.325733 12.0418 0.0330541
-0.334139 12.0819 0.0240328
-0.324782 12.0401 0.00854465
-0.334804 12.0775 0.00886563
-0.324782 12.0401 0.00854465
-0.324781 12.0433 0.0233068
-0.345364 12.1019 0.0237124
-0.324782 12.0401 0.00854465
-0.324117 12.0444 0.0237043
-0.34561 12.0585 0.00894639
-0.336058 12.0421 0.0244739
-0.325585 12.0481 0.00509872
-0.293257 12.0487 0.029771
-0.304509 12.0489 0.0298432
-0.324845 12.0462 0.014398
-0.293477 12.0454 0.048821
-0.283387 12.0663 0.0394333
-0.324116 12.0477 0.0384669
-0.312889 12.0276 0.0387847
-0.303024 12.0452 0.0484525
-0.313843 12.0261 0.0485311
-0.314576 12.028 0.0392223
-0.324849 12.0495 0.029162
-0.324849 12.0495 0.029162
-0.313298 12.0667 0.0383926
-0.324849 12.0495 0.029162
-0.314034 12.0685 0.0290883
-0.324116 12.0477 0.0384669
-0.324116 12.0477 0.0384669
-0.303738 12.0669 0.0387629
-0.350407 12.0671 0.107902
-0.350311 12.0574 0.0636131
-0.345683 12.068 0.0295729
-0.345683 12.068 0.0295729
-0.345683 12.068 0.0295729
-0.345683 12.068 0.0295729
-0.344714 12.0695 0.019833
-0.344714 12.0695 0.019833
-0.34495 12.0661 0.0388723
-0.31983 12.0953 0.085321
-0.329979 12.0745 0.0947383
-0.324117 12.0444 0.0237043
-0.324117 12.0444 0.0237043
-0.324845 12.0462 0.014398
-0.324845 12.0462 0.014398
-0.31457 12.0247 0.0244626
-0.324171 12.0538 0.0443333
-0.313235 12.0398 0.0843312
-0.314469 12.0443 0.13379
-0.347976 12.0902 0.208385
-0.347597 12.1034 0.278178
-0.401338 12.1272 0.327677
-0.434933 12.1761 0.417361
-0.455691 12.2068 0.531949
-0.46051 12.2215 0.681882
-0.492774 12.2736 0.785301
-0.517563 12.2873 0.919153
-0.622879 12.3821 1.07889
-0.787582 12.5007 1.29726
-0.637049 12.3871 1.39077
-0.725317 12.4303 1.51831
-0.878603 12.5912 1.64901
-1.04687 12.6766 1.88436
-1.13041 12.7336 2.10853
-1.17266 12.7999 2.30045
-1.28414 12.864 2.58181
-1.55794 13.044 2.84874
-1.705 13.0423 3.05271
-1.7354 13.1049 3.30246
-1.87454 13.133 3.49385
-2.02638 13.2136 3.74864
-2.10556 13.3235 3.92636
-2.27472 13.3581 4.13915
-2.34833 13.3723 4.31951
-2.47638 13.3381 4.44255
-2.65012 13.3729 4.64501
-2.80378 13.4329 4.81065
-2.95527 13.4375 4.98892
-3.10645 13.4738 5.13684
-3.26784 13.4507 5.26909
-3.4651 13.399 5.40754
-3.66682 13.2939 5.52506
-3.8174 13.235 5.65626
-3.96905 13.2026 5.74635
-4.06708 13.176 5.83193
-4.19903 13.1774 5.88773
-4.30642 13.1116 5.99789
-4.47935 13.0294 6.0874
-4.57586 12.9503 6.11241
-4.64556 12.9106 6.22164
-4.74283 12.863 6.30276
-4.81983 12.8064 6.34587
-4.88851 12.7514 6.33698
-4.95379 12.7118 6.36514
-5.0685 12.559 6.38524
-5.13715 12.5601 6.42757
-5.18992 12.4976 6.45077
-5.26295 12.4024 6.45173
-5.3261 12.3616 6.44107
-5.42476 12.2348 6.48848
-5.51294 12.2027 6.48099
-5.62632 12.0095 6.44071
-5.72945 11.923 6.41605
-5.76851 11.864 6.39623
-5.79157 11.8491 6.37822
-5.91452 11.7598 6.35492
-5.99819 11.6944 6.30202
-6.04116 11.6377 6.28589
-6.10885 11.5964 6.25192
-6.14951 11.5392 6.23186
-6.28302 11.3862 6.20903
-6.45143 11.2444 6.20977
-6.53362 11.172 6.17012
-6.64381 11.0733 6.16022
-6.69324 11.0554 6.14008
-6.78674 11.0091 6.12153
-6.87912 10.929 6.12227
-7.00099 10.8018 6.1048
-7.072 10.7526 6.10545
-7.13127 10.7123 6.08746
-7.24224 10.6535 6.08838
-7.38698 10.5442 6.10569
-7.4906 10.4473 6.0947
-7.5703 10.423 6.11162
-7.67245 10.3219 6.10298
-7.76642 10.2832 6.10314
-7.84716 10.218 6.13445
-7.96841 10.1416 6.14455
-8.05268 10.114 6.15618
-8.14489 10.0328 6.17079
-8.25442 9.92353 6.19107
-8.35997 9.86867 6.19317
-8.4436 9.79902 6.19783
-8.54365 9.70387 6.2153
-8.63588 9.66608 6.24781
-8.78851 9.58451 6.25559
-8.85919 9.52962 6.25591
-8.96991 9.46261 6.2702
-9.07459 9.40911 6.27938
-9.17634 9.31364 6.31493
-9.24469 9.30166 6.31515
-9.38898 9.2349 6.31233
-9.46982 9.1665 6.33842
-9.52202 9.18139 6.32594
-9.61234 9.14091 6.33511
-9.70171 9.05881 6.33574
-9.83648 8.96466 6.36158
-9.88408 8.93792 6.37872
-9.96521 8.86905 6.40179
-10.0706 8.85966 6.40872
-10.1721 8.80656 6.44355
-10.2432 8.75203 6.45712
-10.2809 8.73898 6.46985
-10.3872 8.67051 6.49165
-10.4676 8.68834 6.55055
-10.5636 8.60817 6.64633
-10.6515 8.56782 6.64644
-10.7011 8.49888 6.60404
-10.825 8.46327 6.62929
-10.9094 8.44039 6.6806
-11.0005 8.44299 6.71041
-11.0616 8.40272 6.74535
-11.1273 8.45273 6.7737
-11.2367 8.38331 6.82219
-11.2951 8.34309 6.8653
-11.4379 8.34006 6.92544
-11.4848 8.35464 6.96812
-11.5534 8.34009 7.00303
-11.6318 8.37384 7.06288
-11.6764 8.44836 7.12225
-11.8065 8.41579 7.1695
-11.8681 8.41866 7.21231
-11.912 8.45208 7.25913
-12.0155 8.44422 7.31929
-12.1021 8.42401 7.36232
-12.1765 8.5019 7.39967
-12.1935 8.56965 7.45579
-12.2917 8.5188 7.50765
-12.3333 8.51022 7.58098
-12.368 8.55519 7.61501
-12.4189 8.5255 7.66323
-12.4479 8.60685 7.74494
-12.5174 8.66176 7.77373
-12.5952 8.65487 7.82552
-12.6374 8.68607 7.89838
-12.6904 8.69891 7.93743
-12.8247 8.79917 7.96967
-12.9151 8.98037 8.01322
-13.2622 9.61072 8.04006
-13.0479 9.05072 8.10567
-13.3433 9.69622 8.11962
-13.1407 9.10024 8.26132
-13.2115 9.14992 8.28146
-13.2222 9.18208 8.28901
-13.2592 9.22649 8.31843
-13.3503 9.26464 8.35482
-13.3966 9.33938 8.36636
-13.4642 9.39593 8.37286
-13.47 9.43944 8.41064
-13.4711 9.4739 8.47172
-13.5043 9.59311 8.49008
-13.5995 9.75518 8.52992
-13.5818 9.78616 8.53765
-13.6059 9.85137 8.54415
-13.6099 9.93714 8.55101
-13.6231 9.92637 8.54626
-13.639 10.0432 8.57018
-13.6209 10.076 8.5908
-13.5967 10.1935 8.60656
-13.6528 10.265 8.63871
-13.6407 10.3346 8.64615
-13.6407 10.4193 8.67537
-13.6675 10.4766 8.71745
-13.6293 10.5297 8.73834
-13.6471 10.6023 8.7503
-13.6643 10.7164 8.76125
-13.6495 10.7912 8.78106
-13.6748 10.8968 8.77834
-13.6616 10.9696 8.81157
-13.6873 11.0267 8.82716
-13.669 11.1411 8.83749
-13.6833 11.2248 8.86573
-13.6889 11.3074 8.88577
-13.7057 11.3814 8.88429
-13.6871 11.4884 8.90854
-13.6625 11.5671 8.92091
-13.6729 11.5927 8.96811
-13.6961 11.7589 8.96411
-13.7071 11.8965 8.98183
-13.7561 12.0562 8.9861
-13.7927 12.1419 9.01064
-13.7918 12.2806 9.03723
-13.8089 12.3959 9.04257
-13.8628 12.5999 9.06662
-13.8948 12.6437 9.06535
-13.8978 12.7792 9.07142
-13.9484 12.8372 9.10884
-13.9672 12.9051 9.10547
-13.9894 12.9607 9.14342
-13.9953 13.0353 9.15065
-14.0435 13.2019 9.15032
-14.0815 13.2502 9.17277
-14.1198 13.368 9.17855
-14.1631 13.4412 9.16834
-14.2313 13.5276 9.1874
-14.2583 13.6589 9.19197
-14.3073 13.6434 9.19887
-14.376 13.7666 9.22431
-14.3678 13.9109 9.21086
-14.4899 14.0724 9.23109
-14.5409 14.2291 9.26077
-14.6134 14.397 9.25623
-14.7099 14.4974 9.23311
-14.7779 14.6265 9.2419
-14.8654 14.7474 9.22521
-14.9556 14.8875 9.22856
-15.0035 15.0174 9.1984
-15.0837 15.189 9.23658
-15.1852 15.3624 9.22663
-15.2492 15.4983 9.19483
-15.3779 15.6358 9.21686
-15.4526 15.8037 9.21925
-15.5104 16.0095 9.1881
-15.5932 16.1706 9.20256
-15.6627 16.3402 9.17084
-15.72 16.4958 9.16461
-15.8074 16.6566 9.16487
-15.8672 16.8042 9.17374
-15.8832 17.0043 9.18788
-15.9203 17.162 9.17581
-15.9564 17.337 9.20439
-15.9677 17.5322 9.20556
-15.9907 17.7105 9.19347
-16.0486 17.858 9.1609
-16.1202 17.9913 9.16982
-16.163 18.12 9.16921
-16.1879 18.2332 9.17115
-16.1964 18.4463 9.17156
-16.1876 18.5824 9.19956
-16.1785 18.7505 9.17402
-16.2448 18.8571 9.17807
-16.2275 19.0062 9.14336
-16.2161 19.1329 9.14253
-16.2746 19.1576 9.13895
-16.2658 19.2859 9.13558
-16.3026 19.4217 9.14904
-16.2985 19.57 9.18551
-16.3111 19.7205 9.18846
-16.3332 19.7712 9.16395
-16.3459 19.977 9.20145
-16.3757 20.1107 9.19037
-16.3645 20.2247 9.13116
-16.4277 20.3502 9.13295
-16.4237 20.4773 9.12172
-16.4913 20.564 9.13623
-16.5095 20.7595 9.14693
-16.4874 20.8627 9.12326
-16.482 20.9179 9.12119
-16.4634 21.0654 9.12221
-16.4646 21.1467 9.11985
-16.462 21.1968 9.13556
-16.4892 21.3256 9.1181
-16.5382 21.4 9.12729
-16.5243 21.4857 9.11657
-16.4936 21.6169 9.10174
-16.5415 21.7231 9.15781
-16.4863 21.7866 9.15654
-15.9889 22.2608 9.15067
-16.3868 21.8804 9.15669
-16.3913 21.8857 9.18233
-16.4347 21.8618 9.20041
-16.5024 21.892 9.22175
-16.4434 22.0386 9.35039
-16.389 22.0802 9.32741
-16.3859 22.089 9.30854
-16.2971 22.1685 9.32851
-16.2193 22.1701 9.33597
-16.2593 22.1228 9.34059
-16.3116 22.0688 9.3409
-16.2727 22.0661 9.3444
-16.2406 22.0906 9.32067
-16.2585 22.0919 9.32025
-16.219 22.061 9.35046
-16.2156 22.0276 9.36472
-16.2769 21.9514 9.34785
-16.3207 21.8932 9.40185
-16.2822 21.804 9.39796
-16.3154 21.7207 9.47715
-16.3322 21.6393 9.46775
-16.38 21.498 9.51288
-16.4225 21.4017 9.48384
-16.386 21.3326 9.51548
-16.342 21.286 9.52199
-16.3689 21.1356 9.5226
-16.3512 21.0203 9.48821
-16.3313 20.8755 9.47508
-16.3726 20.6884 9.47068
-16.3799 20.518 9.47369
-16.6957 19.8295 9.35986
-16.7339 19.6041 9.37102
-16.4668 19.8889 9.54502
-16.5166 19.5965 9.50219
-16.5353 19.3927 9.49764
-16.6181 19.1236 9.51892
-16.7988 18.5974 9.49293
-16.8103 18.3198 9.47607
-16.7804 17.9934 9.46843
-16.7774 17.752 9.44782
-16.8079 17.3859 9.48262
-16.8565 17.1326 9.48328
-16.8576 16.8517 9.50019
-16.9369 16.555 9.49867
-16.9364 16.3057 9.46167
-16.9836 16.0436 9.44505
-17.1667 15.5765 9.4247
-17.169 15.3054 9.43423
-17.2061 14.9958 9.42093
-17.2402 14.7235 9.47628
-17.3323 14.3789 9.4211
-17.3764 13.9664 9.43251
-17.4062 13.7533 9.45284
-17.4959 13.4789 9.4594
-17.5957 13.1968 9.38513
-17.6658 12.9042 9.38359
-17.7811 12.6429 9.39514
-17.856 12.3359 9.35887
-17.914 11.9941 9.35788
-18.0027 11.755 9.3967
-18.1587 11.4688 9.41041
-18.2258 11.3319 9.49531
-18.2628 11.0333 9.40362
-18.4525 10.7801 9.53268
-18.5686 10.4654 9.45447
-18.6221 10.2841 9.39093
-18.8117 9.93967 9.35318
-18.9137 9.73264 9.33935
-19.0292 9.52752 9.34991
-19.1743 9.27533 9.34619
-19.9763 8.37224 9.14037
-20.0955 8.15669 9.12108
-20.2473 7.89342 9.12659
-19.802 8.08493 9.31046
-20.4821 7.37344 9.12155
-20.034 7.53177 9.2404
-20.7082 6.75878 9.05499
-20.8067 6.50231 9.03404
-20.4128 6.55476 9.12559
-20.5105 6.31148 9.12747
-20.646 5.99332 9.08145
-20.6475 5.81536 9.07886
-21.105 5.2798 8.99594
-21.1553 5.01916 9.01804
-21.2027 4.78927 8.97169
-21.2363 4.48933 8.96856
-21.2674 4.22323 9.00511
-21.3036 4.04309 8.99802
-21.3446 3.82258 9.0014
-21.3425 3.60451 9.01349
-21.386 3.37389 9.0151
-21.3662 3.12528 9.04304
-21.3808 2.90333 8.99943
-21.373 2.42843 8.98701
-21.333 2.09445 8.96116
-21.2845 1.67812 8.9992
-21.3295 1.44544 8.96653
-21.3513 1.21772 9.04631
-21.3763 1.03993 9.00908
-21.3612 0.724559 8.96272
-21.367 0.418539 8.97234
-21.4373 0.142072 8.9693
-21.4399 -0.061026 8.95967
-21.5489 -0.363248 8.9539
-21.5712 -0.63476 8.94274
-21.5823 -1.06273 8.95939
-21.6139 -1.39611 8.96384
-21.6322 -1.6651 8.8922
-21.6441 -2.02646 8.87886
-21.725 -2.35616 8.86522
-21.7923 -2.63833 8.87628
-21.8195 -2.95911 8.82689
-21.8738 -3.18508 8.83687
-21.9002 -3.54308 8.8224
-21.963 -3.82285 8.7965
-22.0235 -4.13765 8.74692
-22.0639 -4.45554 8.7425
-22.1237 -4.76881 8.77283
-22.136 -5.03472 8.78082
-22.1814 -5.31737 8.74416
-22.1686 -5.62305 8.73847
-22.2447 -5.89507 8.71158
-22.217 -6.20328 8.67325
-22.2295 -6.43714 8.70358
-22.2798 -6.80181 8.68699
-22.2384 -7.19586 8.73545
-22.2064 -7.46088 8.71791
-22.1803 -7.73566 8.67902
-22.2154 -8.04757 8.68478
-22.1673 -8.35397 8.62343
-22.1585 -8.58594 8.61778
-22.1275 -8.97134 8.631
-22.1182 -9.19878 8.62631
-22.1081 -9.46356 8.64397
-22.0753 -9.72751 8.65973
-22.0215 -10.0298 8.70738
-22.0172 -10.34 8.67898
-21.9697 -10.6066 8.7058
-21.8802 -10.9093 8.71987
-21.8464 -11.1698 8.71372
-21.7786 -11.4743 8.70562
-21.6997 -11.6883 8.7214
-21.6288 -11.9894 8.70165
-21.5386 -12.6013 8.69633
-21.4482 -12.9003 8.66498
-21.3807 -13.1611 8.65833
-21.2923 -13.4601 8.63784
-21.2072 -13.8368 8.6939
-21.0857 -14.06 8.70662
-20.9779 -14.2774 8.68784
-20.9114 -14.5375 8.71192
-20.7526 -14.9475 8.73475
-20.622 -15.1598 8.68354
-20.4612 -15.4145 8.67398
-20.3398 -15.6534 8.68702
-20.086 -15.8857 8.65883
-19.868 -16.1146 8.70639
-19.6512 -16.3439 8.71014
-19.5084 -16.482 8.73673
-19.3025 -16.6271 8.78634
-13.5357 -17.7506 9.2711
-13.3051 -17.5789 9.34692
-13.043 -17.549 9.3352
-13.5394 -20.0171 9.27261
-11.2714 -16.5474 9.60033
-11.0408 -16.3615 9.61981
-10.7794 -16.1499 9.59387
-10.5688 -15.7694 9.59867
-10.4769 -15.4858 9.59392
-10.2647 -15.1483 9.59842
-9.69939 -14.0564 9.55214
-9.56832 -13.7251 9.51288
-9.36245 -13.3212 9.47789
-9.18497 -12.8845 9.42241
-9.04996 -12.407 9.37269
-10.423 -14.4308 9.29266
-10.4658 -14.3778 9.28462
-10.6108 -14.2383 9.25482
-8.33278 -10.5425 9.19545
-8.02044 -9.58204 9.02538
-7.87863 -8.95877 9.01655
-7.06586 -6.4613 8.57923
-6.95708 -5.99523 8.44919
-6.72633 -5.46221 8.39045
-6.65062 -4.94237 8.24062
-6.50387 -4.50187 8.19548
-6.45645 -3.07976 8.03976
-6.33316 -2.57799 7.95699
-5.76652 -1.32492 8.35087
-5.74343 -1.08091 8.25173
-6.09582 -1.16857 7.64113
-5.9583 -0.796114 7.59043
-5.7463 -0.108582 8.03332
-5.72204 0.159672 7.96384
-5.69716 0.434493 7.94637
-5.70032 0.815119 7.91091
-5.67608 1.03401 7.85493
-5.66193 1.38796 7.8069
-5.60249 1.65754 7.76308
-5.62282 1.94563 7.70519
-5.55825 2.17946 7.63551
-5.51547 2.46296 7.60408
-5.50673 2.6594 7.58432
-5.41187 2.93373 7.53801
-4.37042 4.31246 7.0307
-4.1851 4.7948 6.99538
-4.10895 5.12444 6.9745
-3.95231 5.69498 6.95494
-5.12451 4.21493 6.89172
-3.50637 6.53157 6.88877
-3.41302 6.83267 6.80882
-3.28032 7.22973 6.82221
-4.50885 5.54887 6.74779
-4.27033 5.93005 6.72048
-2.79269 8.23657 6.70252
-2.61771 8.51561 6.6603
-3.84859 6.83761 6.66331
-2.18968 9.34041 6.59418
-1.97658 9.67004 6.58502
-1.84152 10.0181 6.54725
-3.14308 8.06694 6.56225
-1.53552 10.5857 6.5026
-1.18536 11.1705 6.45604
-1.00757 11.4465 6.43231
-0.810565 11.8618 6.42196
-0.720465 12.095 6.39197
-0.614492 12.2731 6.39001
-0.40773 12.6574 6.36523
-0.286995 12.9661 6.35431
-0.0552049 13.3317 6.32864
-1.26315 11.3995 6.3789
-1.0539 11.7275 6.31841
0.56337 14.3761 6.27306
0.780211 14.7254 6.22605
-0.4941 12.5848 6.29656
1.14053 15.4219 6.24219
1.33669 15.7271 6.21607
1.57652 16.0834 6.17634
1.77183 16.4169 6.17126
1.83179 16.5912 6.12567
1.99597 16.9981 6.14464
2.23277 17.374 6.09479
0.949564 15.0897 6.24865
2.64128 18.1504 6.06026
2.77309 18.4707 6.04563
2.95324 18.8164 6.05186
3.04302 19.1084 5.99151
1.80748 16.95 6.14298
3.35995 19.7965 6.00331
3.46093 20.2351 5.98534
2.09217 17.9272 6.10082
3.78492 21.0784 5.99386
3.89851 21.432 5.98851
4.02442 21.8896 5.95731
4.17939 22.3138 5.97185
4.32656 22.6205 5.97668
4.38006 23.1114 5.95855
4.50189 23.4566 5.93941
4.58023 23.7766 5.91031
4.72443 24.2702 5.86931
4.80234 24.5885 5.90855
4.87347 25.0854 5.85355
4.98868 25.4445 5.88945
5.06696 25.9932 5.86578
5.16578 26.3648 5.86666
4.43891 25.5953 5.88244
5.35047 27.3903 5.87245
5.4544 27.8439 5.87434
5.50477 28.2414 5.88586
5.50983 28.5888 5.86621
5.58713 29.0223 5.86649
5.67507 29.8481 5.78826
5.5465 30.7023 5.73923
5.69058 31.2158 5.77985
5.44468 34.5525 5.80656
5.2972 35.5191 5.94732
5.22933 35.8789 5.9628
5.00856 36.4033 5.98772
4.89604 36.5965 5.94425
4.74734 36.7914 5.96641
3.81115 35.1246 5.92236
2.6121 34.9866 6.1952
3.70235 35.6353 6.03044
2.41926 36.1594 6.19596
3.43965 36.6464 5.8519
3.76318 38.1339 6.00449
3.29588 36.974 5.92258
3.17721 37.1222 5.93394
3.09365 37.2893 5.89736
3.01501 37.3988 5.92193
2.936 37.5182 5.92631
2.92617 37.6231 5.93661
2.87619 37.7527 5.95863
2.79241 37.87 5.97578
2.71486 37.8669 5.96218
2.66259 37.9309 5.99343
2.60727 38.0094 6.02498
2.51732 38.0001 6.03067
2.41776 38.037 6.0311
2.31771 38.0526 6.06867
2.25374 38.0546 6.05761
2.15097 38.0502 6.07812
1.97731 37.9518 6.10701
1.90314 37.8538 6.12945
1.23845 40.5888 5.10452
1.56151 37.8393 6.1578
1.3856 37.7504 6.14271
1.24519 37.722 6.18294
1.07722 37.6385 6.17115
0.566824 38.7969 5.82844
0.414343 38.7616 5.83431
0.179544 38.6872 5.87471
-0.29949 40.4142 5.13626
0.24932 37.1143 6.27461
-0.583558 40.376 5.16835
0.00453806 36.9605 6.32506
-0.709862 38.4517 5.9644
-0.815109 38.3204 5.98149
-1.04933 38.2459 6.02081
-1.24248 38.0752 6.07122
-1.43561 37.9666 6.07865
-1.58785 37.8403 6.08612
-1.74756 37.7085 6.10309
-1.85742 37.5787 6.13034
-2.03888 37.3974 6.15634
-2.26515 37.2675 6.21472
-2.41723 37.0901 6.23184
-1.77135 34.9407 6.78001
-2.70572 36.6521 6.36379
-2.9013 36.4824 6.42267
-3.04584 36.2825 6.45866
-3.22659 36.0318 6.45944
-3.36826 35.8358 6.55575
-2.56675 33.5898 7.11619
-3.65819 35.4291 6.69451
-3.8787 35.2495 6.82173
-3.98439 34.9943 6.85937
-4.20012 34.7451 6.96026
-4.33783 34.5207 7.04791
-3.55196 32.1433 7.5905
-4.71818 33.8975 7.21203
-4.97238 33.7188 7.29391
-5.03691 33.5025 7.43307
-5.21018 33.2511 7.50832
-5.35616 32.9733 7.60503
-4.52162 30.7006 8.13935
-5.67143 32.4804 7.85821
-4.90358 30.2192 8.31706
-6.06014 32.0022 8.0087
-6.30068 31.7873 8.12391
-6.47005 31.4878 8.20691
-6.68205 31.2619 8.33411
-5.92292 28.9633 8.75661
-6.10193 28.703 8.85041
-7.3147 30.443 8.64039
-6.62499 28.1748 9.02046
-7.73821 29.9212 8.8207
-7.98294 29.6882 8.85116
-7.22279 27.4655 9.15598
-7.4323 27.1806 9.19866
-8.64026 29.041 9.06485
-8.87114 28.8858 9.11774
-9.11465 28.4909 9.18764
-9.32631 28.3947 9.27905
-9.49726 28.1957 9.26678
-8.55378 25.6781 9.51569
-9.89749 27.4526 9.40349
-10.071 27.282 9.40822
-10.263 27.0325 9.45409
-10.4013 26.6991 9.51704
-9.53172 24.2072 9.70379
-10.3324 22.7266 9.68323
-10.9544 25.935 9.57953
-11.0705 25.6784 9.66416
-11.1522 25.4876 9.67275
-10.1987 22.9098 9.8869
-10.3933 22.5536 9.94736
-10.8566 21.5276 9.69888
-10.6174 22.1047 10.016
-10.9095 21.2492 9.78096
-11.8682 23.7855 9.96302
-10.9957 20.8854 9.85224
-11.0113 20.7707 9.88341
-11.0292 20.6506 9.88833
-11.0888 20.457 9.92533
-12.2222 22.4752 9.83543
-11.3567 19.9673 10.293
-11.5189 19.6427 10.2769
-11.623 19.3688 10.3409
-11.7775 19.0656 10.3339
-11.9597 18.8091 10.3782
-12.1031 18.5301 10.3999
-12.1776 18.2702 10.4269
-12.332 18.0622 10.4225
-12.4893 17.737 10.4534
-12.6098 17.5115 10.4831
-13.7466 19.3539 10.5043
-13.0282 16.8845 10.4991
-13.0805 16.6026 10.5565
-13.2275 16.2935 10.577
-13.3739 16.0002 10.626
-14.204 14.7576 10.4792
-14.6942 17.6451 10.7552
-14.8689 17.4096 10.7364
-15.0137 17.3078 10.745
-15.2386 16.8682 10.7683
-15.3359 16.4954 10.7635
-15.4861 16.3389 10.76
-14.5466 13.6449 10.6855
-15.7174 15.7042 10.744
-14.8363 12.902 10.7361
-14.9102 12.5077 10.8327
-14.9941 12.2259 10.8658
-15.0351 11.917 10.813
-15.1489 11.5195 10.8777
-15.2483 11.1576 10.8808
-15.3599 10.8519 10.8765
-15.438 10.4605 10.8745
-15.5098 10.1773 10.9492
-15.6256 9.77627 10.9974
-15.6216 9.55046 10.9904
-15.7472 9.22707 11.0516
-15.7576 8.95013 11.1172
-15.7986 8.67838 11.1187
-15.8516 8.36374 11.1508
-15.8235 8.00001 11.2051
-15.7669 7.60824 11.238
-15.8174 7.11716 11.2955
-15.9121 6.84818 11.2935
-16.0418 6.53301 11.352
-16.1259 6.30354 11.4568
-16.2704 5.90149 11.5206
-16.0587 5.81976 11.4692
-16.0785 5.52324 11.5104
-16.113 5.28218 11.5673
-16.5837 4.54335 11.46
-16.347 4.6642 11.6347
-16.3303 4.33654 11.5691
-16.7084 3.58564 11.5248
-16.3518 3.63065 11.7219
-16.4535 3.29468 11.7396
-16.539 3.06081 11.7643
-16.5815 2.74399 11.7821
-16.6303 2.4881 11.7967
-16.6513 2.31195 11.838
-16.6538 2.08443 11.8656
-16.6948 1.79706 11.8995
-16.7796 1.49834 11.9328
-16.7809 1.28604 11.9451
-17.1002 0.792355 11.9975
-17.1466 0.578358 11.9762
-17.1455 0.350856 11.9994
-17.1818 0.100163 12.0262
-17.1873 -0.0549102 12.071
-17.2631 -0.399809 12.081
-17.3444 -0.660241 12.1115
-17.425 -0.889436 12.0997
-17.4338 -1.13498 12.1025
-17.4694 -1.39498 12.1011
-17.5667 -1.72165 12.1118
-17.7157 -2.00913 12.1433
-17.6976 -2.19011 12.1431
-17.7371 -2.45769 12.108
-17.7682 -2.7229 12.1089
-17.7467 -2.93985 12.1109
-17.7343 -3.23718 12.0881
-17.7531 -3.48753 12.0473
-17.7488 -3.73822 12.055
-17.7803 -4.00628 12.0392
-17.77 -4.25034 12.0515
-17.802 -4.55307 12.02
-17.7652 -4.74445 12.0037
-17.762 -4.94842 11.9818
-17.7504 -5.22721 11.9896
-17.6846 -5.54268 11.9599
-17.6522 -5.72595 11.9515
-17.6291 -5.9571 11.9255
-17.5815 -6.17953 11.9273
-17.5546 -6.4402 11.9168
-17.53 -6.6836 11.9331
-17.4587 -6.90702 11.9191
-17.4193 -7.20078 11.9019
-17.386 -7.43082 11.9289
-17.3336 -7.61121 11.8923
-17.2799 -7.83556 11.8885
-17.204 -8.00764 11.8629
-17.1258 -8.19732 11.8694
-17.0653 -8.40028 11.8788
-16.9966 -8.5896 11.8704
-16.9454 -8.74842 11.8569
-16.8643 -9.04832 11.8139
-16.7584 -9.22372 11.8367
-16.7142 -9.42332 11.8089
-16.5034 -10.0425 12.0949
-16.3905 -10.3013 12.0569
-16.3207 -10.5178 12.0878
-16.2475 -10.6572 12.0983
-16.1434 -10.8506 12.102
-16.0757 -11.119 12.1027
-15.9886 -11.2967 12.1034
-15.9476 -11.5396 12.1088
-15.7987 -11.7881 12.0999
-15.7359 -11.9692 12.1436
-15.6017 -12.1482 12.1613
-15.5366 -12.3197 12.1793
-15.4179 -12.529 12.1783
-15.3146 -12.7827 12.1996
-15.2846 -12.9411 12.2487
-15.2138 -13.0849 12.2823
-15.1454 -13.2896 12.275
-15.1282 -13.3849 12.3146
-14.8993 -13.6729 12.346
-14.799 -13.8863 12.3934
-14.8224 -13.9472 12.4224
-14.7584 -14.1487 12.4626
-14.6247 -14.3415 12.4444
-14.5402 -14.5616 12.4716
-14.421 -14.6849 12.5034
-14.1768 -15.0937 12.5817
-14.0583 -15.2397 12.5797
-13.9402 -15.3511 12.5672
-13.8163 -15.4507 12.5476
-13.621 -15.6581 12.5696
-13.5984 -15.6216 12.544
-13.426 -15.6898 12.4834
-13.2063 -15.8359 12.4458
-13.0259 -15.8508 12.3786
-12.9256 -15.9098 12.3203
-12.7755 -15.8715 12.211
-11.8024 -17.2854 11.4381
-12.1853 -15.8071 11.8775
-11.9977 -15.7905 11.732
-11.6797 -15.8414 11.5763
-11.6146 -15.6186 11.3552
-11.3781 -15.5988 11.183
-11.2438 -15.4184 11.0536
-11.0656 -15.3338 10.8776
-9.50514 -14.6745 10.0249
-9.23347 -14.6387 9.82365
-9.26723 -14.5962 9.61711
-7.84135 -15.0267 8.5751
-6.81536 -14.0811 7.90029
-6.59631 -13.8366 7.8018
-6.25268 -13.5671 7.69606
-5.9992 -13.3605 7.58906
-5.68811 -13.064 7.48818
-5.38531 -12.8353 7.41177
-5.1248 -12.5659 7.32355
-4.79255 -12.3686 7.22819
-4.52438 -12.0455 7.13183
-4.22401 -11.8194 7.08981
-3.95291 -11.4952 7.0442
-3.62811 -11.2277 6.97833
-2.52799 -10.2559 6.82522
-2.2228 -9.97101 6.79292
-3.06884 -11.6356 6.68155
-2.68592 -11.2799 6.68792
-2.48784 -11.2038 6.65711
-1.49623 -9.70004 6.65745
-1.18471 -9.49004 6.648
-1.6915 -10.6789 6.56925
-0.626209 -9.16171 6.60032
-0.286569 -8.97084 6.56328
-0.00506712 -8.79136 6.51298
0.266549 -8.6585 6.54036
0.612056 -8.56296 6.49001
0.917855 -8.3348 6.47839
1.22704 -8.14903 6.44035
1.43917 -8.02356 6.42764
1.74348 -7.79749 6.4159
2.07289 -7.48313 6.36519
2.4067 -7.17758 6.3279
2.66807 -6.98206 6.2766
2.95761 -6.69807 6.25174
3.24786 -6.4173 6.21362
3.50705 -6.13454 6.16327
3.79657 -5.89874 6.13913
4.0261 -5.65806 6.08866
4.37399 -5.25429 6.06364
4.63622 -4.88172 5.94725
4.92707 -4.5173 5.93478
5.11073 -4.26805 5.87108
5.38717 -3.8652 5.82022
5.61794 -3.53149 5.78087
5.86413 -3.15849 5.75353
6.0813 -2.79849 5.68917
6.1429 -2.47472 5.6494
6.36489 -2.07541 5.56959
6.48812 -1.65811 5.51476
6.71933 -1.25376 5.48973
6.98451 -0.744424 5.45915
7.15568 -0.32874 5.39236
7.35415 0.0490571 5.38956
7.57008 0.429908 5.38622
7.72152 0.92103 5.32784
7.92022 1.32613 5.23828
8.14401 1.77103 5.19225
8.23232 2.33727 5.15364
8.97267 2.16145 5.20535
8.67915 3.2823 5.11775
9.46906 3.11379 5.08632
9.69623 3.65241 5.06231
9.88689 4.09887 5.06274
10.1115 4.65343 5.00827
10.3518 5.17607 4.9546
9.97807 6.37733 4.95934
10.1609 6.88994 4.97292
11.3533 7.30642 4.79123
12.4105 19.6056 4.80882
14.0226 22.036 4.5673
16.1341 25.1545 5.3604
13.4233 27.704 4.82112
17.005 28.734 5.14198
14.4166 34.6785 4.31117
13.6858 35.0503 4.65629
13.9523 35.6 4.36681
13.8046 35.743 4.41071
13.5592 36.0716 4.23435
13.3875 36.22 4.25549
13.2343 36.2545 4.37207
12.9944 36.3515 4.29266
12.8241 36.3419 4.32132
12.653 36.4872 4.41682
12.4193 36.5637 4.2295
12.2669 36.4862 4.28905
12.11 36.4923 4.33575
11.8368 36.4947 4.16192
11.7053 36.4464 4.23334
11.5158 36.3518 4.22175
11.3066 36.2381 4.25927
11.1037 36.0835 4.30464
10.9899 35.9517 4.29235
10.7383 35.7812 4.34648
10.5147 35.5841 4.35588
10.1678 35.126 4.37904
10.0188 34.8424 4.40214
10.3526 34.8153 4.76547
7.60787 34.016 4.32854
8.60011 31.9351 4.8541
7.36479 30.9664 5.12961
6.0556 29.7173 5.12775
5.63267 29.2756 5.105
5.17005 28.7926 5.0434
4.65459 28.4188 5.04951
3.82369 27.3892 4.89668
3.68491 27.5065 5.02623
3.21841 27.1305 5.00994
2.7693 26.6979 4.99189
2.17724 26.1673 5.02263
1.0768 24.4565 4.84432
0.738982 24.7534 5.00757
-0.229778 23.757 4.98737
-0.705679 23.2608 5.02694
-4.98079 18.183 4.93798
-5.48846 17.7031 4.93794
-5.86992 17.095 4.95813
-6.14112 16.6588 4.96782
-5.45957 15.4062 4.93137
-6.15268 13.5511 4.83327
-7.97792 15.1621 4.84714
-8.74886 15.3594 4.85542
-8.42139 13.8724 4.85027
-8.18535 12.2177 4.79416
-8.26528 11.7863 4.74414
-8.42101 11.2022 4.76173
-8.6719 10.326 4.6443
-8.92635 9.03067 4.56371
-9.28606 8.21268 4.48862
-9.31001 7.95123 4.40781
-9.07023 7.96373 4.40083
-9.12483 7.56101 4.4296
-9.09243 7.15054 4.38379
-9.09596 6.73451 4.39378
-9.18722 6.50194 4.36654
-9.20489 6.23073 4.31967
-9.27807 5.79849 4.20668
-9.34794 5.46423 4.17124
-9.32761 5.22006 4.17651
-9.33779 4.77119 4.10866
-9.28979 4.45004 4.07469
-9.33386 4.09834 4.08132
-9.2917 3.80507 4.02847
-9.27948 3.49909 4.0313
-9.26758 3.14995 3.99982
-9.28514 2.79661 3.9873
-9.37873 2.35596 3.88244
-9.11369 2.3638 3.95099
-9.15827 1.93451 3.97722
-9.28512 1.45477 3.90789
-9.25295 1.21228 3.91213
-9.15043 0.896262 3.89834
-9.04199 0.680517 3.99544
-8.95143 0.419707 3.99089
-8.81513 0.186221 3.98271
-8.66599 0.0450548 3.9966
-8.66386 -0.205584 3.99561
-8.57626 -0.467258 3.95982
-8.38164 -0.536131 3.91679
-8.37363 -0.874748 3.99123
-8.26269 -1.0348 3.97573
-7.88597 -1.3028 4.06759
-7.71458 -1.43953 4.01009
-7.54323 -1.55589 3.99494
-7.35489 -1.59629 3.97249
-7.1679 -1.62296 3.92853
-6.91008 -1.6471 3.95778
-6.68074 -1.69051 3.94787
-7.16975 -0.356795 4.01766
-6.15096 -1.70569 3.93985
-5.99072 -1.74387 3.9419
-5.80995 -1.68798 3.9285
-5.12495 -2.15409 3.86305
-5.44723 -1.47466 3.9009
-4.7465 -1.87798 3.83421
-4.9311 -1.27907 3.86273
-4.70169 -1.06 3.90003
-4.49904 -0.838032 3.88244
-4.26997 -0.681036 3.84869
-3.78422 -0.149632 3.9088
-2.89577 0.877545 3.92412
-3.35612 0.111132 3.93242
-2.44793 1.36044 3.93943
-2.87361 0.624137 3.8838
-2.60206 0.919765 3.8728
-2.43013 1.11823 3.88706
-2.17914 1.38118 3.88394
-1.1985 2.73044 3.95815
-1.64903 1.97614 3.90745
-0.700986 3.35082 3.96863
-1.25402 2.48258 3.90966
-1.0454 2.72676 3.92635
-0.802247 2.97697 3.93646
-0.532189 3.29667 3.94592
-0.314134 3.55091 3.96982
-0.060839 3.89041 3.98143
0.179102 4.25489 3.92435
0.459013 4.54393 3.89531
0.758307 4.85407 3.91648
1.05477 5.16827 3.83266
1.31168 5.43434 3.84999
1.61347 5.78537 3.84493
2.78468 7.52602 3.81228
3.09506 8.05784 3.80024
2.62155 7.00553 3.82786
2.9647 7.39175 3.76947
7.32213 19.7689 3.71834
6.87826 20.2804 3.74504
6.64134 20.5987 3.73332
5.57958 22.4515 3.94544
5.29558 22.5702 3.93595
5.46574 23.6176 3.82648
4.16848 23.108 3.93308
4.01412 23.1652 3.9286
4.30023 23.5608 3.78628
4.02347 23.5243 3.76316
3.681 23.4364 3.75426
3.37891 23.3899 3.72155
3.0978 23.375 3.69816
2.68392 23.2793 3.67631
2.36278 23.1674 3.67833
2.03117 23.0215 3.63297
1.7961 23.1197 3.76387
1.4025 22.9121 3.6234
1.07834 22.8207 3.57874
0.703536 22.774 3.65872
0.445936 22.6817 3.61415
0.0595573 22.5717 3.63766
-0.234233 22.4707 3.61549
-0.48043 22.3603 3.58282
-0.879867 22.1616 3.6066
-1.18658 22.1055 3.60746
-1.46251 22.0111 3.64246
-1.80913 21.9084 3.63173
-2.08408 21.8112 3.64471
-2.40943 21.6112 3.62435
-2.78395 21.5203 3.63777
-3.02238 21.3553 3.67383
-3.35916 21.1962 3.70079
-3.73096 20.9638 3.73807
-4.21966 20.3955 3.8608
-4.33669 20.48 3.78883
-4.61689 20.3126 3.893
-4.95031 20.0326 3.91152
-5.23533 19.8453 3.9141
-5.57323 19.5946 3.9793
-5.80007 19.4232 4.01219
-6.07879 19.2402 4.07826
-6.22021 19.2097 4.02426
-6.4619 19.0482 4.1065
-6.71136 18.8115 4.15644
-6.99911 18.582 4.24836
-7.22761 18.3073 4.31236
-7.4784 17.98 4.39804
-7.6718 17.839 4.53907
-7.81141 17.729 4.75236
-7.95064 17.5698 4.90073
-8.26359 17.1074 4.91893
-8.56049 16.8149 5.00041
-9.08295 16.0021 5.26445
-9.06011 16.0426 5.20442
-9.21981 15.7265 5.32725
-9.48182 15.3917 5.4638
-9.68015 15.0906 5.56718
-9.91091 14.7852 5.68637
-10.1359 14.4547 5.82906
-10.3926 14.0668 5.9177
-10.5783 13.7298 6.03522
-10.7781 13.4177 6.16866
-10.9551 13.13 6.28535
-11.1201 12.7731 6.41716
-11.284 12.4134 6.5436
-11.4535 12.0486 6.70206
-11.5875 11.7664 6.87076
-11.6783 11.2583 6.96474
-11.676 10.4695 7.10056
-11.8683 10.209 7.17957
-12.0014 9.86984 7.2806
-12.1508 9.60603 7.35363
-12.2933 9.26925 7.43692
-12.4373 8.88182 7.60662
-12.5402 8.43427 7.7137
-12.7048 8.0917 7.77506
-12.7212 7.71619 7.85552
-12.8693 7.40298 7.93218
-12.914 6.86144 7.98888
-13.0444 6.56347 8.02682
-13.1512 6.25286 8.07761
-13.2013 5.92503 8.16087
-13.3232 5.56853 8.18123
-13.4075 5.13539 8.26854
-13.4472 4.81834 8.34857
-13.5568 4.51636 8.38182
-13.6062 4.13513 8.40293
-13.6602 3.77345 8.46656
-13.6961 3.42663 8.54496
-14.0456 1.8742 8.72098
-14.1138 1.55913 8.71536
-14.3632 -0.538836 9.02929
-14.4273 -0.851215 9.05621
-20.062 -9.89247 7.81306
-15.2748 -5.53233 9.71712
-17.2697 -9.0759 9.84937
-17.181 -9.18451 9.89809
-18.4715 -5.76801 8.57859
-15.6267 -6.95664 10.0415
