ply
format ascii 1.0
element vertex 2001
property float x
property float y
property float z
element face 0
property list uchar int vertex_index
end_header
1.26514 -4.27762 0.252743
1.26483 -4.27784 0.252588
1.2646 -4.27797 0.252432
1.26445 -4.27802 0.252276
1.26437 -4.27799 0.252114
1.26437 -4.27788 0.25194
1.26444 -4.27772 0.251762
1.26454 -4.27753 0.251613
1.26466 -4.27735 0.251532
1.26477 -4.27721 0.251552
1.26483 -4.27715 0.251679
1.26484 -4.27717 0.251879
1.26479 -4.27728 0.252107
1.2647 -4.27743 0.252294
1.26459 -4.2776 0.252395
1.26448 -4.27776 0.252381
1.26438 -4.27789 0.252251
1.26432 -4.27798 0.252025
1.26428 -4.27802 0.25175
1.26428 -4.27801 0.251471
1.26431 -4.27796 0.251231
1.26435 -4.27789 0.251053
1.2644 -4.27782 0.250963
1.26443 -4.27776 0.25096
1.26445 -4.27774 0.251037
1.26445 -4.27776 0.251178
1.26443 -4.27781 0.25135
1.26439 -4.27789 0.251536
1.26434 -4.27798 0.251714
1.2643 -4.27806 0.251884
1.26427 -4.27813 0.25205
1.26425 -4.27817 0.252219
1.26424 -4.27818 0.252397
1.26426 -4.27816 0.252575
1.26429 -4.27811 0.252712
1.26433 -4.27803 0.252769
1.26438 -4.27793 0.252692
1.26443 -4.27783 0.252461
1.26447 -4.27775 0.252096
1.2645 -4.27769 0.251636
1.26449 -4.27766 0.251131
1.26445 -4.27768 0.250662
1.26437 -4.27774 0.250284
1.26427 -4.27783 0.250038
1.26416 -4.27793 0.249946
1.26405 -4.27801 0.250018
1.26397 -4.27808 0.25025
1.26392 -4.27812 0.250621
1.26391 -4.27813 0.251082
1.26393 -4.27812 0.251555
1.26398 -4.27808 0.251967
1.26406 -4.27802 0.252268
1.26414 -4.27795 0.252443
1.26422 -4.27787 0.252506
1.26431 -4.27778 0.252478
1.26438 -4.2777 0.252389
1.26446 -4.27763 0.252275
1.26453 -4.27755 0.252157
1.2646 -4.27747 0.252049
1.26468 -4.27739 0.251965
1.26476 -4.27731 0.2519
1.26484 -4.27724 0.25186
1.2649 -4.27719 0.251841
1.26492 -4.27718 0.251848
1.2649 -4.27723 0.251881
1.26483 -4.27733 0.251947
1.26473 -4.27747 0.252041
1.2646 -4.27763 0.252153
1.26447 -4.27775 0.252274
1.26436 -4.27784 0.252397
1.26428 -4.27787 0.252518
1.26423 -4.27785 0.252627
1.26421 -4.2778 0.252733
1.26421 -4.27773 0.252845
1.26423 -4.27767 0.25298
1.26426 -4.27762 0.253141
1.2643 -4.27758 0.253312
1.26435 -4.27754 0.253461
1.26441 -4.27749 0.253544
1.26447 -4.27743 0.253514
1.26453 -4.27736 0.253346
1.26458 -4.27729 0.253049
1.2646 -4.27724 0.252661
1.26461 -4.27721 0.252242
1.26458 -4.27721 0.251841
1.26453 -4.27724 0.251508
1.26447 -4.27729 0.25127
1.2644 -4.27735 0.251146
1.26435 -4.2774 0.25113
1.26432 -4.27742 0.251206
1.26434 -4.27739 0.251349
1.2644 -4.2773 0.251513
1.2645 -4.27718 0.251649
1.26462 -4.27703 0.251717
1.26474 -4.2769 0.251716
1.26483 -4.27678 0.251657
1.26491 -4.2767 0.251577
1.26495 -4.27665 0.251511
1.26498 -4.27663 0.251491
1.26498 -4.27664 0.25155
1.26495 -4.27669 0.251686
1.26491 -4.27678 0.251867
1.26485 -4.27691 0.252066
1.26478 -4.27708 0.252247
1.2647 -4.27727 0.252389
1.26463 -4.27745 0.252498
1.26457 -4.2776 0.252571
1.26455 -4.27769 0.252615
1.26456 -4.27771 0.252625
1.26458 -4.27769 0.252592
1.26459 -4.27765 0.25252
1.26458 -4.27762 0.252438
1.26453 -4.27762 0.252361
1.26446 -4.27765 0.252303
1.26437 -4.27769 0.252255
1.26428 -4.27771 0.252201
1.2642 -4.27772 0.252125
1.26413 -4.27773 0.25201
1.26406 -4.27774 0.251865
1.264 -4.27776 0.251694
1.26396 -4.27779 0.251517
1.26393 -4.27782 0.251337
1.26393 -4.27783 0.25117
1.26396 -4.27781 0.251025
1.26403 -4.27776 0.250921
1.26413 -4.27768 0.250864
1.26424 -4.27757 0.250866
1.26437 -4.27745 0.250911
1.26449 -4.27734 0.250977
1.26459 -4.27726 0.251035
1.26466 -4.27722 0.251067
1.26468 -4.27724 0.251083
1.26467 -4.27729 0.251119
1.26463 -4.27738 0.25121
1.26457 -4.27749 0.251386
1.26451 -4.2776 0.251647
1.26444 -4.2777 0.25198
1.26438 -4.2778 0.252348
1.26433 -4.27788 0.252711
1.2643 -4.27794 0.253013
1.26428 -4.27798 0.253218
1.26429 -4.27799 0.253302
1.26432 -4.27796 0.253255
1.26437 -4.27791 0.253076
1.26443 -4.27781 0.252756
1.26451 -4.27768 0.252312
1.26459 -4.27754 0.251785
1.26467 -4.27738 0.251247
1.26475 -4.27722 0.250789
1.26482 -4.27708 0.250481
1.26488 -4.27696 0.250359
1.26494 -4.27687 0.250424
1.26499 -4.2768 0.250647
1.26502 -4.27676 0.250996
1.26503 -4.27675 0.251419
1.26502 -4.27678 0.251856
1.26496 -4.27685 0.252233
1.26487 -4.27698 0.252492
1.26475 -4.27715 0.252625
1.26461 -4.27734 0.252648
1.26448 -4.27751 0.252616
1.26436 -4.27766 0.252571
1.26427 -4.27778 0.252536
1.26419 -4.27788 0.252495
1.26412 -4.27798 0.252425
1.26405 -4.27808 0.252304
1.26398 -4.27817 0.25214
1.26392 -4.27826 0.251965
1.26387 -4.27832 0.251821
1.26385 -4.27835 0.251764
1.26385 -4.27833 0.25183
1.2639 -4.27825 0.252015
1.26399 -4.27812 0.252281
1.26411 -4.27794 0.25257
1.26426 -4.27773 0.252833
1.26441 -4.27752 0.253035
1.26454 -4.27734 0.253165
1.26461 -4.27722 0.253232
1.26463 -4.27719 0.253238
1.26459 -4.27724 0.253198
1.26451 -4.27737 0.253112
1.26439 -4.27754 0.252978
1.26428 -4.27773 0.252785
1.2642 -4.27789 0.252528
1.26415 -4.27799 0.252229
1.26417 -4.27801 0.251923
1.26424 -4.27794 0.251639
1.26435 -4.27781 0.251401
1.26449 -4.27763 0.251226
1.26462 -4.27745 0.251129
1.26473 -4.27729 0.251115
1.26479 -4.27719 0.251181
1.26481 -4.27714 0.251301
1.26477 -4.27715 0.251436
1.26471 -4.2772 0.251568
1.26464 -4.27727 0.251686
1.26456 -4.27733 0.251808
1.26451 -4.27739 0.251932
1.26447 -4.27742 0.25205
1.26445 -4.27743 0.252158
1.26443 -4.27745 0.25226
1.26441 -4.27748 0.252366
1.26439 -4.27753 0.252477
1.26436 -4.27758 0.252577
1.26433 -4.27761 0.252642
1.26431 -4.27763 0.252652
1.26432 -4.2776 0.252592
1.26435 -4.27751 0.252479
1.26442 -4.27738 0.252337
1.26451 -4.27723 0.252201
1.26461 -4.27708 0.252112
1.2647 -4.27698 0.252088
1.26476 -4.27693 0.252149
1.2648 -4.27694 0.252279
1.26481 -4.27701 0.252437
1.2648 -4.27712 0.252559
1.26478 -4.27723 0.252616
1.26476 -4.27734 0.252593
1.26474 -4.27741 0.252513
1.26472 -4.27746 0.252411
1.2647 -4.2775 0.252314
1.26467 -4.27752 0.252253
1.26463 -4.27756 0.252224
1.26459 -4.2776 0.25221
1.26454 -4.27766 0.252188
1.26449 -4.27771 0.252124
1.26445 -4.27775 0.252025
1.26445 -4.27775 0.251916
1.26447 -4.27772 0.25184
1.2645 -4.27767 0.251823
1.26453 -4.27763 0.251874
1.26455 -4.27759 0.251982
1.26455 -4.27758 0.252133
1.26454 -4.27759 0.252299
1.26453 -4.2776 0.252427
1.26454 -4.27759 0.252483
1.26458 -4.27756 0.252446
1.27505 -4.26768 0.262707
1.27476 -4.26788 0.262551
1.27455 -4.268 0.262395
1.27442 -4.26802 0.262238
1.27437 -4.26797 0.262071
1.27438 -4.26785 0.261895
1.27446 -4.26768 0.261722
1.27457 -4.26748 0.261583
1.27469 -4.26731 0.261526
1.27479 -4.26719 0.261575
1.27484 -4.26715 0.261725
1.27483 -4.26719 0.261937
1.27477 -4.26731 0.262159
1.27467 -4.26747 0.262328
1.27456 -4.26764 0.262403
1.27445 -4.2678 0.262359
1.27436 -4.26792 0.262201
1.2743 -4.26799 0.26196
1.27428 -4.26802 0.261678
1.27429 -4.268 0.261407
1.27432 -4.26794 0.26118
1.27436 -4.26787 0.261024
1.27441 -4.2678 0.260953
1.27444 -4.26776 0.260973
1.27445 -4.26774 0.261069
1.27445 -4.26777 0.261218
1.27442 -4.26783 0.261396
1.27438 -4.26791 0.261581
1.27433 -4.268 0.261758
1.27429 -4.26808 0.261925
1.27426 -4.26814 0.262091
1.27425 -4.26817 0.262263
1.27425 -4.26818 0.262443
1.27426 -4.26815 0.262614
1.27429 -4.26809 0.262738
1.27434 -4.26801 0.262764
1.27439 -4.26791 0.262648
1.27444 -4.26781 0.262382
1.27448 -4.26773 0.261986
1.2745 -4.26768 0.261509
1.27448 -4.26767 0.261012
1.27443 -4.2677 0.260557
1.27435 -4.26777 0.260209
1.27424 -4.26786 0.26
1.27413 -4.26795 0.259949
1.27403 -4.26803 0.26006
1.27396 -4.26809 0.26033
1.27392 -4.26812 0.260731
1.27391 -4.26813 0.261202
1.27394 -4.26811 0.261668
1.274 -4.26807 0.262053
1.27408 -4.268 0.262322
1.27416 -4.26793 0.262471
1.27425 -4.26785 0.262507
1.27433 -4.26776 0.26246
1.2744 -4.26768 0.26236
1.27447 -4.26761 0.262246
1.27454 -4.26753 0.262127
1.27462 -4.26745 0.262026
1.2747 -4.26737 0.261947
1.27478 -4.26729 0.261888
1.27486 -4.26722 0.261853
1.27491 -4.26718 0.261839
1.27492 -4.26719 0.261853
1.27489 -4.26725 0.261898
1.27481 -4.26737 0.26197
1.2747 -4.26751 0.262067
1.27456 -4.26766 0.262185
1.27444 -4.26778 0.262306
1.27434 -4.26785 0.262427
1.27427 -4.26787 0.262546
1.27423 -4.26784 0.262654
1.27421 -4.26778 0.262759
1.27422 -4.26772 0.262875
1.27424 -4.26765 0.263018
1.27427 -4.26761 0.263184
1.27431 -4.26756 0.263351
1.27436 -4.26752 0.26349
1.27442 -4.26747 0.263548
1.27449 -4.26741 0.263484
1.27455 -4.26734 0.263281
1.27459 -4.26727 0.262958
1.27461 -4.26722 0.262557
1.2746 -4.2672 0.262136
1.27457 -4.26721 0.261751
1.26462 -4.27752 0.251454
1.26465 -4.2775 0.251388
1.26467 -4.27749 0.251399
1.26469 -4.27749 0.251526
1.26469 -4.27752 0.251771
1.26468 -4.27756 0.252103
1.26465 -4.27764 0.252468
1.2646 -4.27772 0.252803
1.26453 -4.27781 0.253056
1.26447 -4.27789 0.253214
1.26441 -4.27794 0.253295
1.26438 -4.27796 0.253329
1.26437 -4.27794 0.253366
1.26437 -4.2779 0.253429
1.2644 -4.27785 0.253512
1.26443 -4.27777 0.253585
1.26449 -4.27767 0.253613
1.26456 -4.27756 0.253562
1.26463 -4.27745 0.253426
1.2647 -4.27735 0.253219
1.26475 -4.27728 0.252963
1.26479 -4.27723 0.252677
1.26482 -4.2772 0.252376
1.26484 -4.27719 0.252092
1.26486 -4.27719 0.251864
1.26489 -4.27718 0.251723
1.26492 -4.27716 0.251703
1.26497 -4.2771 0.251816
1.26503 -4.277 0.252039
1.26509 -4.27689 0.252338
1.26514 -4.27678 0.252646
1.26514 -4.2767 0.252908
1.26511 -4.2767 0.253077
1.26503 -4.27676 0.253148
1.26492 -4.2769 0.253138
1.2648 -4.27709 0.25308
1.26468 -4.27729 0.252998
1.26459 -4.27748 0.25291
1.26452 -4.27763 0.252809
1.2645 -4.27773 0.252692
1.2645 -4.27778 0.25257
1.26452 -4.27777 0.25245
1.26455 -4.27774 0.25235
1.26459 -4.27768 0.252281
1.26463 -4.27762 0.252246
1.26467 -4.27756 0.252234
1.2647 -4.27752 0.252237
1.2647 -4.27749 0.252242
1.26469 -4.27749 0.252238
1.26467 -4.2775 0.252222
1.26464 -4.27751 0.252201
1.26461 -4.27753 0.252184
1.2646 -4.27752 0.252169
1.26461 -4.27748 0.252172
1.26463 -4.27744 0.252193
1.26467 -4.27739 0.252235
1.2647 -4.27736 0.252294
1.2647 -4.2774 0.252358
1.26467 -4.27749 0.252404
1.2646 -4.27764 0.252403
1.2645 -4.27783 0.25233
1.26439 -4.27802 0.252172
1.26431 -4.27818 0.251944
1.26426 -4.27827 0.251696
1.26426 -4.27828 0.251496
1.26431 -4.27821 0.251394
1.2644 -4.27808 0.251404
1.26453 -4.2779 0.251514
1.26467 -4.2777 0.251692
1.2648 -4.27751 0.251908
1.26491 -4.27734 0.252156
1.26497 -4.27723 0.252424
1.26499 -4.27719 0.252696
1.26495 -4.27721 0.252956
1.26488 -4.27729 0.253168
1.26479 -4.27739 0.253307
1.26472 -4.27747 0.253347
1.26467 -4.27753 0.253285
1.26465 -4.27756 0.253139
1.26466 -4.27756 0.252939
1.26468 -4.27755 0.252722
1.2647 -4.27755 0.252508
1.2647 -4.27757 0.252331
1.26466 -4.27762 0.252218
1.26461 -4.27769 0.252181
1.26453 -4.27777 0.252228
1.26445 -4.27786 0.252353
1.26436 -4.27794 0.252535
1.2643 -4.27801 0.252733
1.26426 -4.27806 0.252905
1.26425 -4.27808 0.252995
1.26428 -4.27807 0.252964
1.26433 -4.27802 0.252799
1.26441 -4.27793 0.252526
1.26449 -4.27783 0.252192
1.26455 -4.27774 0.251865
1.26457 -4.27767 0.251596
1.26455 -4.27765 0.251421
1.26449 -4.27769 0.251367
1.26439 -4.27778 0.251419
1.26425 -4.27792 0.251537
1.26411 -4.27808 0.251668
1.26398 -4.27825 0.251773
1.26389 -4.27839 0.251851
1.26385 -4.27847 0.251921
1.26386 -4.27848 0.252003
1.26393 -4.27842 0.252123
1.26404 -4.27829 0.252279
1.26419 -4.27812 0.252459
1.26436 -4.27791 0.252642
1.26452 -4.27769 0.252798
1.26466 -4.27751 0.252901
1.26476 -4.27737 0.252937
1.26481 -4.27731 0.252924
1.26481 -4.27733 0.252884
1.26475 -4.27742 0.252853
1.26467 -4.27754 0.252857
1.26459 -4.27768 0.252916
1.26451 -4.2778 0.253039
1.26446 -4.27789 0.253204
1.26444 -4.27792 0.253374
1.26445 -4.2779 0.253494
1.2645 -4.27781 0.253528
1.26456 -4.27769 0.253449
1.26462 -4.27756 0.25325
1.26467 -4.27746 0.252968
1.26469 -4.27741 0.25264
1.26468 -4.27742 0.252307
1.26466 -4.27747 0.252008
1.26464 -4.27756 0.251762
1.26462 -4.27764 0.251608
1.26462 -4.2777 0.251563
1.26463 -4.27772 0.251624
1.26466 -4.27769 0.251768
1.2647 -4.27763 0.251948
1.26474 -4.27757 0.252104
1.26477 -4.2775 0.252173
1.26477 -4.27746 0.252126
1.26475 -4.27746 0.251993
1.26471 -4.2775 0.251833
1.26467 -4.27756 0.25174
1.26463 -4.27764 0.251776
1.26459 -4.27771 0.251959
1.26457 -4.27775 0.252253
1.26457 -4.27774 0.252594
1.26459 -4.2777 0.252916
1.26462 -4.27762 0.253177
1.26465 -4.27756 0.253348
1.26466 -4.27752 0.253411
1.26464 -4.27753 0.253357
1.26458 -4.2776 0.253192
1.26449 -4.27771 0.252924
1.26437 -4.27787 0.252591
1.26422 -4.27805 0.252221
1.26407 -4.27823 0.251858
1.26395 -4.27837 0.251543
1.26389 -4.27843 0.251314
1.26389 -4.27841 0.251202
1.26396 -4.27831 0.251213
1.26409 -4.27816 0.251332
1.26423 -4.278 0.251532
1.26437 -4.27786 0.251768
1.26449 -4.27777 0.251991
1.26455 -4.27775 0.252173
1.26458 -4.27779 0.252296
1.26456 -4.27787 0.252368
1.26453 -4.27795 0.252397
1.26451 -4.27799 0.252394
1.26452 -4.27796 0.252359
1.26459 -4.27784 0.252297
1.26473 -4.27761 0.252192
1.26491 -4.27733 0.25204
1.26512 -4.27704 0.251836
1.26531 -4.2768 0.251591
1.26547 -4.27666 0.251335
1.26558 -4.27665 0.251124
1.26563 -4.27675 0.251007
1.26564 -4.27692 0.251038
1.26561 -4.27712 0.251242
1.26554 -4.27732 0.251611
1.2654 -4.2775 0.252081
1.26517 -4.27764 0.252544
1.26484 -4.27774 0.252911
1.26443 -4.27778 0.253119
1.26398 -4.27773 0.253154
1.26357 -4.27754 0.253058
1.26335 -4.27718 0.252892
1.26343 -4.2766 0.252736
1.26394 -4.27584 0.252655
1.26493 -4.27496 0.252674
1.26638 -4.2741 0.252767
1.26815 -4.27343 0.25285
1.26998 -4.27316 0.252804
1.27147 -4.27342 0.252503
1.2722 -4.27424 0.251867
1.27177 -4.27545 0.250931
1.26988 -4.27663 0.249919
1.26647 -4.27712 0.24929
1.26172 -4.2761 0.24976
1.25609 -4.27274 0.252241
1.25021 -4.26637 0.257761
1.24477 -4.2567 0.267371
1.24037 -4.24394 0.282019
1.23735 -4.2288 0.302494
1.23571 -4.21233 0.329414
1.23515 -4.19554 0.36333
1.23523 -4.17917 0.404703
1.23543 -4.16371 0.453874
1.23527 -4.14966 0.511038
1.23446 -4.13773 0.576274
1.23287 -4.12904 0.649629
1.2306 -4.12533 0.731145
1.22784 -4.1289 0.820899
1.22481 -4.14239 0.91902
1.22171 -4.16838 1.02571
1.2187 -4.209 1.14124
1.21594 -4.26556 1.26583
1.21366 -4.33852 1.39954
1.21215 -4.42756 1.54211
1.21179 -4.53177 1.69294
1.21299 -4.64998 1.85103
1.2161 -4.78086 2.01496
1.22141 -4.92316 2.18303
1.22918 -5.0758 2.35339
1.23968 -5.23786 2.52423
1.25317 -5.40853 2.69396
1.26993 -5.5871 2.86123
1.29014 -5.77287 3.02489
1.31381 -5.96524 3.18399
1.3408 -6.16361 3.33777
1.37078 -6.3674 3.48566
1.40336 -6.57602 3.62726
1.43811 -6.78885 3.76236
1.47462 -7.00527 3.89096
1.51259 -7.22463 4.01329
1.55179 -7.4463 4.12968
1.59209 -7.66974 4.24054
1.63338 -7.89453 4.34611
1.6756 -8.12037 4.44647
1.71877 -8.34699 4.54156
1.76297 -8.57407 4.6312
1.80834 -8.80122 4.71521
1.85506 -9.0279 4.79348
1.90327 -9.25358 4.86602
1.95304 -9.47777 4.93289
2.00431 -9.70017 4.99413
2.0569 -9.92068 5.04968
2.11062 -10.1393 5.09937
2.16528 -10.3562 5.1431
2.22069 -10.5714 5.18083
2.27668 -10.785 5.21259
2.3331 -10.9973 5.23855
2.3899 -11.2081 5.25913
2.44709 -11.4173 5.27499
2.50478 -11.6248 5.28709
2.56308 -11.8302 5.29674
2.62214 -12.0332 5.30552
2.68201 -12.2337 5.31515
2.74272 -12.4315 5.32728
2.80425 -12.6265 5.34337
2.86654 -12.8187 5.36462
2.92954 -13.0083 5.39194
2.99328 -13.195 5.42601
3.05793 -13.3786 5.46728
3.12376 -13.5587 5.51596
3.19103 -13.7351 5.572
3.25994 -13.9078 5.63501
3.33044 -14.0773 5.70404
3.40225 -14.2442 5.77772
3.47495 -14.4095 5.85421
3.54803 -14.5741 5.93143
3.62109 -14.7382 6.00733
3.69392 -14.9019 6.08021
3.76665 -15.0645 6.14879
3.83973 -15.2244 6.21231
3.91379 -15.38 6.27041
3.98939 -15.5298 6.32298
4.06691 -15.673 6.36989
4.14631 -15.8097 6.41097
4.22721 -15.9408 6.44589
4.30897 -16.068 6.47421
4.39086 -16.1929 6.49547
4.4723 -16.3168 6.50939
4.55304 -16.4399 6.51601
4.63333 -16.5608 6.51585
4.71382 -16.6774 6.51006
4.79529 -16.7872 6.5003
4.87835 -16.8888 6.48853
4.96326 -16.9822 6.47664
5.04993 -17.0687 6.46635
5.13812 -17.1507 6.45898
5.22749 -17.2307 6.45543
5.31776 -17.3109 6.45615
5.40871 -17.3921 6.46122
5.50016 -17.474 6.47034
5.59202 -17.5553 6.483
5.68419 -17.6339 6.49841
5.77643 -17.7076 6.51584
5.86839 -17.7753 6.53467
5.95958 -17.8367 6.55458
6.04954 -17.8928 6.57578
6.13798 -17.9455 6.59885
6.2249 -17.997 6.62494
6.31079 -18.0496 6.65567
6.39641 -18.1047 6.69292
6.48277 -18.1634 6.73869
6.57082 -18.2258 6.79472
6.66124 -18.2919 6.86222
6.75438 -18.3611 6.94166
6.85021 -18.4332 7.03268
6.94847 -18.5077 7.13413
7.04871 -18.5843 7.24429
7.15035 -18.663 7.36097
7.25269 -18.744 7.48179
7.35495 -18.8276 7.6043
7.45638 -18.914 7.72629
7.55638 -19.0035 7.84594
7.65458 -19.096 7.96191
7.75091 -19.1912 8.07357
7.84556 -19.289 8.18093
7.93888 -19.389 8.28458
8.03129 -19.4911 8.38556
8.12326 -19.5948 8.48514
8.21527 -19.6997 8.58471
8.30785 -19.8049 8.68568
8.40153 -19.9098 8.78929
8.49671 -20.0137 8.89654
8.59362 -20.1166 9.00801
8.69219 -20.2187 9.12368
8.79203 -20.3206 9.24292
8.89259 -20.4228 9.36448
8.9932 -20.5259 9.48666
9.09326 -20.6303 9.60748
9.19232 -20.7361 9.7249
9.29018 -20.8429 9.83709
9.38696 -20.9499 9.94257
9.48308 -21.0556 10.0404
9.57904 -21.1584 10.1301
9.67513 -21.2567 10.2117
9.77115 -21.3493 10.2852
9.86618 -21.4361 10.3511
9.95875 -21.5178 10.4095
10.0472 -21.5954 10.4608
10.13 -21.6702 10.5052
10.2066 -21.743 10.5433
10.2773 -21.8144 10.5754
10.343 -21.8843 10.6024
10.4051 -21.9525 10.6249
10.4648 -22.0189 10.6433
10.523 -22.083 10.6583
10.5796 -22.1449 10.6705
10.6337 -22.2044 10.6803
10.6839 -22.2617 10.6883
10.7283 -22.317 10.6949
10.7649 -22.3705 10.7003
10.7922 -22.4225 10.7049
10.8097 -22.4735 10.7087
10.8172 -22.5239 10.712
10.8157 -22.5744 10.7148
10.8066 -22.6256 10.7173
10.7913 -22.678 10.7196
10.7716 -22.7316 10.7216
10.749 -22.786 10.7235
10.7253 -22.8391 10.7256
10.7021 -22.8882 10.7283
10.6812 -22.9292 10.7318
10.6639 -22.959 10.7362
10.651 -22.9753 10.7412
10.6425 -22.9779 10.7463
10.6379 -22.9684 10.7509
10.6366 -22.9496 10.755
10.6379 -22.9248 10.7584
10.6411 -22.897 10.7614
10.6462 -22.8689 10.7643
10.6529 -22.8421 10.7675
10.6612 -22.8174 10.7717
10.6715 -22.7946 10.777
10.684 -22.7719 10.7839
10.6992 -22.7466 10.7928
10.7177 -22.7155 10.8039
10.7401 -22.6752 10.8172
10.7664 -22.6235 10.8323
10.7965 -22.5592 10.8483
10.8299 -22.4824 10.8643
10.8662 -22.3941 10.8795
10.9049 -22.2955 10.8932
10.9457 -22.188 10.9053
10.9885 -22.0729 10.9159
11.0335 -21.9512 10.9255
11.0809 -21.824 10.9346
11.131 -21.6923 10.9438
11.1838 -21.5573 10.9535
11.2394 -21.4202 10.9641
11.2974 -21.2821 10.9757
11.3576 -21.1444 10.9884
11.4196 -21.0084 11.0018
11.4828 -20.8752 11.0156
11.5467 -20.7454 11.0296
11.6113 -20.6191 11.0436
11.6763 -20.4955 11.0577
11.742 -20.3731 11.0716
11.8088 -20.2498 11.0851
11.8771 -20.1233 11.0979
11.9475 -19.9911 11.1098
12.0204 -19.8514 11.1207
12.0959 -19.7029 11.1303
12.1742 -19.5452 11.1385
12.2548 -19.3784 11.1452
12.3377 -19.203 11.1505
12.4224 -19.0198 11.1542
12.5087 -18.83 11.1564
12.5962 -18.6345 11.157
12.6847 -18.4343 11.1562
12.7743 -18.23 11.1544
12.8649 -18.0222 11.1519
12.9568 -17.8111 11.1493
13.05 -17.5969 11.147
13.1447 -17.3799 11.1452
13.2407 -17.1604 11.144
13.338 -16.9385 11.1433
13.4365 -16.7146 11.1428
13.5359 -16.4886 11.1419
13.6361 -16.2609 11.1402
13.737 -16.0316 11.1371
13.8385 -15.8009 11.1326
13.9408 -15.569 11.1269
14.0439 -15.3363 11.1205
14.1482 -15.1032 11.114
14.2539 -14.8702 11.1078
14.3611 -14.638 11.1021
14.47 -14.407 11.0971
14.5804 -14.1779 11.0927
14.6919 -13.9513 11.0888
14.8036 -13.7278 11.0855
14.9142 -13.5081 11.0828
15.0222 -13.2923 11.0808
15.1261 -13.0806 11.08
15.2245 -12.8728 11.0803
15.3162 -12.6691 11.082
15.4002 -12.4692 11.0851
15.4762 -12.2734 11.0897
15.5436 -12.0814 11.0958
15.6025 -11.8932 11.1033
15.6528 -11.7085 11.1121
15.6944 -11.5272 11.1219
15.7271 -11.3491 11.1323
15.7506 -11.1741 11.1429
15.765 -11.0019 11.1536
15.771 -10.8321 11.1642
15.7697 -10.6644 11.1746
15.7629 -10.4983 11.185
15.7526 -10.3334 11.1956
15.7407 -10.1693 11.2066
15.7289 -10.0058 11.2183
15.7186 -9.84269 11.2307
15.7105 -9.68003 11.2441
15.7045 -9.51783 11.2584
15.7002 -9.35611 11.2734
15.6966 -9.19507 11.2889
15.6924 -9.03488 11.3044
15.6862 -8.87578 11.3195
15.677 -8.7179 11.3337
15.6642 -8.56121 11.3471
15.648 -8.4055 11.3596
15.6293 -8.25042 11.3715
15.609 -8.09567 11.3832
15.5886 -7.94108 11.3952
15.5692 -7.78665 11.4082
15.5517 -7.63268 11.4226
15.5363 -7.47956 11.4387
15.5233 -7.32759 11.4567
15.5124 -7.17667 11.4765
15.5037 -7.02609 11.4976
15.497 -6.87437 11.5198
15.4925 -6.71936 11.5427
15.4908 -6.55851 11.5657
15.4921 -6.38923 11.5885
15.497 -6.20947 11.6106
15.5057 -6.01809 11.6318
15.5184 -5.81514 11.6517
15.5348 -5.60188 11.6704
15.5547 -5.38056 11.6881
15.5778 -5.15394 11.7052
15.6037 -4.92495 11.7218
15.6321 -4.69627 11.7383
15.6628 -4.47005 11.7548
15.6957 -4.24773 11.7713
15.7306 -4.0298 11.788
15.7673 -3.81575 11.8047
15.8056 -3.60415 11.8212
15.8454 -3.39289 11.8375
15.8865 -3.17966 11.8531
15.9285 -2.96247 11.868
15.971 -2.74005 11.8821
16.0137 -2.51212 11.8952
16.056 -2.27931 11.9075
16.0977 -2.04298 11.919
16.1389 -1.8049 11.9302
16.1794 -1.56701 11.9414
16.2197 -1.33119 11.9532
16.2599 -1.0991 11.9659
16.3003 -0.872141 11.9798
16.3411 -0.651531 11.9948
16.3824 -0.438197 12.0105
16.4239 -0.232817 12.0266
16.4653 -0.0357086 12.0425
16.5063 0.153046 12.0576
16.5462 0.333545 12.0716
16.5844 0.506002 12.0842
16.6203 0.670827 12.0951
16.6535 0.828748 12.1044
16.6841 0.980855 12.1123
16.7124 1.12852 12.1188
16.7389 1.27316 12.1242
16.7637 1.41594 12.1281
16.787 1.5576 12.1305
16.8085 1.69829 12.1312
16.8278 1.83768 12.1299
16.844 1.97521 12.1267
16.8567 2.11051 12.1219
16.8654 2.24407 12.116
16.87 2.3777 12.1096
16.8706 2.51481 12.1034
16.8674 2.66003 12.0979
16.8607 2.81837 12.0934
16.8504 2.99418 12.0898
16.8363 3.19021 12.0867
16.8177 3.40736 12.0837
16.794 3.64474 12.0801
16.7645 3.90016 12.0757
16.7288 4.1708 12.0705
16.6866 4.45377 12.0645
16.638 4.74655 12.0581
16.5832 5.0473 12.0512
16.5227 5.35492 12.0443
16.4569 5.6689 12.0375
16.3866 5.98913 12.0309
16.3124 6.31552 12.0246
16.2349 6.64786 12.0183
16.1549 6.98582 12.0118
16.0733 7.32894 12.0048
15.9911 7.67669 11.9971
15.909 8.02868 11.9885
15.8282 8.38456 11.979
15.7496 8.74423 11.9688
15.6741 9.10763 11.9581
15.6027 9.47473 11.9473
15.5362 9.84543 11.9366
15.4752 10.2194 11.9265
15.4202 10.596 11.917
15.3716 10.9742 11.9082
15.3295 11.3528 11.9001
15.2941 11.7304 11.8926
15.2654 12.1055 11.8856
15.2432 12.4772 11.8792
15.2277 12.8447 11.8735
15.2188 13.2078 11.8685
15.2163 13.5662 11.8644
15.2202 13.9197 11.8609
15.2304 14.2684 11.8579
15.2466 14.6119 11.8551
15.2687 14.9501 11.8526
15.2963 15.2827 11.8505
15.3294 15.6097 11.8487
15.3677 15.9307 11.8474
15.411 16.2458 11.8465
15.4591 16.5552 11.846
15.5117 16.8589 11.8456
15.5685 17.1574 11.8453
15.6292 17.4509 11.8447
15.6934 17.7397 11.8438
15.7606 18.024 11.8425
15.8306 18.304 11.8408
15.9028 18.5797 11.8388
15.977 18.8513 11.8366
16.053 19.1191 11.8342
16.1304 19.3832 11.8319
16.2091 19.6442 11.8296
16.2886 19.9022 11.8276
16.3688 20.1578 11.826
16.4491 20.4111 11.8251
16.529 20.6624 11.8252
16.608 20.9114 11.8264
16.6856 21.1578 11.8291
16.7614 21.4011 11.8333
16.835 21.6409 11.8389
16.9062 21.8766 11.8457
16.9744 22.1081 11.8534
17.0394 22.335 11.8616
17.1006 22.5573 11.8699
17.1577 22.775 11.878
17.21 22.988 11.8857
17.257 23.1963 11.893
17.2985 23.3998 11.8998
17.3342 23.5984 11.906
17.3641 23.7918 11.9113
17.3881 23.9798 11.915
17.4065 24.1622 11.9163
17.4195 24.3387 11.914
17.4277 24.5088 11.9069
17.4314 24.6722 11.8938
17.4311 24.8283 11.8735
17.4269 24.9771 11.845
17.4188 25.1184 11.8071
17.4069 25.2525 11.759
17.3907 25.3795 11.7006
17.3701 25.4999 11.6321
17.3448 25.614 11.5546
17.3147 25.7221 11.4696
17.2801 25.8245 11.3792
17.2412 25.9211 11.2856
17.1988 26.0122 11.191
17.1535 26.0976 11.0976
17.1057 26.1772 11.0072
17.0557 26.251 10.9211
17.0033 26.3188 10.8405
16.9481 26.3805 10.7657
16.8898 26.436 10.697
16.828 26.4853 10.634
16.7626 26.5286 10.5764
16.6937 26.5659 10.5235
16.6216 26.5976 10.4749
16.5468 26.6241 10.4303
16.4696 26.6457 10.3891
16.3903 26.6629 10.3512
16.3091 26.676 10.3161
16.2259 26.6855 10.2839
16.1407 26.6917 10.2542
16.0533 26.695 10.227
15.9633 26.6956 10.2022
15.8706 26.6941 10.1798
15.7749 26.691 10.1598
15.6761 26.6867 10.1425
15.5739 26.6817 10.128
15.4686 26.6765 10.1165
15.3604 26.6714 10.1084
15.2496 26.6665 10.1036
15.1365 26.6617 10.1017
15.0213 26.657 10.1023
14.9038 26.6522 10.1047
14.7839 26.6469 10.108
14.6611 26.6407 10.1113
14.5348 26.6332 10.1138
14.4049 26.6239 10.115
14.2713 26.6122 10.1148
14.1341 26.5979 10.1134
13.9936 26.5805 10.1111
13.8499 26.5598 10.1086
13.703 26.5355 10.1064
13.5525 26.5072 10.1049
13.398 26.4741 10.1046
13.2391 26.4354 10.1058
13.0756 26.3898 10.1086
12.9079 26.3363 10.113
12.7371 26.2742 10.119
12.5646 26.2034 10.126
12.3923 26.1244 10.1336
12.2219 26.0387 10.1412
12.0546 25.9479 10.1481
11.8912 25.854 10.1539
11.7319 25.7579 10.1582
11.5767 25.6593 10.161
11.4256 25.5561 10.1625
11.2796 25.4444 10.1629
11.1403 25.3197 10.1622
11.0101 25.1779 10.1602
10.8909 25.0167 10.1566
10.784 24.8358 10.1512
10.6892 24.6372 10.1439
10.6051 24.4245 10.1349
10.5296 24.2016 10.1244
10.4605 23.9724 10.1125
10.3956 23.7398 10.0997
10.3335 23.5055 10.0863
10.2733 23.2699 10.0729
10.2145 23.0328 10.06
10.1574 22.7932 10.0478
10.1025 22.5498 10.0366
10.0503 22.3014 10.0267
10.0017 22.0469 10.0181
9.95744 21.7853 10.0107
9.91795 21.5165 10.0047
9.88358 21.2411 9.99988
9.85433 20.9602 9.99616
9.83003 20.6756 9.99327
9.81037 20.3893 9.9909
9.79507 20.1025 9.98876
9.78389 19.8161 9.98657
9.77667 19.5307 9.98396
9.77335 19.2464 9.98054
9.77388 18.9633 9.9759
9.77816 18.6816 9.96975
9.78605 18.4018 9.96192
9.79726 18.1242 9.95243
9.81138 17.8496 9.94144
9.82779 17.5785 9.92922
9.84572 17.3115 9.91606
9.86424 17.0491 9.90228
9.88232 16.7914 9.88818
9.89886 16.5385 9.8741
9.91286 16.2904 9.86047
9.92348 16.0467 9.84795
9.93025 15.8071 9.83737
9.93309 15.5715 9.82955
9.93237 15.3396 9.82524
9.9289 15.1111 9.82486
9.92379 14.8861 9.82838
9.91836 14.6646 9.83532
9.914 14.4465 9.84479
9.91204 14.2317 9.85576
9.91367 14.0193 9.86724
9.91982 13.8078 9.87844
9.93111 13.595 9.88885
9.94785 13.3783 9.89816
9.9701 13.155 9.90624
9.99768 12.9231 9.91302
10.0303 12.6816 9.91848
10.0674 12.4305 9.92245
10.1085 12.1707 9.92473
10.153 11.9038 9.92508
10.2001 11.6312 9.92335
10.249 11.3541 9.91952
10.2989 11.0732 9.91384
10.3491 10.7887 9.90674
10.3989 10.5008 9.89881
10.4477 10.2096 9.89069
10.4954 9.91539 9.88296
10.5416 9.61897 9.87622
10.5866 9.32138 9.8709
10.6304 9.02386 9.86725
10.6734 8.7277 9.86532
10.7158 8.43402 9.86493
10.7579 8.14363 9.86575
10.7997 7.85693 9.86731
10.8413 7.57388 9.86919
10.8824 7.29409 9.87101
10.9231 7.01708 9.87251
10.963 6.7424 9.87353
11.0021 6.46971 9.87409
11.0403 6.19888 9.87421
11.0777 5.92992 9.87392
11.1148 5.66299 9.87324
11.1517 5.39821 9.87216
11.1886 5.13559 9.87074
11.2258 4.87497 9.86909
11.2629 4.61598 9.86732
11.2995 4.35809 9.86563
11.335 4.1007 9.86412
11.3683 3.84319 9.86288
11.3989 3.58504 9.86185
11.4258 3.32579 9.86095
11.4485 3.06516 9.85995
11.4664 2.80294 9.85869
11.4791 2.53906 9.85691
11.4864 2.27358 9.85445
11.488 2.00657 9.85122
11.484 1.73827 9.84726
11.4743 1.46888 9.84269
11.4591 1.19865 9.83768
11.4386 0.927839 9.83243
11.413 0.656638 9.82716
11.3827 0.385131 9.82208
11.3478 0.11332 9.81739
11.3087 -0.158837 9.8132
11.2657 -0.431397 9.80955
11.219 -0.704411 9.80645
11.1692 -0.977908 9.80389
11.1165 -1.25187 9.80178
11.0616 -1.5262 9.80001
11.005 -1.8007 9.7984
10.9474 -2.07511 9.79674
10.8893 -2.34914 9.79483
10.8313 -2.62252 9.79255
10.7736 -2.89508 9.78976
10.7167 -3.16679 9.78641
10.6605 -3.43777 9.7826
10.6052 -3.70824 9.77858
10.5508 -3.97852 9.7748
10.4972 -4.24889 9.77204
10.4444 -4.51961 9.77128
10.3921 -4.79077 9.77367
10.3403 -5.06233 9.78049
10.2886 -5.33413 9.79303
10.2369 -5.6059 9.81262
10.1849 -5.87739 9.84052
10.1324 -6.14836 9.87798
10.0794 -6.41867 9.92606
10.026 -6.6883 9.98553
9.97202 -6.95736 10.0569
9.9176 -7.22606 10.1402
9.86264 -7.49465 10.2352
9.807 -7.76336 10.3414
9.75059 -8.03232 10.458
9.69341 -8.30153 10.5843
9.63559 -8.57089 10.7191
9.57743 -8.84026 10.8609
9.51935 -9.10956 11.008
9.46185 -9.37885 11.1585
9.40549 -9.64829 11.3105
9.35083 -9.91818 11.4618
9.29844 -10.1888 11.6104
9.24883 -10.4605 11.7545
9.20236 -10.7335 11.8927
9.15923 -11.008 12.0237
9.11952 -11.2843 12.1471
9.08323 -11.5627 12.2623
9.05032 -11.8434 12.3693
9.02086 -12.1268 12.4681
8.99492 -12.4133 12.5587
8.9726 -12.7029 12.6414
8.95401 -12.9957 12.7164
8.93918 -13.2917 12.7842
8.92801 -13.5905 12.8453
8.92023 -13.8919 12.9004
8.91533 -14.1955 12.9499
8.91258 -14.5011 12.9945
8.91103 -14.8085 13.0345
8.90975 -15.1176 13.0702
8.90786 -15.4287 13.1017
8.90476 -15.7418 13.1291
8.90011 -16.057 13.1526
8.89389 -16.3746 13.1721
8.8863 -16.6945 13.1881
8.87764 -17.0168 13.2007
8.86828 -17.3417 13.2105
8.85852 -17.6691 13.2182
8.84871 -17.999 13.2244
8.83919 -18.3312 13.2297
8.83027 -18.6654 13.2343
8.82218 -19.0011 13.2378
8.81505 -19.3383 13.2395
8.809 -19.6769 13.2382
8.80447 -20.0178 13.2331
8.80246 -20.3617 13.2239
8.80457 -20.7091 13.2112
8.81275 -21.0599 13.1964
8.82889 -21.4128 13.1816
8.85435 -21.7658 13.1687
8.8898 -22.1164 13.1594
8.93516 -22.4621 13.1543
8.98994 -22.8008 13.153
9.0536 -23.1306 13.1542
9.12574 -23.4503 13.1563
9.20621 -23.7583 13.1579
9.29486 -24.0535 13.1579
9.39145 -24.3345 13.1558
9.49546 -24.6 13.1514
9.60611 -24.849 13.1448
9.72243 -25.0812 13.1365
9.8433 -25.2964 13.1266
9.96764 -25.4952 13.1154
10.0944 -25.6788 13.1032
10.2229 -25.8483 13.0897
10.3524 -26.0052 13.075
10.4828 -26.1508 13.0589
10.614 -26.286 13.0415
10.7461 -26.4113 13.0229
10.8793 -26.527 13.0034
11.0139 -26.633 12.9834
11.1503 -26.729 12.9633
11.2885 -26.8152 12.9434
11.4285 -26.8918 12.9239
11.5702 -26.9592 12.9051
11.7134 -27.0181 12.8868
11.8576 -27.0689 12.8691
12.0026 -27.1124 12.8519
12.1481 -27.1486 12.8351
12.2944 -27.1777 12.8188
12.4415 -27.1996 12.803
12.5898 -27.2141 12.7879
12.7395 -27.2212 12.7732
12.8906 -27.2206 12.7589
13.0431 -27.2124 12.7446
13.1967 -27.1966 12.7302
13.3512 -27.1732 12.7157
13.5064 -27.1422 12.7014
13.662 -27.1039 12.6877
13.818 -27.0585 12.6753
13.9744 -27.0065 12.6646
14.1315 -26.9482 12.6561
14.2897 -26.8841 12.6496
14.4495 -26.8149 12.6449
14.6112 -26.7414 12.6413
14.7752 -26.6646 12.6382
14.9418 -26.5854 12.6346
15.1111 -26.5041 12.6302
15.2832 -26.4201 12.6245
15.4575 -26.3313 12.6176
15.6333 -26.2342 12.6097
15.8095 -26.1244 12.601
15.9847 -25.9973 12.5917
16.1575 -25.8493 12.5817
16.327 -25.6788 12.5711
16.4928 -25.4865 12.5599
16.6552 -25.275 12.5486
16.8148 -25.0482 12.5379
16.973 -24.8101 12.5286
17.1309 -24.5645 12.5215
17.2899 -24.3139 12.5172
17.4509 -24.0597 12.5156
17.6145 -23.8026 12.5162
17.7809 -23.5424 12.5183
17.9501 -23.279 12.5207
18.1219 -23.0118 12.523
18.2959 -22.7407 12.5245
18.4717 -22.4655 12.525
18.6488 -22.1864 12.5247
18.8268 -21.9039 12.5233
19.0054 -21.6185 12.521
19.1845 -21.3313 12.5179
19.3641 -21.0433 12.5142
19.5446 -20.7557 12.5105
19.7264 -20.4697 12.5073
19.91 -20.1861 12.5052
20.0958 -19.9058 12.5049
20.2841 -19.6292 12.5066
20.4747 -19.3565 12.5105
20.6677 -19.0876 12.5165
20.8626 -18.8224 12.5245
21.0593 -18.5607 12.5342
21.2575 -18.3025 12.5451
21.4571 -18.0479 12.5569
21.6579 -17.7972 12.5694
21.8593 -17.5503 12.5823
22.0602 -17.3064 12.5961
22.2587 -17.0636 12.6112
22.4524 -16.8195 12.6282
22.6387 -16.5713 12.6473
22.8149 -16.3172 12.6685
22.9791 -16.0563 12.6909
23.1304 -15.7891 12.7138
23.2685 -15.5167 12.7365
23.3937 -15.2404 12.7588
23.5065 -14.9613 12.781
23.6072 -14.6801 12.8034
23.696 -14.397 12.8265
23.773 -14.1122 12.8506
23.8382 -13.8258 12.8758
23.8917 -13.5381 12.9016
23.9337 -13.2497 12.9272
23.9647 -12.9612 12.9512
23.9852 -12.6732 12.9722
23.9961 -12.3864 12.9887
23.9982 -12.1012 12.9998
23.9925 -11.8181 13.0053
23.9802 -11.537 13.0059
23.9623 -11.2579 13.0033
23.9398 -10.9802 12.9994
23.9138 -10.7036 12.9961
23.8857 -10.4286 12.9949
23.8573 -10.1565 12.9963
23.8307 -9.88982 13.0003
23.8086 -9.63214 13.0064
23.7932 -9.38726 13.0134
23.7865 -9.15841 13.0201
23.7895 -8.9476 13.0259
23.8024 -8.75489 13.0304
23.8246 -8.57865 13.034
23.855 -8.41566 13.0374
23.8915 -8.26208 13.0414
23.9321 -8.11412 13.0465
23.9744 -7.96903 13.053
24.0158 -7.82573 13.0604
24.0535 -7.68506 13.0684
24.0849 -7.54965 13.0761
24.1076 -7.42312 13.0826
24.1193 -7.3092 13.0873
24.1185 -7.21076 13.0894
24.1045 -7.12921 13.0889
24.0771 -7.06423 13.086
24.0374 -7.01387 13.0812
23.9868 -6.97516 13.0753
23.9276 -6.94464 13.0689
23.8622 -6.91895 13.0623
23.793 -6.89524 13.056
23.7221 -6.87131 13.0501
23.6512 -6.84567 13.0447
23.5814 -6.81747 13.0398
23.5132 -6.78636 13.0352
23.4469 -6.75241 13.0307
23.3823 -6.71617 13.0261
23.3186 -6.67865 13.0209
23.2551 -6.64127 13.0147
23.1905 -6.60571 13.0074
23.1238 -6.57351 12.9987
23.0535 -6.54579 12.9886
22.9787 -6.5229 12.9773
22.8987 -6.5046 12.9649
22.8135 -6.49015 12.9516
22.7235 -6.47874 12.9374
22.6297 -6.46963 12.9225
22.5335 -6.46223 12.9069
22.4361 -6.45618 12.8905
22.3389 -6.45114 12.8732
22.2428 -6.44678 12.8549
22.1484 -6.44279 12.8357
22.0558 -6.4389 12.8155
21.9649 -6.43501 12.7947
21.8752 -6.43121 12.7739
21.7862 -6.42779 12.7539
21.6974 -6.42508 12.7357
21.6085 -6.42326 12.721
21.5194 -6.4223 12.7117
21.4302 -6.42179 12.7097
21.3411 -6.42112 12.7172
21.2524 -6.41957 12.7358
21.164 -6.41647 12.7665
21.076 -6.41139 12.8093
20.9881 -6.40415 12.8633
20.9 -6.39499 12.9267
20.8111 -6.38429 12.9971
20.7213 -6.37262 13.072
20.6303 -6.36043 13.1486
20.5378 -6.34804 13.2246
20.4438 -6.33558 13.2982
20.3482 -6.32292 13.3681
20.251 -6.30974 13.4335
20.1521 -6.29556 13.4941
20.0515 -6.27991 13.5503
19.9491 -6.26231 13.6025
19.8451 -6.24238 13.6517
19.7394 -6.21988 13.699
19.6323 -6.19467 13.7454
19.5242 -6.16675 13.7921
19.4152 -6.13628 13.8402
19.3059 -6.10356 13.8903
19.1964 -6.06902 13.9432
19.0871 -6.03312 13.9993
18.978 -5.99637 14.0588
18.8689 -5.95915 14.1216
18.7597 -5.92159 14.1871
18.65 -5.88371 14.2546
18.5393 -5.84538 14.323
18.4275 -5.80644 14.3913
18.3146 -5.7668 14.458
18.2009 -5.72645 14.5223
18.0869 -5.68541 14.5833
17.9729 -5.6437 14.6408
17.8597 -5.60123 14.6948
17.7476 -5.55773 14.7453
17.637 -5.51289 14.7926
17.528 -5.46628 14.837
17.4206 -5.41753 14.8786
17.3146 -5.3663 14.9177
17.2099 -5.31243 14.9542
17.1062 -5.2559 14.9884
17.0033 -5.19697 15.0206
16.9011 -5.13613 15.0508
16.7994 -5.07401 15.0792
16.6983 -5.01125 15.1058
16.5976 -4.94825 15.1305
16.4974 -4.88518 15.153
16.3976 -4.82187 15.1732
16.2979 -4.75796 15.1913
16.1983 -4.69295 15.2075
16.0989 -4.62636 15.2225
15.9998 -4.55779 15.2373
15.9015 -4.48702 15.2528
15.8044 -4.41417 15.27
15.7095 -4.33979 15.2894
15.6173 -4.26491 15.311
15.5282 -4.19075 15.3344
15.4421 -4.11812 15.3589
15.3584 -4.04659 15.3836
15.2759 -3.97387 15.4078
15.193 -3.89563 15.4311
15.1084 -3.80594 15.453
15.0207 -3.69852 15.4732
14.9289 -3.56794 15.491
14.8324 -3.41073 15.5058
14.7308 -3.22583 15.5172
14.6245 -3.01473 15.5249
14.5138 -2.78095 15.5292
14.3999 -2.52934 15.5304
14.2839 -2.26503 15.5294
14.1676 -1.99255 15.527
14.0526 -1.71518 15.524
13.9405 -1.43492 15.5213
13.8324 -1.15265 15.5195
13.7291 -0.868633 15.519
13.6309 -0.582932 15.5199
13.5376 -0.295715 15.5222
13.4492 -0.0074479 15.5256
13.3654 0.281151 15.5296
13.2858 0.569097 15.534
13.2102 0.855308 15.5383
13.1384 1.13867 15.5425
13.0699 1.41823 15.5466
13.0045 1.69329 15.5508
12.9419 1.96357 15.5553
12.8818 2.22923 15.56
12.8241 2.49093 15.5649
12.7691 2.74984 15.57
12.7168 3.00749 15.5752
12.6676 3.26542 15.5806
12.6218 3.52482 15.586
12.5793 3.78621 15.5914
12.5401 4.04941 15.5965
12.5039 4.31383 15.6008
12.4705 4.57876 15.6042
12.4396 4.84369 15.6064
12.411 5.10834 15.6074
12.3848 5.37278 15.6072
12.3606 5.63728 15.6059
12.3387 5.90222 15.6038
12.3187 6.16795 15.6008
12.3007 6.43469 15.5972
12.2846 6.7025 15.5927
12.2701 6.97122 15.5872
12.2574 7.24066 15.5808
12.2461 7.51054 15.5735
12.2362 7.78063 15.5653
12.2273 8.05069 15.5567
12.219 8.32053 15.5478
12.2108 8.59004 15.5391
12.2022 8.85905 15.5307
12.1927 9.12737 15.5228
12.1818 9.39465 15.5155
12.1693 9.66046 15.5088
12.155 9.92433 15.5025
12.1391 10.1859 15.4965
12.1217 10.4448 15.4907
12.1031 10.701 15.4849
12.0837 10.9545 15.4792
12.0635 11.2053 15.4735
12.0426 11.4535 15.4682
12.0211 11.6989 15.4634
11.9987 11.9413 15.4593
11.9755 12.1803 15.4562
11.9515 12.4155 15.4541
11.9271 12.6466 15.4528
11.9023 12.8734 15.4523
11.8776 13.096 15.4518
11.8531 13.3146 15.4511
11.829 13.5292 15.4496
11.8053 13.7404 15.4469
11.7819 13.9485 15.4428
11.7588 14.1539 15.4369
11.7357 14.3571 15.429
11.7122 14.5583 15.4193
11.6881 14.7577 15.408
11.6634 14.9547 15.3956
11.6383 15.1486 15.383
11.6135 15.3386 15.3711
11.5901 15.524 15.3608
11.5691 15.7045 15.3527
11.5511 15.8805 15.3468
11.5359 16.0529 15.3431
11.5223 16.2229 15.3411
11.5078 16.3916 15.34
11.4888 16.5595 15.3392
11.462 16.7265 15.338
11.4242 16.8914 15.336
11.3735 17.0525 15.3327
11.3095 17.2082 15.3278
11.2329 17.3568 15.3211
11.1454 17.4971 15.3124
11.0491 17.6284 15.302
10.9458 17.7504 15.2904
10.8371 17.8633 15.278
10.7239 17.967 15.2656
10.6066 18.062 15.2538
10.4853 18.1485 15.2433
10.3602 18.2265 15.2345
10.2312 18.2962 15.2277
10.0981 18.3579 15.223
9.96082 18.4116 15.2203
9.81931 18.4576 15.2193
9.6736 18.4962 15.2197
9.52384 18.5278 15.2213
9.37036 18.5524 15.2239
9.21349 18.5705 15.2272
9.05353 18.5825 15.2312
8.89074 18.5885 15.2357
8.72524 18.5892 15.2406
8.55717 18.5848 15.2457
8.38659 18.5759 15.2508
8.21364 18.563 15.2558
8.03848 18.5465 15.2606
7.8613 18.527 15.2653
7.68237 18.5051 15.2703
7.50212 18.4813 15.2762
7.32106 18.4561 15.2833
7.13981 18.4296 15.2924
6.95893 18.4019 15.3034
6.77887 18.3729 15.3165
6.59985 18.3426 15.3313
6.42181 18.3109 15.3474
6.24453 18.2776 15.3642
6.06772 18.2425 15.3811
5.89122 18.2055 15.3975
5.7149 18.1663 15.4132
5.53886 18.1248 15.4277
5.36325 18.0806 15.441
5.18821 18.0335 15.4532
5.01381 17.9834 15.4643
4.84001 17.9299 15.4748
4.66675 17.8727 15.4849
4.494 17.8117 15.495
4.3218 17.7463 15.5051
4.15018 17.6765 15.5153
3.9793 17.6017 15.5256
3.80934 17.5217 15.5356
3.64047 17.4364 15.5452
3.47291 17.3455 15.5542
3.30689 17.2489 15.5626
3.14256 17.1464 15.5702
2.98001 17.0381 15.5774
2.81911 16.9239 15.5843
2.65974 16.8037 15.5913
2.50165 16.6777 15.5987
2.34458 16.5459 15.6069
2.18829 16.4088 15.6162
2.03259 16.2665 15.6267
1.87757 16.1195 15.6383
1.7234 15.9683 15.6508
1.57038 15.8131 15.6638
1.41872 15.6543 15.6771
1.26848 15.4921 15.6904
1.11941 15.3266 15.7037
0.971063 15.1579 15.7171
0.822896 14.9858 15.7307
0.674317 14.8101 15.7446
0.524853 14.6303 15.7592
0.374158 14.4463 15.7743
0.222002 14.2577 15.7897
0.0682684 14.0647 15.8052
-0.0870965 13.8673 15.8201
-0.244164 13.6658 15.834
-0.40304 13.4606 15.8464
-0.56389 13.252 15.8574
-0.726841 13.0403 15.8669
-0.89202 12.8259 15.8752
-1.05938 12.6089 15.8829
-1.2287 12.3898 15.8903
-1.39958 12.1691 15.898
-1.5715 11.9472 15.9064
-1.74384 11.725 15.9158
-1.91599 11.5031 15.9264
-2.08748 11.2821 15.9381
-2.258 11.0624 15.9508
-2.42745 10.8442 15.9641
-2.59576 10.6274 15.9777
-2.76295 10.412 15.9911
-2.92896 10.198 16.0037
-3.09368 9.98545 16.0153
-3.2569 9.77452 16.0256
-3.41835 9.56563 16.0348
-3.57776 9.35922 16.0433
-3.73498 9.15571 16.0515
-3.88999 8.95554 16.0602
-4.04297 8.75906 16.0698
-4.19423 8.56664 16.0806
-4.34426 8.37858 16.0924
-4.49366 8.19513 16.105
-4.64318 8.01652 16.1177
-4.79371 7.84294 16.13
-4.94619 7.6746 16.1412
-5.10145 7.51178 16.1511
-5.26013 7.35483 16.1594
-5.42259 7.20412 16.1659
-5.58904 7.05993 16.1708
-5.75952 6.92238 16.1741
-5.93409 6.79139 16.1761
-6.1128 6.66665 16.1769
-6.29572 6.54768 16.1767
-6.48296 6.43383 16.1758
-6.67458 6.32438 16.174
-6.87067 6.21855 16.1714
-7.07125 6.11559 16.168
-7.27632 6.01477 16.1636
-7.48583 5.91548 16.1582
-7.69977 5.81718 16.1516
-7.9182 5.71944 16.1438
-8.14121 5.62194 16.1347
-8.36911 5.52442 16.1245
-8.60213 5.42669 16.1133
-8.84042 5.32853 16.1017
-9.08404 5.2297 16.09
-9.33276 5.12981 16.0789
-9.58624 5.02836 16.0688
-9.84397 4.92467 16.0601
-10.1053 4.81798 16.0528
-10.3696 4.70748 16.0469
-10.636 4.59244 16.042
-10.9039 4.47231 16.0377
-11.1724 4.34684 16.034
-11.4409 4.21609 16.0306
-11.7086 4.08043 16.0279
-11.975 3.94043 16.0258
-12.2397 3.79678 16.0246
-12.5025 3.65015 16.0243
-12.7631 3.50113 16.0249
-13.0214 3.3501 16.0262
-13.2773 3.19723 16.0279
-13.531 3.0425 16.03
-13.7824 2.88573 16.0321
-14.0317 2.7267 16.0341
-14.2786 2.56511 16.0359
-14.5233 2.40051 16.0377
-14.7655 2.23247 16.0394
-15.0048 2.0606 16.0412
-15.2406 1.88467 16.0433
-15.4721 1.70477 16.0458
-15.6984 1.52137 16.0487
-15.9187 1.33529 16.0519
-16.1323 1.14771 16.0551
-16.3391 0.959952 16.0579
-16.5391 0.773093 16.0597
-16.7324 0.587666 16.0603
-16.919 0.40331 16.0598
-17.0981 0.218745 16.0589
-17.268 0.0319807 16.0585
-17.4262 -0.159165 16.0596
-17.5695 -0.356454 16.0632
-17.6955 -0.560734 16.0691
-17.8025 -0.771827 16.0769
-17.8904 -0.988656 16.0857
-17.9607 -1.2096 16.0944
-18.0156 -1.43287 16.1021
-18.0578 -1.65685 16.1084
-18.0896 -1.88042 16.1131
-18.1128 -2.10317 16.1164
-18.1277 -2.32545 16.1187
-18.134 -2.54836 16.1204
-18.1302 -2.77338 16.1218
-18.115 -3.00197 16.1232
-18.0872 -3.23516 16.1245
-18.0464 -3.47337 16.1256
-17.9929 -3.71643 16.1263
-17.9276 -3.96372 16.1261
-17.8521 -4.21429 16.1249
-17.7681 -4.4671 16.1223
-17.6773 -4.72122 16.1185
-17.5814 -4.97591 16.1134
-17.4817 -5.23077 16.1075
-17.3794 -5.48567 16.1011
-17.2754 -5.74065 16.0949
-17.1706 -5.99579 16.0892
-17.0655 -6.25112 16.0848
-16.9608 -6.50654 16.082
-16.8569 -6.76173 16.0811
-16.7542 -7.0162 16.0822
-16.6528 -7.26928 16.0851
-16.5528 -7.52034 16.0893
-16.4541 -7.76878 16.0944
-16.3563 -8.01418 16.1003
-16.2589 -8.25636 16.1069
-16.1611 -8.49528 16.1142
-16.0624 -8.73111 16.1223
-15.962 -8.96421 16.1311
-15.8595 -9.19505 16.1402
-15.7544 -9.42415 16.1491
-15.6463 -9.65197 16.1569
-15.5353 -9.87879 16.1631
-15.4213 -10.1047 16.1674
-15.3044 -10.3298 16.1697
-15.1848 -10.5537 16.1702
-15.0626 -10.7763 16.1691
-14.938 -10.9973 16.167
-14.8113 -11.2162 16.1645
-14.6828 -11.4325 16.1623
-14.5529 -11.6457 16.1609
-14.4217 -11.8557 16.1606
-14.2894 -12.0621 16.1614
-14.1558 -12.2653 16.1632
-14.0207 -12.4655 16.1657
-13.8837 -12.6632 16.1684
-13.7446 -12.8588 16.1709
-13.6036 -13.0526 16.1729
-13.4606 -13.2449 16.1742
-13.316 -13.4356 16.1748
-13.1699 -13.625 16.1746
-13.0225 -13.8128 16.1733
-12.8738 -13.9992 16.1706
-12.7239 -14.1838 16.1662
-12.5729 -14.3665 16.1602
-12.4207 -14.5468 16.1525
-12.2675 -14.7245 16.1437
-12.1132 -14.8991 16.1343
-11.958 -15.0703 16.125
-11.8019 -15.2381 16.1165
-11.645 -15.4025 16.1092
-11.4872 -15.5638 16.1034
-11.3288 -15.7224 16.0989
-11.1695 -15.8786 16.0957
-11.0095 -16.0329 16.0933
-10.8488 -16.1853 16.0917
-10.6873 -16.3358 16.0907
-10.5252 -16.4839 16.0901
-10.3626 -16.629 16.0901
-10.1995 -16.7703 16.0907
-10.0357 -16.9072 16.0922
-9.8711 -17.0391 16.0947
-9.70531 -17.1657 16.0983
-9.53814 -17.2866 16.1029
-9.36946 -17.4023 16.1083
-9.19917 -17.5131 16.1143
-9.02738 -17.6199 16.1207
-8.85423 -17.7237 16.1274
-8.67995 -17.8255 16.1344
-8.50482 -17.9262 16.1416
-8.32906 -18.0266 16.1493
-8.15284 -18.1273 16.1572
-7.97623 -18.229 16.1656
-7.79923 -18.332 16.1742
-7.62176 -18.4367 16.1831
-7.44368 -18.5431 16.1924
-7.26483 -18.6516 16.2021
-7.08493 -18.7621 16.2122
-6.90375 -18.8748 16.2229
-6.72103 -18.9896 16.2341
-6.53655 -19.1065 16.2457
-6.35017 -19.2253 16.2578
-6.16176 -19.346 16.2703
-5.97133 -19.4682 16.2832
-5.7789 -19.5919 16.2961
-5.58454 -19.7169 16.3089
-5.38838 -19.8431 16.3212
-5.1905 -19.9704 16.3327
-4.99098 -20.0991 16.3433
-4.78992 -20.2292 16.3528
-4.5875 -20.361 16.3613
-4.38388 -20.4944 16.369
-4.17932 -20.6293 16.3762
-3.97402 -20.7655 16.3831
-3.76811 -20.9025 16.39
-3.56165 -21.0399 16.3971
-3.35459 -21.177 16.4046
-3.14667 -21.3133 16.4127
-2.93744 -21.448 16.4214
-2.72637 -21.5803 16.4307
-2.51297 -21.7096 16.4404
-2.29691 -21.8347 16.4503
-2.07811 -21.9549 16.4602
-1.85686 -22.0691 16.4701
-1.63368 -22.1767 16.4802
-1.40933 -22.2774 16.4908
-1.18457 -22.371 16.5025
-0.960212 -22.4575 16.5156
-0.737039 -22.5372 16.5306
-0.515807 -22.6103 16.5474
-0.297161 -22.6774 16.5657
-0.0816218 -22.7387 16.5849
0.13071 -22.7945 16.6045
0.340266 -22.8446 16.6236
0.548351 -22.8881 16.6415
0.757178 -22.9232 16.6577
0.96946 -22.9473 16.6717
1.18782 -22.9574 16.6833
1.41419 -22.951 16.6922
1.64951 -22.9266 16.6982
1.89378 -22.8839 16.7012
2.14631 -22.8239 16.7015
2.406 -22.7484 16.6991
2.67158 -22.6596 16.6942
2.94184 -22.56 16.687
3.21605 -22.4517 16.6775
3.49405 -22.3364 16.6662
3.77631 -22.2152 16.6536
4.06352 -22.0888 16.6403
4.35637 -21.9574 16.6269
4.65504 -21.8214 16.6143
4.95908 -21.6809 16.6033
5.26751 -21.5368 16.5946
5.57895 -21.3897 16.5888
5.89196 -21.2404 16.5863
6.20525 -21.0894 16.5874
6.51762 -20.9363 16.5924
6.82785 -20.78 16.6012
7.13435 -20.618 16.6138
7.43499 -20.4475 16.6297
7.72697 -20.2654 16.6482
8.00713 -20.0693 16.668
8.27227 -19.8579 16.688
8.51968 -19.631 16.7072
8.7476 -19.3897 16.7248
8.95551 -19.1361 16.7403
9.14418 -18.873 16.7532
9.31544 -18.6034 16.7631
9.47178 -18.3301 16.7698
9.61585 -18.0554 16.7731
9.75008 -17.7812 16.7734
9.87635 -17.5087 16.7712
9.99589 -17.2385 16.7677
10.1093 -16.9708 16.764
10.2169 -16.7053 16.7612
10.3185 -16.442 16.7598
10.4142 -16.1804 16.7604
10.5041 -15.9206 16.7628
10.5885 -15.6624 16.7666
10.6681 -15.4062 16.7708
10.7437 -15.1524 16.7747
10.8159 -14.9016 16.7772
10.8855 -14.6544 16.7776
10.9526 -14.4108 16.7759
11.0165 -14.1698 16.7721
11.0762 -13.929 16.7669
11.1301 -13.6845 16.7612
11.177 -13.4318 16.7555
11.216 -13.1674 16.7504
11.2476 -12.8898 16.7457
11.2726 -12.5997 16.7413
11.2924 -12.2997 16.737
11.3085 -11.9933 16.7324
11.3219 -11.6837 16.7276
11.3336 -11.3734 16.7226
11.3442 -11.0637 16.7174
11.3541 -10.7554 16.712
11.3636 -10.4486 16.7063
11.373 -10.1432 16.7003
11.3823 -9.83894 16.6941
11.3921 -9.53575 16.6881
11.4028 -9.23335 16.6825
11.4154 -8.93129 16.678
11.4312 -8.62879 16.6748
11.4518 -8.3247 16.6731
11.479 -8.01742 16.6728
11.5144 -7.70525 16.6736
11.5591 -7.38694 16.6753
11.6134 -7.06213 16.6778
11.6767 -6.73148 16.6813
11.7476 -6.39639 16.6858
11.8247 -6.05859 16.6917
11.9063 -5.71967 16.6988
11.9911 -5.38097 16.7071
12.0782 -5.04338 16.7163
12.1669 -4.70752 16.726
12.2568 -4.37374 16.736
12.3478 -4.04216 16.7458
12.4399 -3.71287 16.7551
12.5335 -3.38576 16.7639
12.629 -3.06062 16.7722
12.7269 -2.73715 16.7799
12.8279 -2.41503 16.7872
12.9325 -2.09386 16.7942
13.0414 -1.77331 16.8011
13.1549 -1.45304 16.808
13.2733 -1.13269 16.8149
13.3966 -0.812072 16.822
13.5243 -0.491123 16.8294
13.6558 -0.170129 16.8369
13.7898 0.150215 16.8447
13.9249 0.468755 16.8528
14.0593 0.783934 16.8611
14.1914 1.09417 16.8696
14.3197 1.39819 16.8783
14.4435 1.69538 16.8872
14.5624 1.98585 16.8963
14.6767 2.27039 16.9055
14.7869 2.55029 16.9149
14.8933 2.82698 16.9247
14.9961 3.10171 16.9349
15.0946 3.3749 16.946
15.1877 3.64592 16.9581
15.2737 3.91314 16.9711
15.3509 4.17447 16.9848
15.4183 4.42808 16.9987
15.4756 4.67281 17.0125
15.5235 4.90845 17.0259
15.5635 5.13548 17.0392
15.5975 5.35486 17.0525
15.6276 5.56762 17.0663
15.6558 5.77474 17.0809
15.6838 5.97698 17.0963
15.7132 6.17481 17.1126
15.7448 6.36847 17.1298
15.7791 6.55805 17.1476
15.8162 6.74366 17.1658
15.8556 6.92578 17.1841
15.8965 7.10532 17.2023
15.9377 7.28377 17.2204
15.9777 7.46305 17.2388
16.0152 7.645 17.2575
16.0491 7.83072 17.2769
16.0786 8.02029 17.2969
16.1036 8.21268 17.3174
16.1245 8.40637 17.3377
16.1419 8.59988 17.3573
16.1569 8.79236 17.3756
16.1703 8.98372 17.3923
16.1832 9.17455 17.4073
16.1968 9.3659 17.4204
16.2117 9.55898 17.4321
16.2287 9.7549 17.4425
16.2479 9.95458 17.4519
16.2691 10.1587 17.4608
16.2919 10.3676 17.4693
16.3157 10.5813 17.4773
16.3398 10.7998 17.4848
16.3636 11.0228 17.4912
16.3868 11.2498 17.4959
16.409 11.4805 17.4985
16.4301 11.7139 17.4989
16.45 11.9496 17.4973
16.4684 12.1871 17.4947
16.4847 12.4264 17.4922
16.4977 12.668 17.4906
16.5056 12.9129 17.4906
16.5066 13.162 17.4922
16.4991 13.4155 17.4948
16.4824 13.6732 17.4976
16.4566 13.9337 17.4995
16.4224 14.1955 17.4995
16.3812 14.4569 17.497
16.334 14.7168 17.4917
16.282 14.9745 17.4836
16.2261 15.2298 17.473
16.1671 15.483 17.4604
16.1054 15.7346 17.4465
16.0416 15.9851 17.4318
15.9758 16.2355 17.4167
15.908 16.4864 17.4018
15.8383 16.7386 17.3873
15.7661 16.9923 17.3733
15.6911 17.2474 17.3598
15.6129 17.5037 17.347
15.5309 17.7605 17.3348
15.4447 18.0171 17.3235
15.3537 18.2729 17.3135
15.2576 18.5272 17.3049
15.1561 18.7792 17.2979
15.0491 19.0283 17.2929
14.9368 19.274 17.29
14.8194 19.5158 17.2892
14.6976 19.7533 17.2905
14.5721 19.9863 17.2937
14.4439 20.2146 17.2984
14.3139 20.4381 17.3041
14.1824 20.6568 17.3104
14.0493 20.8704 17.3168
13.9135 21.0785 17.3234
13.7732 21.2804 17.3301
13.6262 21.4754 17.3371
13.4706 21.6628 17.3446
13.3055 21.842 17.3525
13.1311 22.0132 17.3607
12.9486 22.1768 17.3688
12.7601 22.3334 17.3767
12.5677 22.4839 17.3839
12.3735 22.6287 17.3905
12.1789 22.7685 17.3964
11.9848 22.9034 17.4018
11.7918 23.0335 17.4072
11.5998 23.1588 17.4128
11.4085 23.2792 17.419
11.2176 23.3947 17.4263
11.0266 23.5055 17.4349
10.8351 23.6119 17.4448
10.6431 23.7143 17.4561
10.4503 23.8132 17.4684
10.2569 23.9091 17.4812
10.0629 24.0027 17.4936
9.8682 24.0945 17.505
9.67283 24.1853 17.5147
9.47672 24.2756 17.5222
9.2798 24.3658 17.5275
9.08198 24.4564 17.5308
8.88313 24.5475 17.5326
8.68313 24.639 17.5334
8.48177 24.7308 17.5337
8.27892 24.8224 17.5339
8.07437 24.9133 17.5341
7.86805 25.0027 17.5345
7.65991 25.0901 17.5352
7.44989 25.1744 17.5362
7.23799 25.2549 17.5377
7.0242 25.3306 17.5396
6.80858 25.4006 17.542
6.5913 25.4641 17.5444
6.37278 25.5205 17.5463
6.15368 25.5697 17.547
5.93488 25.6119 17.5461
5.71727 25.6476 17.5433
5.50165 25.6775 17.5387
5.28863 25.7023 17.5326
5.07859 25.7224 17.5253
4.8718 25.7384 17.5174
4.66835 25.7505 17.5091
