ply
format ascii 1.0
element vertex 2001
property float x
property float y
property float z
element face 0
property list uchar int vertex_index
end_header
1.00997 -4.98927 1.76026
1.01014 -4.98918 1.76032
1.01027 -4.98911 1.76036
1.01035 -4.98906 1.76039
1.0104 -4.98902 1.76041
1.0104 -4.98899 1.76041
1.01038 -4.98898 1.7604
1.01034 -4.98897 1.76038
1.01031 -4.98898 1.76037
1.01029 -4.98899 1.76035
1.0103 -4.98901 1.76035
1.01033 -4.98903 1.76035
1.01036 -4.98906 1.76035
1.0104 -4.98908 1.76036
1.01043 -4.98909 1.76037
1.01044 -4.9891 1.76037
1.01043 -4.9891 1.76038
1.01041 -4.9891 1.76038
1.01037 -4.98909 1.76038
1.01033 -4.98908 1.76037
1.01029 -4.98907 1.76037
1.01026 -4.98906 1.76036
1.01025 -4.98906 1.76036
1.01025 -4.98905 1.76036
1.01026 -4.98906 1.76036
1.01028 -4.98906 1.76036
1.01031 -4.98907 1.76037
1.01034 -4.98908 1.76038
1.01036 -4.98908 1.76038
1.01038 -4.98909 1.76039
1.0104 -4.98909 1.76039
1.01043 -4.9891 1.76038
1.01045 -4.9891 1.76038
1.01048 -4.98909 1.76037
1.01049 -4.98909 1.76036
1.01049 -4.98908 1.76036
1.01047 -4.98906 1.76035
1.01042 -4.98904 1.76034
1.01035 -4.98902 1.76034
1.01027 -4.989 1.76034
1.0102 -4.98899 1.76034
1.01014 -4.98898 1.76034
1.01011 -4.98898 1.76034
1.0101 -4.98899 1.76035
1.01012 -4.98901 1.76035
1.01015 -4.98903 1.76036
1.01019 -4.98904 1.76037
1.01024 -4.98905 1.76037
1.01028 -4.98906 1.76038
1.01031 -4.98906 1.76039
1.01033 -4.98906 1.76039
1.01034 -4.98905 1.76039
1.01033 -4.98904 1.76039
1.01032 -4.98904 1.76038
1.01031 -4.98904 1.76037
1.0103 -4.98904 1.76036
1.0103 -4.98905 1.76035
1.01031 -4.98905 1.76034
1.01032 -4.98906 1.76033
1.01033 -4.98907 1.76033
1.01034 -4.98907 1.76033
1.01034 -4.98907 1.76032
1.01034 -4.98908 1.76032
1.01035 -4.98908 1.76033
1.01035 -4.98908 1.76033
1.01037 -4.98909 1.76034
1.01038 -4.98909 1.76035
1.0104 -4.9891 1.76036
1.01042 -4.9891 1.76037
1.01042 -4.98909 1.76037
1.01042 -4.98908 1.76037
1.0104 -4.98907 1.76036
1.01038 -4.98905 1.76035
1.01036 -4.98903 1.76035
1.01034 -4.98902 1.76034
1.01034 -4.98901 1.76035
1.01035 -4.98901 1.76035
1.01037 -4.98901 1.76036
1.01037 -4.98901 1.76036
1.01037 -4.98901 1.76037
1.01034 -4.98901 1.76037
1.0103 -4.989 1.76036
1.01024 -4.98899 1.76036
1.01019 -4.98898 1.76036
1.01014 -4.98897 1.76036
1.01011 -4.98896 1.76036
1.01009 -4.98895 1.76036
1.0101 -4.98894 1.76037
1.01011 -4.98894 1.76037
1.01014 -4.98894 1.76037
1.01016 -4.98894 1.76036
1.01018 -4.98894 1.76036
1.01018 -4.98893 1.76035
1.01017 -4.98893 1.76033
1.01014 -4.98892 1.76032
1.01011 -4.98892 1.76031
1.01007 -4.98892 1.76031
1.01005 -4.98892 1.7603
1.01004 -4.98893 1.7603
1.01005 -4.98894 1.7603
1.01007 -4.98896 1.76031
1.01011 -4.98898 1.76032
1.01015 -4.989 1.76033
1.01019 -4.98902 1.76035
1.01022 -4.98905 1.76037
1.01026 -4.98907 1.76039
1.01029 -4.98908 1.7604
1.01033 -4.9891 1.76041
1.01035 -4.98911 1.76041
1.01037 -4.98911 1.7604
1.01037 -4.98911 1.76039
1.01036 -4.98911 1.76039
1.01035 -4.9891 1.76038
1.01033 -4.9891 1.76039
1.01031 -4.98908 1.76039
1.01028 -4.98907 1.76039
1.01025 -4.98905 1.76039
1.01021 -4.98903 1.76039
1.01017 -4.98901 1.76039
1.01013 -4.98899 1.76039
1.01009 -4.98898 1.76038
1.01006 -4.98897 1.76038
1.01003 -4.98897 1.76037
1.01002 -4.98897 1.76036
1.01001 -4.98898 1.76035
1.01002 -4.98898 1.76034
1.01004 -4.98899 1.76032
1.01008 -4.989 1.76031
1.01012 -4.989 1.7603
1.01016 -4.989 1.7603
1.01019 -4.989 1.7603
1.0102 -4.989 1.76031
1.01021 -4.989 1.76033
1.01022 -4.989 1.76035
1.01024 -4.98901 1.76037
1.01028 -4.98903 1.76039
1.01032 -4.98904 1.76041
1.01038 -4.98907 1.76042
1.01043 -4.98909 1.76043
1.01049 -4.98911 1.76043
1.01052 -4.98912 1.76043
1.01053 -4.98913 1.76042
1.01052 -4.98913 1.76041
1.01048 -4.98913 1.76039
1.01042 -4.98911 1.76037
1.01034 -4.98909 1.76035
1.01025 -4.98906 1.76033
1.01017 -4.98902 1.76031
1.01009 -4.98898 1.76029
1.01004 -4.98895 1.76028
1.01001 -4.98893 1.76028
1.01 -4.98891 1.76028
1.01 -4.9889 1.76029
1.01002 -4.9889 1.76031
1.01005 -4.98891 1.76033
1.01008 -4.98892 1.76036
1.01011 -4.98894 1.76039
1.01013 -4.98896 1.76042
1.01013 -4.98898 1.76044
1.01014 -4.989 1.76046
1.01013 -4.98902 1.76047
1.01013 -4.98903 1.76047
1.01013 -4.98905 1.76046
1.01014 -4.98906 1.76045
1.01013 -4.98907 1.76043
1.01012 -4.98907 1.76043
1.01011 -4.98907 1.76042
1.01009 -4.98907 1.76042
1.01008 -4.98907 1.76042
1.01009 -4.98906 1.76043
1.0101 -4.98905 1.76043
1.01014 -4.98905 1.76044
1.01017 -4.98904 1.76044
1.01021 -4.98904 1.76043
1.01024 -4.98903 1.76043
1.01025 -4.98902 1.76042
1.01026 -4.98902 1.7604
1.01026 -4.98902 1.76039
1.01026 -4.98902 1.76038
1.01025 -4.98903 1.76038
1.01025 -4.98905 1.76038
1.01025 -4.98907 1.76039
1.01025 -4.98908 1.7604
1.01024 -4.98909 1.76041
1.01022 -4.9891 1.76041
1.01021 -4.9891 1.76041
1.01018 -4.9891 1.7604
1.01016 -4.98909 1.76039
1.01013 -4.98907 1.76037
1.01012 -4.98906 1.76036
1.01011 -4.98905 1.76035
1.01012 -4.98904 1.76034
1.01014 -4.98904 1.76033
1.01018 -4.98905 1.76033
1.01021 -4.98905 1.76033
1.01024 -4.98906 1.76033
1.01027 -4.98906 1.76034
1.01028 -4.98906 1.76034
1.01028 -4.98906 1.76034
1.01027 -4.98905 1.76034
1.01025 -4.98904 1.76035
1.01023 -4.98903 1.76036
1.01021 -4.98903 1.76038
1.0102 -4.98903 1.7604
1.0102 -4.98903 1.76042
1.01019 -4.98903 1.76043
1.01018 -4.98903 1.76043
1.01016 -4.98903 1.76043
1.01014 -4.98903 1.76041
1.01012 -4.98902 1.7604
1.01011 -4.98902 1.76038
1.01011 -4.98902 1.76038
1.01012 -4.98903 1.76037
1.01016 -4.98904 1.76038
1.0102 -4.98905 1.76039
1.01024 -4.98906 1.7604
1.01028 -4.98907 1.76041
1.0103 -4.98907 1.76042
1.01032 -4.98907 1.76043
1.01032 -4.98906 1.76043
1.01032 -4.98905 1.76044
1.01031 -4.98905 1.76044
1.0103 -4.98904 1.76045
1.0103 -4.98904 1.76046
1.01029 -4.98904 1.76047
1.01027 -4.98904 1.76047
1.01026 -4.98904 1.76048
1.01024 -4.98903 1.76048
1.01022 -4.98903 1.76047
1.01021 -4.98903 1.76046
1.0102 -4.98902 1.76046
1.0102 -4.98902 1.76045
1.01021 -4.98902 1.76045
1.01022 -4.98903 1.76045
1.01023 -4.98903 1.76046
1.01024 -4.98904 1.76046
1.01024 -4.98905 1.76046
1.02002 -4.97924 1.77028
1.02018 -4.97916 1.77033
1.0203 -4.9791 1.77037
1.02037 -4.97905 1.7704
1.0204 -4.97901 1.77041
1.0204 -4.97899 1.77041
1.02037 -4.97897 1.77039
1.02033 -4.97897 1.77038
1.02031 -4.97898 1.77036
1.02029 -4.97899 1.77035
1.0203 -4.97901 1.77035
1.02033 -4.97904 1.77035
1.02037 -4.97906 1.77035
1.02041 -4.97908 1.77036
1.02043 -4.9791 1.77037
1.02044 -4.9791 1.77037
1.02043 -4.9791 1.77038
1.0204 -4.97909 1.77038
1.02036 -4.97909 1.77038
1.02032 -4.97908 1.77037
1.02028 -4.97907 1.77037
1.02026 -4.97906 1.77036
1.02024 -4.97905 1.77036
1.02025 -4.97905 1.77036
1.02027 -4.97906 1.77036
1.02029 -4.97906 1.77036
1.02032 -4.97907 1.77037
1.02034 -4.97908 1.77038
1.02037 -4.97908 1.77038
1.02039 -4.97909 1.77039
1.02041 -4.97909 1.77039
1.02043 -4.9791 1.77038
1.02046 -4.9791 1.77038
1.02048 -4.97909 1.77037
1.02049 -4.97909 1.77036
1.02049 -4.97907 1.77035
1.02046 -4.97905 1.77035
1.0204 -4.97903 1.77034
1.02033 -4.97901 1.77034
1.02025 -4.97899 1.77034
1.02018 -4.97898 1.77034
1.02013 -4.97898 1.77034
1.0201 -4.97898 1.77034
1.0201 -4.979 1.77035
1.02012 -4.97901 1.77036
1.02016 -4.97903 1.77036
1.02021 -4.97904 1.77037
1.02025 -4.97905 1.77037
1.02029 -4.97906 1.77038
1.02032 -4.97906 1.77039
1.02034 -4.97906 1.77039
1.02034 -4.97905 1.77039
1.02033 -4.97904 1.77039
1.02032 -4.97904 1.77038
1.02031 -4.97904 1.77037
1.0203 -4.97904 1.77036
1.0203 -4.97905 1.77035
1.02031 -4.97906 1.77034
1.02032 -4.97906 1.77033
1.02033 -4.97907 1.77033
1.02034 -4.97907 1.77032
1.02034 -4.97907 1.77032
1.02034 -4.97908 1.77032
1.02035 -4.97908 1.77033
1.02036 -4.97908 1.77034
1.02037 -4.97909 1.77035
1.02039 -4.97909 1.77036
1.02041 -4.9791 1.77037
1.02042 -4.9791 1.77037
1.02042 -4.97909 1.77037
1.02041 -4.97908 1.77037
1.02039 -4.97906 1.77036
1.02037 -4.97904 1.77035
1.02035 -4.97903 1.77035
1.02034 -4.97901 1.77034
1.02035 -4.97901 1.77035
1.02036 -4.97901 1.77035
1.02037 -4.97901 1.77036
1.02037 -4.97901 1.77036
1.02036 -4.97901 1.77037
1.02033 -4.97901 1.77036
1.02028 -4.979 1.77036
1.02023 -4.97899 1.77036
1.02017 -4.97898 1.77036
1.02013 -4.97897 1.77036
1.01012 -4.989 1.76046
1.01011 -4.98902 1.76045
1.01012 -4.98903 1.76045
1.01014 -4.98905 1.76044
1.01018 -4.98908 1.76044
1.01024 -4.98909 1.76045
1.01029 -4.98911 1.76046
1.01034 -4.98912 1.76047
1.01038 -4.98913 1.76047
1.0104 -4.98913 1.76047
1.01041 -4.98913 1.76047
1.01041 -4.98913 1.76047
1.01041 -4.98912 1.76046
1.0104 -4.98911 1.76045
1.0104 -4.98911 1.76044
1.01039 -4.9891 1.76044
1.01038 -4.9891 1.76043
1.01037 -4.98909 1.76043
1.01035 -4.98908 1.76043
1.01032 -4.98908 1.76042
1.0103 -4.98907 1.76042
1.01027 -4.98906 1.76042
1.01025 -4.98905 1.76042
1.01022 -4.98904 1.76042
1.01019 -4.98903 1.76042
1.01017 -4.98902 1.76042
1.01016 -4.98901 1.76042
1.01016 -4.98899 1.76041
1.01017 -4.98898 1.76041
1.0102 -4.98897 1.7604
1.01023 -4.98897 1.76038
1.01025 -4.98897 1.76038
1.01027 -4.98897 1.76037
1.01028 -4.98898 1.76038
1.01028 -4.98899 1.76039
1.01028 -4.98901 1.76041
1.01029 -4.98902 1.76043
1.01029 -4.98903 1.76044
1.0103 -4.98904 1.76046
1.01031 -4.98905 1.76047
1.01031 -4.98905 1.76047
1.0103 -4.98905 1.76047
1.01029 -4.98904 1.76046
1.01028 -4.98904 1.76045
1.01027 -4.98903 1.76045
1.01025 -4.98903 1.76044
1.01024 -4.98903 1.76043
1.01023 -4.98903 1.76042
1.01022 -4.98903 1.76042
1.01022 -4.98904 1.76042
1.01023 -4.98905 1.76042
1.01024 -4.98906 1.76042
1.01025 -4.98907 1.76042
1.01027 -4.98907 1.76042
1.01028 -4.98907 1.76042
1.01029 -4.98907 1.76042
1.0103 -4.98907 1.76042
1.01031 -4.98907 1.76043
1.01031 -4.98908 1.76044
1.01031 -4.98908 1.76045
1.0103 -4.98909 1.76047
1.01028 -4.9891 1.76048
1.01026 -4.98911 1.76048
1.01024 -4.98911 1.76048
1.01022 -4.98911 1.76048
1.01021 -4.98911 1.76046
1.01022 -4.98911 1.76045
1.01023 -4.9891 1.76043
1.01024 -4.98909 1.76041
1.01026 -4.98909 1.7604
1.01029 -4.98908 1.7604
1.01032 -4.98908 1.7604
1.01036 -4.98908 1.7604
1.0104 -4.98908 1.76041
1.01044 -4.98908 1.76043
1.01047 -4.98909 1.76044
1.01049 -4.98909 1.76045
1.01048 -4.98908 1.76046
1.01045 -4.98907 1.76046
1.01041 -4.98907 1.76047
1.01036 -4.98906 1.76047
1.01031 -4.98906 1.76047
1.01026 -4.98906 1.76046
1.01023 -4.98908 1.76046
1.01021 -4.98909 1.76045
1.0102 -4.98912 1.76044
1.01022 -4.98914 1.76043
1.01025 -4.98916 1.76041
1.01029 -4.98918 1.76041
1.01032 -4.98918 1.76041
1.01035 -4.98918 1.76041
1.01035 -4.98916 1.76042
1.01032 -4.98913 1.76043
1.01027 -4.9891 1.76043
1.01021 -4.98907 1.76043
1.01015 -4.98904 1.76043
1.01009 -4.98902 1.76043
1.01004 -4.989 1.76043
1.01001 -4.989 1.76042
1.01001 -4.98902 1.76042
1.01001 -4.98903 1.76042
1.01003 -4.98906 1.76042
1.01004 -4.98908 1.76042
1.01006 -4.9891 1.76042
1.01008 -4.98912 1.76041
1.0101 -4.98913 1.7604
1.01013 -4.98914 1.76038
1.01016 -4.98914 1.76036
1.0102 -4.98913 1.76035
1.01022 -4.98912 1.76033
1.01024 -4.98911 1.76033
1.01025 -4.9891 1.76033
1.01024 -4.98908 1.76034
1.01023 -4.98908 1.76036
1.01022 -4.98907 1.76039
1.01021 -4.98907 1.76042
1.01022 -4.98908 1.76046
1.01025 -4.9891 1.76049
1.01029 -4.98912 1.76051
1.01034 -4.98914 1.76052
1.0104 -4.98916 1.76052
1.01044 -4.98918 1.76051
1.01048 -4.98919 1.76049
1.01048 -4.9892 1.76046
1.01047 -4.9892 1.76043
1.01044 -4.9892 1.7604
1.01039 -4.9892 1.76038
1.01034 -4.98919 1.76038
1.01029 -4.98919 1.76038
1.01024 -4.98918 1.76039
1.0102 -4.98917 1.7604
1.01018 -4.98916 1.76041
1.01018 -4.98914 1.76042
1.01019 -4.98912 1.76043
1.01021 -4.98911 1.76043
1.01022 -4.9891 1.76043
1.01023 -4.98909 1.76043
1.01021 -4.98909 1.76043
1.01019 -4.98909 1.76043
1.01016 -4.9891 1.76043
1.01015 -4.98913 1.76044
1.01016 -4.98916 1.76045
1.01019 -4.98919 1.76045
1.01024 -4.98922 1.76045
1.0103 -4.98925 1.76044
1.01035 -4.98925 1.76043
1.01039 -4.98924 1.76041
1.0104 -4.98922 1.7604
1.01041 -4.98919 1.7604
1.0104 -4.98916 1.7604
1.01038 -4.98913 1.76041
1.01035 -4.9891 1.76043
1.01033 -4.98909 1.76045
1.0103 -4.98908 1.76047
1.01028 -4.98908 1.76049
1.01025 -4.98909 1.7605
1.01024 -4.98909 1.76049
1.01023 -4.98909 1.76049
1.01022 -4.98909 1.76047
1.01023 -4.98909 1.76046
1.01026 -4.98909 1.76045
1.01028 -4.9891 1.76044
1.01031 -4.98911 1.76044
1.01033 -4.98912 1.76045
1.01034 -4.98913 1.76047
1.01035 -4.98914 1.76048
1.01034 -4.98914 1.76049
1.01033 -4.98914 1.76049
1.01031 -4.98913 1.76048
1.0103 -4.98912 1.76046
1.01027 -4.98909 1.76043
1.01024 -4.98907 1.7604
1.0102 -4.98905 1.76038
1.01015 -4.98903 1.76037
1.0101 -4.98903 1.76038
1.01005 -4.98904 1.7604
1.01001 -4.98906 1.76045
1.01 -4.98908 1.76049
1.01 -4.9891 1.76053
1.01003 -4.98911 1.76055
1.01007 -4.98911 1.76054
1.01012 -4.9891 1.76051
1.01014 -4.98908 1.76046
1.01015 -4.98905 1.76042
1.01014 -4.98903 1.76041
1.01012 -4.98902 1.76044
1.0101 -4.98903 1.76054
1.0101 -4.98907 1.76071
1.01013 -4.98914 1.76095
1.01019 -4.98924 1.76123
1.01029 -4.98936 1.76149
1.0104 -4.98947 1.76165
1.0105 -4.98954 1.76162
1.01058 -4.9895 1.76129
1.01058 -4.98927 1.76059
1.01047 -4.98875 1.75952
1.0102 -4.9878 1.75818
1.0097 -4.98628 1.75688
1.0089 -4.98402 1.75614
1.00774 -4.98087 1.75673
1.00614 -4.97671 1.75966
1.00404 -4.97152 1.76611
1.00145 -4.96535 1.7773
0.998436 -4.95841 1.79435
0.995139 -4.95108 1.81815
0.991748 -4.9439 1.84924
0.988469 -4.93758 1.88781
0.985493 -4.93298 1.93377
0.982965 -4.93107 1.98693
0.98095 -4.9329 2.04708
0.979428 -4.93961 2.11424
0.978305 -4.95236 2.18869
0.977465 -4.97238 2.27108
0.976824 -5.00085 2.3623
0.976365 -5.03896 2.46332
0.976141 -5.08776 2.57498
0.976257 -5.14814 2.69771
0.976842 -5.22075 2.83149
0.978033 -5.30595 2.9758
0.979997 -5.40379 3.12959
0.982948 -5.51408 3.29142
0.987163 -5.63637 3.45945
0.992958 -5.77005 3.63169
1.00067 -5.91437 3.80608
1.01064 -6.06855 3.98071
1.02311 -6.23178 4.15392
1.03829 -6.40328 4.32432
1.05626 -6.5823 4.49082
1.07706 -6.76814 4.65259
1.10064 -6.96016 4.80902
1.12693 -7.15772 4.95968
1.15578 -7.36024 5.10427
1.18702 -7.56713 5.24258
1.22045 -7.77785 5.3745
1.25589 -7.99185 5.50005
1.29316 -8.2086 5.61932
1.33209 -8.4276 5.73253
1.37255 -8.64835 5.8399
1.4144 -8.8704 5.94167
1.45753 -9.0933 6.03801
1.50184 -9.31666 6.12901
1.54725 -9.54009 6.21465
1.59368 -9.76325 6.29484
1.64112 -9.98585 6.36942
1.68956 -10.2076 6.43819
1.73904 -10.4284 6.50097
1.78961 -10.6479 6.55755
1.84128 -10.8662 6.60777
1.89407 -11.083 6.65151
1.94799 -11.2982 6.68878
2.003 -11.5119 6.71976
2.05907 -11.7239 6.74485
2.11611 -11.9341 6.76466
2.17402 -12.1424 6.78007
2.23271 -12.3487 6.79217
2.29211 -12.5528 6.80227
2.35219 -12.7548 6.81188
2.41297 -12.9543 6.82258
2.4745 -13.1514 6.83595
2.53683 -13.3459 6.85339
2.59999 -13.5377 6.87607
2.664 -13.7269 6.90489
2.72888 -13.9132 6.94037
2.79459 -14.0968 6.98268
2.8611 -14.2776 7.03168
2.92837 -14.4557 7.08699
2.99636 -14.631 7.14807
3.06508 -14.8038 7.21421
3.13456 -14.9739 7.28453
3.20482 -15.1414 7.35792
3.27589 -15.3062 7.43305
3.34782 -15.4682 7.50846
3.42063 -15.6274 7.58258
3.49433 -15.7836 7.65385
3.56893 -15.9366 7.72078
3.64439 -16.0862 7.78208
3.72071 -16.2324 7.83675
3.79788 -16.3749 7.88417
3.8759 -16.5135 7.92414
3.95481 -16.6483 7.9568
4.03468 -16.779 7.98257
4.11555 -16.9056 8.00201
4.19743 -17.0281 8.01566
4.28026 -17.1464 8.0239
4.36394 -17.2606 8.02697
4.44828 -17.3707 8.02501
4.53318 -17.4769 8.01841
4.61857 -17.5793 8.00799
4.70443 -17.678 7.99519
4.7908 -17.773 7.98195
4.87773 -17.8645 7.97043
4.96525 -17.9524 7.96266
5.05336 -18.037 7.96014
5.14199 -18.1184 7.96363
5.23101 -18.1967 7.97294
5.32021 -18.2721 7.98704
5.40942 -18.3447 8.00438
5.49853 -18.4149 8.02325
5.58758 -18.4829 8.0423
5.67667 -18.5492 8.06087
5.76596 -18.614 8.07927
5.85563 -18.6779 8.09869
5.94579 -18.7411 8.12105
6.03658 -18.8042 8.14869
6.12809 -18.8676 8.18392
6.22038 -18.9319 8.22874
6.31347 -18.9975 8.28457
6.40734 -19.0648 8.35211
6.50194 -19.1342 8.43136
6.59718 -19.2059 8.52161
6.69294 -19.2802 8.6216
6.78912 -19.3571 8.72964
6.8856 -19.4367 8.84378
6.98231 -19.5189 8.96194
7.07918 -19.6037 9.08207
7.17617 -19.6909 9.20226
7.27325 -19.7805 9.32086
7.37034 -19.8721 9.43667
7.4674 -19.9658 9.54903
7.56437 -20.0612 9.65785
7.66123 -20.1582 9.7636
7.75798 -20.2566 9.86714
7.85464 -20.3562 9.96959
7.95122 -20.4568 10.0721
8.04774 -20.5582 10.1757
8.1442 -20.6603 10.2815
8.24062 -20.7628 10.3901
8.337 -20.8657 10.502
8.43339 -20.9687 10.6173
8.52982 -21.0718 10.7357
8.62633 -21.1749 10.8563
8.72295 -21.2776 10.978
8.81966 -21.3797 11.099
8.9164 -21.4809 11.2177
9.01306 -21.5808 11.3323
9.10943 -21.6792 11.441
9.2052 -21.7756 11.5425
9.29997 -21.8699 11.6355
9.39326 -21.9616 11.7194
9.48465 -22.0507 11.7938
9.57377 -22.1369 11.8592
9.66035 -22.2202 11.9162
9.74418 -22.3005 11.9658
9.82509 -22.3778 12.009
9.90286 -22.4523 12.0467
9.97718 -22.5241 12.0797
10.0477 -22.5933 12.1084
10.114 -22.6603 12.1331
10.1757 -22.7251 12.1539
10.2324 -22.7882 12.1709
10.2839 -22.8496 12.1842
10.33 -22.9097 12.1941
10.3703 -22.9685 12.201
10.4049 -23.0263 12.2054
10.4337 -23.0832 12.208
10.4564 -23.139 12.2094
10.4733 -23.1938 12.2105
10.4843 -23.2474 12.2119
10.4898 -23.2994 12.2144
10.4902 -23.3495 12.2185
10.4861 -23.3971 12.2248
10.4784 -23.4417 12.2333
10.468 -23.4826 12.2441
10.4558 -23.5191 12.2564
10.4428 -23.5506 12.2693
10.4299 -23.5767 12.2814
10.4178 -23.5971 12.2914
10.4072 -23.6117 12.2983
10.3986 -23.6205 12.3017
10.3924 -23.6236 12.302
10.3889 -23.6212 12.2999
10.3882 -23.6135 12.2967
10.3903 -23.6006 12.2939
10.3953 -23.5828 12.2928
10.4032 -23.5603 12.2944
10.4138 -23.533 12.2997
10.4273 -23.5007 12.3087
10.4435 -23.4633 12.3213
10.4623 -23.4202 12.3364
10.4837 -23.3712 12.3531
10.5077 -23.3157 12.3699
10.5344 -23.2534 12.3859
10.5638 -23.184 12.4003
10.5959 -23.1074 12.4127
10.6306 -23.0236 12.4231
10.6679 -22.9326 12.4317
10.7076 -22.8347 12.4388
10.7497 -22.7305 12.4448
10.794 -22.6205 12.4502
10.8404 -22.5055 12.4554
10.8888 -22.3863 12.4606
10.9393 -22.2636 12.4663
10.9918 -22.1384 12.4728
11.0462 -22.0113 12.4803
11.1025 -21.8828 12.4892
11.1608 -21.7534 12.4997
11.2209 -21.6233 12.5121
11.2831 -21.4924 12.5265
11.3471 -21.3605 12.5429
11.4131 -21.2271 12.5608
11.4811 -21.0918 12.5799
11.5508 -20.9537 12.5993
11.6224 -20.8123 12.6182
11.6957 -20.6669 12.6357
11.7708 -20.5169 12.6511
11.8477 -20.3618 12.6639
11.9265 -20.2013 12.6738
12.0071 -20.0351 12.6808
12.0896 -19.863 12.6851
12.1739 -19.685 12.687
12.2599 -19.5014 12.6869
12.3474 -19.3122 12.6854
12.4365 -19.1178 12.6829
12.527 -18.9185 12.6798
12.6188 -18.7148 12.6763
12.7119 -18.5069 12.6727
12.8063 -18.2953 12.6692
12.9018 -18.0803 12.6658
12.9984 -17.8624 12.6625
13.0959 -17.6417 12.6593
13.1945 -17.4186 12.656
13.2939 -17.1935 12.6526
13.3943 -16.9664 12.649
13.4954 -16.7379 12.6449
13.5975 -16.5082 12.6404
13.7005 -16.2778 12.6353
13.8044 -16.047 12.6298
13.909 -15.8163 12.6237
14.0144 -15.5862 12.6174
14.1201 -15.3572 12.6108
14.2258 -15.1297 12.6043
14.3308 -14.9042 12.5979
14.4346 -14.681 12.5919
14.5366 -14.4606 12.5865
14.636 -14.2433 12.5821
14.7322 -14.0294 12.5787
14.8244 -13.8191 12.5766
14.912 -13.6125 12.5758
14.9941 -13.4096 12.5765
15.0701 -13.2106 12.5787
15.1394 -13.0152 12.5826
15.2015 -12.8235 12.588
15.256 -12.6353 12.595
15.3029 -12.4503 12.6035
15.3422 -12.2684 12.6134
15.3741 -12.0894 12.6245
15.3991 -11.913 12.6366
15.418 -11.7391 12.6495
15.4313 -11.5673 12.663
15.4398 -11.3974 12.6768
15.4442 -11.2292 12.6906
15.4452 -11.0624 12.7042
15.4433 -10.8969 12.7177
15.4393 -10.7324 12.7309
15.4335 -10.5688 12.7438
15.4264 -10.4061 12.7567
15.4182 -10.244 12.7696
15.4091 -10.0826 12.7826
15.3992 -9.9219 12.796
15.3884 -9.76179 12.8097
15.3769 -9.60231 12.8239
15.3647 -9.44348 12.8386
15.3518 -9.2853 12.8538
15.3383 -9.12776 12.8694
15.3244 -8.97082 12.8854
15.3101 -8.81436 12.9016
15.2956 -8.65824 12.9184
15.2815 -8.50218 12.9358
15.2679 -8.34583 12.9544
15.2554 -8.18875 12.9744
15.2443 -8.03037 12.9962
15.2351 -7.87005 13.02
15.228 -7.70709 13.0456
15.2232 -7.5408 13.0726
15.2209 -7.37055 13.1001
15.2213 -7.1958 13.1272
15.2245 -7.01621 13.1527
15.2306 -6.83157 13.1758
15.2398 -6.64187 13.1958
15.2521 -6.4472 13.2125
15.2674 -6.2478 13.226
15.2859 -6.04401 13.2372
15.3075 -5.83627 13.2469
15.332 -5.62512 13.2563
15.3592 -5.41113 13.2664
15.3891 -5.19483 13.2781
15.4212 -4.97672 13.2919
15.4553 -4.75714 13.308
15.4909 -4.53631 13.3259
15.5279 -4.31435 13.3451
15.5657 -4.09131 13.3647
15.6041 -3.8672 13.3837
15.6429 -3.64212 13.4011
15.682 -3.4162 13.4163
15.7215 -3.18968 13.429
15.7614 -2.96293 13.4393
15.8017 -2.7364 13.4474
15.8424 -2.5107 13.454
15.8835 -2.2865 13.4598
15.925 -2.06455 13.4654
15.9668 -1.84563 13.4716
16.0085 -1.63046 13.4787
16.0499 -1.41973 13.4873
16.0907 -1.21402 13.4974
16.1304 -1.01381 13.5092
16.1689 -0.819478 13.5223
16.206 -0.631293 13.5365
16.2419 -0.449428 13.5512
16.2768 -0.273949 13.5659
16.3109 -0.104803 13.5801
16.3448 0.0582153 13.5931
16.3785 0.215489 13.6044
16.4122 0.367605 13.6137
16.4455 0.515352 13.6206
16.4781 0.659701 13.6251
16.5091 0.801771 13.6275
16.538 0.942773 13.6284
16.564 1.084 13.6286
16.5865 1.2268 13.6291
16.6052 1.37258 13.6306
16.6197 1.52283 13.6338
16.6298 1.67904 13.6386
16.6353 1.84268 13.6448
16.636 2.01509 13.6512
16.6319 2.19741 13.6568
16.6229 2.39057 13.6603
16.609 2.59531 13.661
16.5901 2.81214 13.6585
16.5663 3.0414 13.6529
16.5374 3.28324 13.6447
16.5032 3.53755 13.6349
16.4638 3.80399 13.6244
16.419 4.08201 13.6138
16.3691 4.37087 13.604
16.3142 4.66976 13.5951
16.2547 4.9778 13.5871
16.191 5.29414 13.58
16.1237 5.61795 13.5734
16.0535 5.9485 13.5668
15.9812 6.28512 13.5601
15.9075 6.62723 13.5529
15.8333 6.97429 13.5451
15.7594 7.3258 13.5367
15.6867 7.68129 13.5277
15.6159 8.04028 13.5179
15.5478 8.4023 13.5075
15.483 8.76686 13.4967
15.4223 9.13348 13.4854
15.3661 9.50162 13.474
15.315 9.87074 13.4624
15.2693 10.2403 13.4509
15.2293 10.6097 13.4399
15.1953 10.9783 13.4294
15.1673 11.3454 13.4197
15.1454 11.7106 13.4108
15.1296 12.0732 13.4029
15.1199 12.4325 13.3957
15.1163 12.7881 13.3892
15.1188 13.1395 13.3833
15.1276 13.4862 13.3778
15.1428 13.8279 13.3728
15.1649 14.1643 13.3683
15.1941 14.4952 13.3643
15.2308 14.8205 13.3607
15.2752 15.1401 13.3577
15.3273 15.4541 13.3551
15.3867 15.7626 13.3529
15.4532 16.0659 13.351
15.526 16.3643 13.3494
15.6047 16.658 13.3479
15.6885 16.9476 13.3465
15.7769 17.2333 13.345
15.8692 17.5155 13.3435
15.9651 17.7946 13.342
16.064 18.0709 13.3404
16.1654 18.3447 13.3389
16.269 18.6163 13.3375
16.3741 18.886 13.3363
16.4803 19.1541 13.3353
16.5869 19.4205 13.3347
16.6936 19.6855 13.3344
16.7997 19.9491 13.3347
16.9049 20.2112 13.3356
17.0088 20.4719 13.3372
17.1107 20.731 13.3396
17.2103 20.9883 13.3428
17.3068 21.2437 13.347
17.3996 21.4967 13.3521
17.488 21.7469 13.3582
17.5713 21.9935 13.3652
17.6488 22.236 13.3732
17.7201 22.4736 13.3821
17.7848 22.7057 13.3919
17.8429 22.9317 13.4022
17.8942 23.1513 13.4129
17.9389 23.3643 13.4233
17.9772 23.5706 13.4325
18.0094 23.7703 13.4396
18.0357 23.9638 13.4431
18.0564 24.1512 13.4415
18.0716 24.3331 13.4331
18.0815 24.5097 13.4162
18.0862 24.6812 13.3895
18.0858 24.8479 13.3519
18.0801 25.0095 13.3028
18.0692 25.1658 13.2424
18.0531 25.3165 13.1715
18.0318 25.4609 13.0915
18.0054 25.5983 13.0046
17.9741 25.728 12.913
17.938 25.8494 12.8192
17.8976 25.9619 12.7255
17.8531 26.0652 12.6338
17.8048 26.1592 12.5457
17.7531 26.2441 12.4622
17.6981 26.32 12.3839
17.6401 26.3874 12.3108
17.5792 26.4469 12.2428
17.5154 26.4989 12.1797
17.4489 26.544 12.121
17.3798 26.5828 12.0664
17.308 26.6157 12.0158
17.2336 26.6431 11.969
17.1566 26.6653 11.9258
17.0771 26.6827 11.8862
16.9952 26.6955 11.8501
16.9108 26.704 11.8173
16.8241 26.7085 11.7877
16.735 26.7094 11.761
16.6437 26.7071 11.7373
16.5501 26.7025 11.7162
16.4543 26.6963 11.6976
16.3562 26.6894 11.6815
16.2559 26.6831 11.6679
16.1532 26.6782 11.6565
16.0481 26.6759 11.6475
15.9404 26.6769 11.6408
15.83 26.6817 11.6362
15.7166 26.6905 11.6336
15.5997 26.7032 11.6328
15.479 26.719 11.6334
15.354 26.7374 11.6351
15.2243 26.7575 11.6375
15.0895 26.7783 11.6405
14.9492 26.7993 11.6437
14.8028 26.8198 11.6471
14.6499 26.8393 11.6507
14.4899 26.8573 11.6543
14.3222 26.8731 11.6579
14.1463 26.886 11.6613
13.9619 26.8949 11.6643
13.7688 26.8986 11.6666
13.5672 26.8956 11.668
13.3578 26.8846 11.6684
13.1417 26.8639 11.6678
12.9206 26.8321 11.6666
12.6968 26.788 11.6654
12.4725 26.7308 11.6648
12.2505 26.66 11.6656
12.0332 26.5754 11.6687
11.8228 26.4772 11.6744
11.6214 26.3655 11.6827
11.4303 26.2409 11.6929
11.251 26.1038 11.7035
11.0843 25.9549 11.7128
10.9305 25.7951 11.7189
10.7896 25.625 11.7202
10.6612 25.4455 11.716
10.545 25.257 11.7063
10.4401 25.0601 11.6921
10.3458 24.8552 11.6746
10.2611 24.643 11.6556
10.1851 24.4239 11.6365
10.1169 24.1984 11.6188
10.0557 23.967 11.6031
10.0006 23.7299 11.5899
9.95105 23.4876 11.5791
9.90656 23.2404 11.5701
9.86674 22.9884 11.5623
9.83128 22.732 11.5549
9.8 22.4713 11.5473
9.77287 22.2069 11.5388
9.74999 21.9389 11.5293
9.73161 21.668 11.5188
9.71809 21.3945 11.508
9.70982 21.119 11.4972
9.70718 20.8421 11.4871
9.71034 20.5645 11.478
9.71926 20.2866 11.4702
9.73356 20.0089 11.4635
9.75255 19.732 11.4576
9.77524 19.4563 11.452
9.8005 19.182 11.4462
9.82718 18.9096 11.4397
9.85421 18.6395 11.4322
9.88069 18.372 11.4236
9.90589 18.1074 11.4138
9.92928 17.846 11.4031
9.95049 17.5882 11.3919
9.96932 17.334 11.3807
9.98568 17.0838 11.37
9.99961 16.8374 11.3604
10.0112 16.5951 11.3527
10.0208 16.3566 11.3472
10.0285 16.1217 11.3443
10.0349 15.8902 11.3442
10.0404 15.6616 11.3471
10.0457 15.4353 11.3529
10.0516 15.2105 11.3615
10.0588 14.9864 11.3726
10.0679 14.762 11.3856
10.0796 14.5365 11.3999
10.0942 14.3088 11.4145
10.1122 14.0781 11.4282
10.1336 13.8436 11.4402
10.1585 13.6046 11.4494
10.1865 13.3607 11.4554
10.2175 13.1114 11.4582
10.2512 12.8566 11.4581
10.2871 12.5962 11.4554
10.3249 12.3305 11.4508
10.3642 12.0597 11.4449
10.4046 11.7843 11.438
10.4458 11.5048 11.4305
10.4875 11.2217 11.4227
10.5293 10.9358 11.4147
10.571 10.6477 11.4068
10.6122 10.3583 11.3993
10.6528 10.0682 11.3922
10.6929 9.77808 11.386
10.7325 9.48867 11.3809
10.7721 9.20047 11.3769
10.8121 8.91391 11.3743
10.8533 8.62934 11.3729
10.8963 8.34695 11.3728
10.942 8.06681 11.3736
10.9907 7.78889 11.3753
11.043 7.51301 11.3775
11.099 7.2389 11.3801
11.1583 6.96621 11.3828
11.2206 6.69454 11.3854
11.2853 6.42347 11.3877
11.3514 6.15262 11.3896
11.4179 5.88165 11.3909
11.4839 5.61031 11.3917
11.548 5.33842 11.3921
11.6092 5.06592 11.3921
11.6665 4.79285 11.3918
11.7189 4.5193 11.3913
11.7655 4.24543 11.3906
11.8059 3.97138 11.3897
11.8396 3.69728 11.3885
11.8665 3.42322 11.387
11.8865 3.14924 11.385
11.8998 2.87536 11.3824
11.9065 2.60154 11.3793
11.9069 2.32779 11.3756
11.9012 2.05409 11.3714
11.8897 1.78043 11.3669
11.8727 1.50683 11.3621
11.8503 1.23333 11.3573
11.823 0.959953 11.3524
11.791 0.686777 11.3476
11.7546 0.413853 11.3428
11.7141 0.141231 11.338
11.67 -0.131054 11.3332
11.6227 -0.402986 11.3282
11.5726 -0.674572 11.3231
11.5201 -0.945833 11.3178
11.4657 -1.2168 11.3126
11.4098 -1.48753 11.3076
11.3528 -1.75807 11.3028
11.2951 -2.02846 11.2985
11.237 -2.29874 11.2946
11.1789 -2.56894 11.2913
11.1208 -2.83909 11.2884
11.063 -3.1092 11.2861
11.0054 -3.37929 11.2845
10.9481 -3.64935 11.2838
10.891 -3.91938 11.2848
10.8342 -4.18938 11.2882
10.7775 -4.45935 11.2954
10.7211 -4.72927 11.3077
10.6648 -4.99917 11.3267
10.6086 -5.26902 11.354
10.5525 -5.53885 11.391
10.4965 -5.80864 11.4389
10.4407 -6.0784 11.4985
10.3849 -6.34811 11.5702
10.3292 -6.61778 11.654
10.2736 -6.88738 11.7493
10.218 -7.15694 11.8558
10.1626 -7.42646 11.9725
10.1075 -7.69598 12.0984
10.0526 -7.96555 12.2325
9.99831 -8.23524 12.3733
9.9447 -8.50514 12.5193
9.89209 -8.77535 12.6687
9.84076 -9.04598 12.8197
9.79099 -9.3172 12.9701
9.7431 -9.58922 13.1181
9.69739 -9.86227 13.2618
9.65415 -10.1366 13.3998
9.61367 -10.4126 13.531
9.57617 -10.6905 13.6546
9.54188 -10.9705 13.7701
9.51093 -11.253 13.8773
9.48344 -11.538 13.9761
9.45941 -11.8257 14.0666
9.43875 -12.1161 14.1489
9.42126 -12.4091 14.2235
9.40657 -12.7045 14.2905
9.39417 -13.0019 14.3508
9.38342 -13.301 14.4047
9.3735 -13.6013 14.453
9.3635 -13.9023 14.4965
9.35243 -14.2036 14.5356
9.33927 -14.5049 14.5711
9.32299 -14.8057 14.6033
9.30258 -15.1062 14.6327
9.27712 -15.4064 14.6593
9.24575 -15.7068 14.6834
9.20776 -16.0078 14.705
9.16258 -16.3105 14.724
9.10985 -16.616 14.7405
9.04948 -16.9255 14.7544
8.98169 -17.2406 14.7657
8.90709 -17.5631 14.7745
8.82678 -17.8945 14.781
8.74236 -18.2366 14.7852
8.656 -18.5907 14.7872
8.5704 -18.9577 14.7873
8.48864 -19.3381 14.7855
8.41402 -19.7314 14.782
8.34979 -20.1364 14.7769
8.29885 -20.5511 14.7706
8.26365 -20.973 14.7634
8.2461 -21.399 14.7558
8.2475 -21.8258 14.7481
8.26856 -22.25 14.7408
8.30937 -22.6679 14.7341
8.36935 -23.0759 14.7283
8.44734 -23.4708 14.7233
8.54161 -23.8495 14.7189
8.65004 -24.2099 14.7147
8.77029 -24.55 14.7104
8.89991 -24.8689 14.7054
9.03655 -25.166 14.6995
9.17808 -25.4414 14.6921
9.32264 -25.6957 14.6832
9.46878 -25.9297 14.6726
9.61539 -26.1446 14.6604
9.76171 -26.3414 14.6468
9.9073 -26.5216 14.6318
10.0519 -26.6862 14.6156
10.1956 -26.8363 14.5985
10.3382 -26.9728 14.5804
10.4799 -27.0967 14.5615
10.6207 -27.2085 14.5417
10.7605 -27.3087 14.5212
10.8994 -27.3979 14.5
11.0375 -27.4767 14.4784
11.1751 -27.5454 14.4567
11.3126 -27.6048 14.4351
11.4505 -27.6554 14.4139
11.5897 -27.698 14.3936
11.7308 -27.7334 14.3742
11.8746 -27.7622 14.3559
12.0222 -27.7851 14.3388
12.174 -27.8026 14.3229
12.3308 -27.8149 14.308
12.4932 -27.8222 14.2942
12.6613 -27.8244 14.2811
12.8353 -27.8211 14.2687
13.0151 -27.8121 14.2567
13.2001 -27.7968 14.2447
13.3899 -27.7747 14.2328
13.5834 -27.7453 14.2208
13.78 -27.7083 14.2087
13.9784 -27.6634 14.1967
14.1778 -27.6106 14.1852
14.3772 -27.5497 14.1747
14.5759 -27.4807 14.1657
14.7731 -27.4034 14.1589
14.9683 -27.3175 14.155
15.1609 -27.2226 14.1541
15.3508 -27.1183 14.1564
15.5376 -27.004 14.161
15.7213 -26.8791 14.1669
15.9018 -26.7431 14.1724
16.0793 -26.5957 14.1759
16.2539 -26.4365 14.1759
16.4261 -26.2655 14.1716
16.596 -26.0828 14.1628
16.7638 -25.8884 14.15
16.9298 -25.6828 14.1344
17.0943 -25.4665 14.1174
17.2577 -25.2405 14.1004
17.4205 -25.0056 14.0848
17.5835 -24.7628 14.0715
17.7475 -24.5132 14.0609
17.9135 -24.2577 14.053
18.0824 -23.9968 14.0476
18.2552 -23.7313 14.0442
18.4327 -23.4616 14.0419
18.6153 -23.1879 14.0402
18.8032 -22.9106 14.0381
18.996 -22.6301 14.0353
19.1929 -22.3469 14.0313
19.393 -22.0616 14.026
19.5951 -21.7751 14.0197
19.7984 -21.4883 14.0129
20.0019 -21.202 14.0065
20.2051 -20.9173 14.0011
20.4074 -20.6349 13.9978
20.6085 -20.3555 13.9971
20.8085 -20.0796 13.9996
21.0071 -19.8076 14.0054
21.2044 -19.5393 14.0146
21.4004 -19.2746 14.027
21.5952 -19.013 14.0424
21.7887 -18.7537 14.0606
21.981 -18.4958 14.0815
22.1717 -18.2386 14.105
22.3603 -17.9809 14.1306
22.5461 -17.7219 14.1579
22.7281 -17.461 14.186
22.9049 -17.1978 14.214
23.0751 -16.9321 14.2409
23.2374 -16.6638 14.2661
23.3902 -16.3932 14.2894
23.5324 -16.1202 14.3108
23.663 -15.8454 14.3307
23.7813 -15.5688 14.3497
23.8869 -15.2908 14.3682
23.9798 -15.0116 14.3865
24.06 -14.7313 14.4047
24.1279 -14.4503 14.4229
24.1839 -14.1685 14.4406
24.2287 -13.8863 14.4576
24.2629 -13.6039 14.4734
24.2873 -13.3216 14.4872
24.3029 -13.0401 14.4985
24.3106 -12.7597 14.5067
24.3115 -12.4811 14.5115
24.3069 -12.2048 14.5127
24.2981 -11.9317 14.5103
24.2865 -11.6625 14.5043
24.2734 -11.3982 14.4952
24.26 -11.1397 14.4834
24.2474 -10.8881 14.4698
24.2367 -10.6444 14.4556
24.2287 -10.4093 14.4424
24.2244 -10.1834 14.4317
24.2244 -9.96741 14.4247
24.2292 -9.76139 14.4224
24.2388 -9.56545 14.4248
24.2528 -9.37947 14.4314
24.2706 -9.20323 14.4413
24.2909 -9.03655 14.4529
24.3124 -8.87928 14.4648
24.3336 -8.73137 14.4756
24.3531 -8.59285 14.4844
24.3694 -8.46378 14.4908
24.3812 -8.3442 14.4949
24.3873 -8.23413 14.4973
24.3869 -8.13351 14.4985
24.379 -8.04223 14.4994
24.3632 -7.9601 14.5004
24.3393 -7.8868 14.5017
24.3074 -7.82185 14.5032
24.268 -7.7646 14.5049
24.2216 -7.71418 14.5062
24.1694 -7.66951 14.5069
24.1123 -7.62944 14.5068
24.0516 -7.59276 14.5057
23.9883 -7.55841 14.5034
23.9231 -7.52552 14.5001
23.8567 -7.49348 14.4957
23.7895 -7.46199 14.4903
23.7215 -7.43101 14.4841
23.6525 -7.40074 14.4772
23.5824 -7.37146 14.47
23.5108 -7.34352 14.4625
23.4376 -7.31722 14.4548
23.3624 -7.29281 14.4467
23.285 -7.27047 14.4381
23.2054 -7.25035 14.4286
23.1236 -7.23246 14.4178
23.0395 -7.21677 14.4056
22.9535 -7.20308 14.392
22.8658 -7.19115 14.377
22.7769 -7.18067 14.3608
22.6872 -7.1713 14.3438
22.5971 -7.16275 14.3259
22.5068 -7.15478 14.3075
22.4166 -7.14719 14.2885
22.3266 -7.13983 14.2694
22.2371 -7.13261 14.2505
22.148 -7.12548 14.2328
22.0594 -7.11844 14.2175
21.9711 -7.11151 14.2062
21.883 -7.1047 14.2009
21.795 -7.09802 14.2033
21.7069 -7.09142 14.2152
21.6186 -7.08481 14.2378
21.53 -7.07804 14.2717
21.4409 -7.07094 14.3166
21.3513 -7.06333 14.3716
21.2612 -7.05502 14.4351
21.1704 -7.04585 14.505
21.0788 -7.03566 14.5791
20.9865 -7.02433 14.655
20.8934 -7.01174 14.7307
20.7993 -6.99777 14.8046
20.7042 -6.98233 14.8752
20.6079 -6.96532 14.9417
20.5105 -6.94667 15.0038
20.4119 -6.9263 15.0614
20.3121 -6.90419 15.1149
20.2111 -6.8803 15.1651
20.109 -6.85465 15.2129
20.0057 -6.82728 15.2595
19.9014 -6.79827 15.3062
19.796 -6.76771 15.3542
19.6896 -6.73573 15.4047
19.5823 -6.70245 15.4585
19.474 -6.668 15.516
19.365 -6.63246 15.5772
19.2552 -6.59589 15.6417
19.1447 -6.55835 15.7086
19.0337 -6.51985 15.7768
18.9223 -6.48042 15.845
18.8105 -6.44005 15.9121
18.6986 -6.39876 15.977
18.5865 -6.35653 16.0389
18.4745 -6.31335 16.0976
18.3628 -6.26916 16.1526
18.2515 -6.22389 16.2042
18.1409 -6.17745 16.2526
18.0311 -6.12974 16.2978
17.9221 -6.08066 16.3404
17.8143 -6.03014 16.3803
17.7075 -5.97812 16.4179
17.6019 -5.92456 16.4533
17.4973 -5.86948 16.4866
17.3936 -5.81298 16.518
17.2905 -5.75521 16.5474
17.1877 -5.69643 16.5752
17.0847 -5.63698 16.6013
16.9811 -5.57722 16.626
16.8763 -5.51754 16.6494
16.77 -5.45827 16.6715
16.6617 -5.39965 16.6926
16.5514 -5.34175 16.7126
16.4389 -5.28443 16.7319
16.3246 -5.22734 16.7507
16.2088 -5.16987 16.7695
16.0921 -5.11113 16.7887
15.975 -5.05001 16.8092
15.8581 -4.98517 16.8317
15.7422 -4.9151 16.8569
15.6275 -4.83817 16.8854
15.5142 -4.75268 16.9174
15.4024 -4.65696 16.952
15.2917 -4.54946 16.9881
15.1818 -4.42886 17.0236
15.0727 -4.29415 17.0561
14.9643 -4.14463 17.0834
14.8568 -3.97996 17.1039
14.7502 -3.80003 17.1167
14.6446 -3.60502 17.1219
14.54 -3.39535 17.1203
14.4362 -3.17177 17.1134
14.3332 -2.93533 17.1032
14.2308 -2.68741 17.0914
14.1289 -2.42963 17.0799
14.0275 -2.16378 17.0697
13.9261 -1.89165 17.0616
13.8245 -1.61496 17.0558
13.7225 -1.33525 17.0523
13.62 -1.05382 17.0506
13.5169 -0.771749 17.0503
13.4136 -0.489821 17.0512
13.3107 -0.208619 17.0529
13.2088 0.0714689 17.0551
13.109 0.350185 17.0579
13.0123 0.627368 17.0614
12.9195 0.902922 17.0657
12.8317 1.17681 17.071
12.7492 1.44905 17.0772
12.6724 1.71973 17.0843
12.6013 1.98901 17.0919
12.5357 2.25708 17.0996
12.4753 2.52417 17.1068
12.4198 2.79054 17.1131
12.3688 3.05643 17.118
12.3221 3.32206 17.1216
12.2793 3.58762 17.1239
12.2403 3.85324 17.1252
12.2048 4.11901 17.1256
12.1728 4.38499 17.1254
12.1439 4.65119 17.1246
12.1181 4.91762 17.1231
12.0951 5.18428 17.1211
12.0749 5.45116 17.1183
12.0571 5.71824 17.1147
12.0415 5.9855 17.1102
12.0279 6.25291 17.1048
12.0161 6.52041 17.0986
12.0056 6.78793 17.0917
11.9962 7.05539 17.0842
11.9875 7.32264 17.0764
11.9792 7.58953 17.0684
11.971 7.85587 17.0603
11.9625 8.12145 17.0525
11.9534 8.38605 17.0448
11.9435 8.64948 17.0376
11.9327 8.9115 17.0309
11.9206 9.17194 17.0247
11.9073 9.43057 17.0192
11.8926 9.6872 17.0142
11.8765 9.94162 17.0096
11.8593 10.1936 17.0054
11.8411 10.4427 17.0015
11.8225 10.6888 16.9975
11.8043 10.9315 16.9936
11.7871 11.1703 16.9897
11.7719 11.4051 16.9858
11.7598 11.6354 16.9819
11.7515 11.8614 16.9782
11.7477 12.0829 16.9748
11.7491 12.3005 16.9717
11.756 12.5146 16.9688
11.7683 12.7259 16.9662
11.7859 12.9355 16.9635
11.8081 13.1444 16.9605
11.8344 13.3534 16.957
11.8637 13.5635 16.9524
11.8953 13.7754 16.9466
11.9281 13.9897 16.9394
11.9612 14.2067 16.9308
11.9936 14.4264 16.9211
12.0245 14.6488 16.9108
12.0526 14.8735 16.9007
12.0768 15.0999 16.8916
12.0956 15.3271 16.884
12.1078 15.5536 16.8787
12.1118 15.7779 16.8756
12.1065 15.9982 16.8747
12.0912 16.2125 16.8751
12.0654 16.419 16.8761
12.029 16.6161 16.8765
11.9823 16.8027 16.8754
11.9256 16.9781 16.8723
11.8593 17.1419 16.8669
11.7839 17.2941 16.8592
11.6999 17.4347 16.8497
11.6079 17.564 16.8387
11.5084 17.6823 16.8271
11.402 17.7898 16.8154
11.2892 17.8869 16.8041
11.1705 17.9739 16.7938
11.0464 18.0511 16.7847
10.9173 18.1189 16.7772
10.7834 18.1777 16.7713
10.6451 18.2278 16.7671
10.5026 18.2695 16.7644
10.356 18.3033 16.7632
10.2055 18.3295 16.7632
10.0514 18.3486 16.7642
9.89363 18.3609 16.7659
9.73254 18.3669 16.7682
9.56826 18.367 16.7709
9.40099 18.3616 16.7739
9.23097 18.3512 16.7771
9.05849 18.3362 16.7806
8.88389 18.3172 16.7845
8.70759 18.295 16.7889
8.53006 18.2702 16.7941
8.35182 18.2439 16.8001
8.1734 18.217 16.8073
7.99533 18.1905 16.8158
7.81805 18.1653 16.8256
7.64188 18.1421 16.8368
7.46694 18.121 16.8492
7.29317 18.1022 16.8625
7.12034 18.085 16.8765
6.94813 18.0689 16.8908
6.77616 18.0526 16.9051
6.60414 18.0352 16.919
6.43186 18.0153 16.9325
6.25923 17.9921 16.9455
6.08628 17.9647 16.9579
5.91312 17.9326 16.9699
5.73991 17.8952 16.9814
5.56685 17.8525 16.9926
5.39414 17.8043 17.0034
5.22194 17.7505 17.014
5.05043 17.6912 17.0242
4.87973 17.6262 17.0341
4.70996 17.5555 17.0436
4.54122 17.4789 17.0527
4.37356 17.3962 17.0614
4.20702 17.3073 17.0698
4.04164 17.2119 17.0778
3.87745 17.11 17.0856
3.71449 17.0016 17.0934
3.55282 16.8867 17.1011
3.39248 16.7656 17.1089
3.23355 16.6387 17.1169
3.07607 16.5066 17.1251
2.92006 16.3699 17.1339
2.76549 16.2298 17.1432
2.61231 16.087 17.1532
2.46035 15.9427 17.1644
2.30935 15.7977 17.1768
2.1589 15.653 17.1907
2.00845 15.5092 17.2062
1.85728 15.3669 17.2231
1.70455 15.2261 17.2413
1.54937 15.0866 17.2603
1.39088 14.948 17.2795
1.22833 14.8094 17.2984
1.06118 14.6696 17.3164
0.889167 14.5274 17.3331
0.712288 14.3816 17.3482
0.530829 14.2309 17.3616
0.345309 14.0744 17.3734
0.156438 13.9114 17.3839
-0.0349298 13.7415 17.3933
-0.227857 13.5646 17.402
-0.421389 13.3808 17.4104
-0.614621 13.1907 17.4186
-0.806754 12.9949 17.4269
-0.997125 12.7941 17.4355
-1.1852 12.5893 17.4442
-1.37051 12.3811 17.4533
-1.55265 12.1704 17.4626
-1.73119 11.9577 17.4722
-1.90564 11.7434 17.4818
-2.07551 11.5279 17.4916
-2.24035 11.3113 17.5014
-2.39981 11.0936 17.5111
-2.55374 10.875 17.5208
-2.70225 10.6555 17.5303
-2.84575 10.4356 17.5396
-2.98495 10.2154 17.5488
-3.12075 9.99565 17.5579
-3.25425 9.77701 17.5671
-3.38656 9.56033 17.5765
-3.51877 9.34652 17.5862
-3.65183 9.13648 17.5963
-3.78652 8.93102 17.6068
-3.92342 8.73081 17.6177
-4.06296 8.53639 17.6288
-4.20546 8.34811 17.6399
-4.35118 8.1662 17.6506
-4.50036 7.9908 17.6608
-4.65328 7.822 17.6702
-4.81021 7.65985 17.6788
-4.97142 7.50435 17.6863
-5.13715 7.35544 17.6928
-5.30759 7.21302 17.6979
-5.48291 7.07684 17.7018
-5.6632 6.94657 17.7042
-5.84852 6.82176 17.705
-6.03884 6.70186 17.7043
-6.23411 6.58626 17.702
-6.43426 6.4743 17.6982
-6.6392 6.36539 17.693
-6.84886 6.25898 17.6864
-7.06322 6.15468 17.6788
-7.28231 6.05226 17.6703
-7.50625 5.95166 17.6612
-7.73527 5.85297 17.6516
-7.96963 5.75639 17.6419
-8.20966 5.66209 17.6322
-8.45567 5.57015 17.6229
-8.7079 5.48044 17.6141
-8.96648 5.39254 17.606
-9.23136 5.30575 17.5986
-9.50224 5.21906 17.5918
-9.77854 5.13124 17.5856
-10.0594 5.04097 17.5797
-10.3438 4.94699 17.5741
-10.6304 4.84822 17.5687
-10.918 4.74386 17.5635
-11.2055 4.63347 17.5586
-11.4917 4.51693 17.5544
-11.776 4.39442 17.5509
-12.0578 4.26635 17.5484
-12.337 4.13332 17.5472
-12.6136 3.99597 17.5472
-12.8881 3.85495 17.5485
-13.161 3.71083 17.551
-13.433 3.56406 17.5545
-13.7047 3.41489 17.5587
-13.9768 3.2634 17.5633
-14.2499 3.10941 17.568
-14.5244 2.95251 17.5724
-14.8003 2.79205 17.5762
-15.0773 2.62723 17.5793
-15.3547 2.45716 17.5815
-15.6311 2.28102 17.5829
-15.9049 2.09815 17.5838
-16.1738 1.90823 17.5847
-16.4357 1.71127 17.5862
-16.6883 1.50764 17.5889
-16.9293 1.29798 17.5935
-17.1568 1.08311 17.6003
-17.3694 0.863923 17.6094
-17.5658 0.641335 17.6204
-17.7451 0.416238 17.6323
-17.9068 0.189464 17.6442
-18.0507 -0.03825 17.6552
-18.1769 -0.266312 17.6644
-18.2857 -0.494316 17.6716
-18.3776 -0.722057 17.6769
-18.4529 -0.949516 17.6808
-18.5126 -1.17683 17.6839
-18.5573 -1.40422 17.687
-18.5879 -1.63199 17.6906
-18.6049 -1.86042 17.6947
-18.6091 -2.08976 17.699
-18.601 -2.32019 17.703
-18.5813 -2.55189 17.7058
-18.5503 -2.78504 17.7068
-18.5087 -3.01979 17.7052
-18.4572 -3.25623 17.701
-18.3962 -3.49437 17.6942
-18.3266 -3.73414 17.6852
-18.249 -3.9754 17.6747
-18.1644 -4.21799 17.6633
-18.0737 -4.46174 17.652
-17.9781 -4.70652 17.6413
-17.8788 -4.9523 17.6318
-17.777 -5.19916 17.624
-17.6742 -5.44723 17.6181
-17.5714 -5.69672 17.6143
-17.4698 -5.94775 17.6126
-17.37 -6.20038 17.6129
-17.2725 -6.45445 17.6152
-17.1772 -6.70963 17.6192
-17.0838 -6.96542 17.6247
-16.9916 -7.22117 17.6314
-16.9 -7.47615 17.6389
-16.8079 -7.72968 17.647
-16.7149 -7.98114 17.6551
-16.6201 -8.23007 17.6629
-16.5231 -8.47615 17.6702
-16.4236 -8.7192 17.6767
-16.3213 -8.95915 17.6824
-16.216 -9.196 17.6873
-16.1079 -9.42982 17.6915
-15.9969 -9.6607 17.6952
-15.8832 -9.88874 17.6984
-15.7669 -10.114 17.7014
-15.648 -10.3366 17.704
-15.5268 -10.5566 17.7063
-15.4032 -10.7741 17.7082
-15.2775 -10.9892 17.7098
-15.1497 -11.2017 17.7109
-15.02 -11.4119 17.7115
-14.8885 -11.6197 17.7116
-14.7553 -11.825 17.711
-14.6205 -12.0278 17.7096
-14.4842 -12.2282 17.7074
-14.3464 -12.4261 17.7043
-14.2071 -12.6216 17.7004
-14.0663 -12.8146 17.6958
-13.9241 -13.0053 17.6908
-13.7804 -13.1936 17.6856
-13.6352 -13.3795 17.6803
-13.4884 -13.5628 17.6751
-13.3399 -13.7436 17.67
-13.1898 -13.9217 17.6651
-13.0381 -14.0971 17.6602
-12.885 -14.2698 17.6555
-12.7307 -14.4401 17.6509
-12.5752 -14.608 17.6464
-12.4189 -14.7738 17.6422
-12.2618 -14.9376 17.6382
-12.1042 -15.0996 17.6344
-11.9459 -15.2597 17.6309
-11.787 -15.4177 17.6277
-11.6274 -15.5734 17.6246
-11.4669 -15.7263 17.6219
-11.3055 -15.8761 17.6195
-11.143 -16.0226 17.6177
-10.9794 -16.1653 17.6167
-10.8146 -16.3041 17.6166
-10.6487 -16.4388 17.6177
-10.4817 -16.5694 17.62
-10.3137 -16.6959 17.6236
-10.1446 -16.8185 17.6284
-9.97459 -16.9375 17.6342
-9.80366 -17.053 17.6411
-9.63187 -17.1656 17.6487
-9.45926 -17.2756 17.6569
-9.28587 -17.3834 17.6656
-9.11174 -17.4897 17.6747
-8.9369 -17.595 17.6842
-8.76135 -17.6998 17.6939
-8.58507 -17.8046 17.704
-8.40802 -17.91 17.7143
-8.23013 -18.0163 17.7249
-8.05129 -18.1238 17.7358
-7.8714 -18.2327 17.7471
-7.69031 -18.3434 17.7588
-7.50787 -18.4559 17.7709
-7.32393 -18.5703 17.7833
-7.13837 -18.6864 17.7958
-6.9511 -18.8043 17.8085
-6.76208 -18.9239 17.8211
-6.57134 -19.0451 17.8335
-6.379 -19.1679 17.8456
-6.18526 -19.2923 17.8572
-5.99041 -19.4187 17.8681
-5.79485 -19.5473 17.8783
-5.59902 -19.6787 17.8876
-5.40339 -19.8133 17.8962
-5.20836 -19.9519 17.904
-5.01425 -20.095 17.9113
-4.82118 -20.2432 17.9183
-4.62902 -20.3968 17.9252
-4.43737 -20.5561 17.9326
-4.24553 -20.721 17.9404
-4.05259 -20.8908 17.949
-3.85743 -21.0646 17.9584
-3.65899 -21.241 17.9684
-3.4563 -21.418 17.9789
-3.24874 -21.5937 17.9896
-3.03607 -21.766 18.0002
-2.81849 -21.9328 18.0104
-2.59651 -22.0927 18.0202
-2.37088 -22.2446 18.0295
-2.14239 -22.3877 18.0384
-1.91176 -22.5218 18.0472
-1.6795 -22.6469 18.0562
-1.44596 -22.7631 18.0657
-1.21126 -22.8703 18.0763
-0.975424 -22.9685 18.0883
-0.738428 -23.0569 18.1024
-0.500261 -23.1349 18.1186
-0.260984 -23.2013 18.1369
-0.020728 -23.2549 18.157
0.220345 -23.2946 18.1779
0.462118 -23.3195 18.1983
0.704615 -23.329 18.2166
0.948076 -23.3232 18.2314
1.19298 -23.3022 18.2418
1.44001 -23.2668 18.2472
1.68999 -23.2181 18.2476
1.9438 -23.1572 18.2435
2.20234 -23.0854 18.2357
2.46653 -23.0044 18.2254
2.73727 -22.9157 18.2135
3.01545 -22.8208 18.2011
3.30194 -22.721 18.1888
3.59753 -22.6176 18.1774
3.90286 -22.5114 18.1672
4.2184 -22.4025 18.1585
4.54424 -22.2909 18.1517
4.88005 -22.1758 18.1471
5.22491 -22.056 18.1454
5.57729 -21.9296 18.147
5.93501 -21.7948 18.1524
6.29537 -21.6496 18.162
6.65529 -21.492 18.1756
7.01148 -21.3206 18.1927
7.3606 -21.1344 18.2123
7.6995 -20.933 18.2332
8.02537 -20.7164 18.254
8.3359 -20.4856 18.2731
8.62934 -20.2418 18.2894
8.90451 -19.9865 18.3019
9.16075 -19.7216 18.3103
9.39785 -19.4489 18.3146
9.61607 -19.1707 18.3154
9.81604 -18.8888 18.3134
9.99878 -18.6052 18.3096
10.1655 -18.3215 18.3048
10.3177 -18.0392 18.3
10.4567 -17.7596 18.2954
10.5838 -17.4836 18.2915
10.7001 -17.2121 18.2883
10.8066 -16.9457 18.2857
10.9039 -16.6847 18.2837
10.9924 -16.4294 18.2821
11.0727 -16.1795 18.2808
11.1449 -15.9346 18.2801
11.2094 -15.6938 18.28
11.2665 -15.4558 18.2808
11.3168 -15.2192 18.2828
11.3608 -14.9823 18.2862
11.3991 -14.7435 18.2907
11.4323 -14.5015 18.2958
11.4609 -14.255 18.3005
11.4854 -14.0034 18.3037
11.5062 -13.7462 18.3043
11.5236 -13.4829 18.3016
11.538 -13.2135 18.2957
11.5497 -12.9383 18.2871
11.5589 -12.6574 18.2766
11.5657 -12.3716 18.2651
11.5705 -12.0816 18.2536
11.5734 -11.7881 18.2426
11.5747 -11.4919 18.2327
11.5749 -11.1936 18.2242
11.5746 -10.8936 18.2173
11.5747 -10.5921 18.212
11.5765 -10.2891 18.2083
11.5811 -9.98438 18.2061
11.59 -9.67773 18.2052
11.6042 -9.36887 18.2053
11.6246 -9.05758 18.2063
11.6517 -8.7437 18.2077
11.6857 -8.42715 18.2094
11.7264 -8.10794 18.2111
11.7738 -7.78612 18.2128
11.8278 -7.46182 18.2147
11.888 -7.13523 18.217
11.9542 -6.80668 18.2202
12.0258 -6.47659 18.2242
12.1024 -6.14542 18.2294
12.1832 -5.81368 18.2357
12.2678 -5.48185 18.243
12.3556 -5.15037 18.2511
12.4465 -4.81959 18.2597
12.5401 -4.48976 18.2685
12.6365 -4.16105 18.2774
12.7358 -3.83354 18.2862
12.8381 -3.50721 18.2947
12.9437 -3.18206 18.303
13.0525 -2.85803 18.3111
13.1647 -2.53511 18.3189
13.2801 -2.21333 18.3265
13.3985 -1.89278 18.3339
13.5195 -1.57362 18.341
13.6425 -1.25607 18.3479
13.7671 -0.940422 18.3545
13.8924 -0.626987 18.3612
14.0181 -0.316078 18.3679
14.1434 -0.00798929 18.375
14.2678 0.297005 18.3828
14.3908 0.598642 18.3913
14.5117 0.896667 18.4007
14.6298 1.19083 18.4109
14.7443 1.48087 18.4216
14.8545 1.76654 18.4325
14.9597 2.0476 18.4435
15.0593 2.32381 18.4542
15.1527 2.59499 18.4646
15.24 2.86099 18.4749
15.321 3.12168 18.4855
15.3961 3.37693 18.4966
15.4654 3.62658 18.5087
15.5291 3.87044 18.522
15.5875 4.1083 18.5364
15.641 4.34002 18.5518
15.6901 4.56558 18.5682
15.7355 4.78508 18.5852
15.7778 4.99878 18.603
15.8178 5.2071 18.6214
15.8562 5.41056 18.6405
15.8935 5.60978 18.6606
15.9302 5.80539 18.6817
15.9664 5.99806 18.704
16.0021 6.18844 18.7274
16.0371 6.37716 18.7515
16.071 6.56476 18.7758
16.1034 6.75171 18.7995
16.1339 6.93841 18.8219
16.1621 7.12519 18.8424
16.1877 7.31236 18.8608
16.2109 7.5002 18.8773
16.2317 7.68896 18.8926
16.2506 7.87885 18.9072
16.268 8.07008 18.9217
16.285 8.26287 18.9366
16.3024 8.45749 18.9521
16.3214 8.65427 18.9678
16.343 8.85364 18.9835
16.3682 9.05606 18.9986
16.3977 9.26206 19.0124
16.4318 9.47217 19.0242
16.4702 9.68689 19.0336
16.5125 9.9066 19.0404
16.5577 10.1315 19.0443
16.6044 10.3617 19.0458
16.6511 10.5968 19.0452
16.6964 10.8366 19.0432
16.7387 11.0804 19.0406
16.7768 11.3277 19.0379
16.8097 11.578 19.0356
16.8364 11.8308 19.034
16.8565 12.0855 19.0328
16.8694 12.3418 19.0315
16.8748 12.5992 19.0294
16.8725 12.8573 19.026
16.8626 13.1157 19.0206
16.8452 13.3742 19.0132
16.8206 13.6325 19.004
16.7894 13.8905 18.9933
16.7523 14.1482 18.9815
16.71 14.4058 18.9691
16.6635 14.6635 18.9565
16.6139 14.9217 18.9441
16.562 15.181 18.9322
16.5088 15.4423 18.9208
16.4548 15.7061 18.9102
16.4006 15.9734 18.9005
16.3461 16.2446 18.8916
16.291 16.5202 18.8836
16.2348 16.8004 18.8763
16.1765 17.085 18.8699
16.115 17.3733 18.8641
16.0492 17.6645 18.8589
15.978 17.9574 18.8543
15.9006 18.2506 18.8502
15.8163 18.5424 18.8467
15.7248 18.8314 18.8439
15.6258 19.1161 18.8418
15.5197 19.395 18.8409
15.4067 19.6669 18.8412
15.2873 19.931 18.843
15.1618 20.1865 18.8466
15.0306 20.4328 18.8522
14.8941 20.6698 18.8597
14.7523 20.8974 18.8689
14.6056 21.1157 18.8794
14.454 21.3247 18.8903
14.2977 21.5249 18.9008
14.1367 21.7163 18.91
13.9714 21.8995 18.9174
13.8017 22.0746 18.9228
13.628 22.242 18.9263
13.4506 22.402 18.9286
13.2697 22.5548 18.9302
13.0858 22.7008 18.9318
12.8994 22.8402 18.9338
12.7111 22.9732 18.9367
12.5211 23.1001 18.9405
12.3301 23.2213 18.9452
12.1382 23.3369 18.9509
11.9459 23.4476 18.9574
11.7534 23.5538 18.9645
11.5607 23.6564 18.9721
11.3681 23.7562 18.9802
11.1754 23.8543 18.9885
10.9827 23.952 18.9971
10.7898 24.0504 19.0059
10.5963 24.1507 19.0149
10.4018 24.254 19.0239
10.2056 24.3613 19.0329
10.0072 24.473 19.0419
9.80574 24.5895 19.0507
9.60054 24.7106 19.0593
9.39097 24.8355 19.0674
9.17658 24.9633 19.075
8.95712 25.0927 19.0818
8.73259 25.2219 19.0877
8.50327 25.3494 19.0926
8.26964 25.4734 19.0964
8.03241 25.5924 19.0989
7.79246 25.7049 19.1002
7.55079 25.8097 19.1001
7.3085 25.906 19.0986
7.06673 25.9931 19.0956
6.82657 26.0708 19.0913
6.58903 26.1392 19.0856
6.35496 26.1984 19.0788
6.125 26.2488 19.0712
5.89958 26.291 19.063
5.67894 26.3253 19.0548
5.46315 26.3522 19.0467
5.25213 26.372 19.0391
5.04568 26.3849 19.0321
