ply
format ascii 1.0
element vertex 1585
property float x
property float y
property float z
element face 0
property list uchar int vertex_index
end_header
1.39186 -4.22036 0.160542
1.42208 -4.26649 0.1729
1.42208 -4.26649 0.1729
1.42208 -4.26649 0.1729
1.40693 -4.28858 0.172853
1.40693 -4.28858 0.172853
1.39208 -4.26878 0.172218
1.39208 -4.26878 0.172218
1.40693 -4.28858 0.172853
1.40681 -4.29194 0.184758
1.40693 -4.28858 0.172853
1.40706 -4.28518 0.160956
1.40693 -4.28858 0.172853
1.40693 -4.28858 0.172853
1.40693 -4.28858 0.172853
1.4215 -4.26712 0.172568
1.40665 -4.24734 0.171933
1.40665 -4.24734 0.171933
1.40665 -4.24734 0.171933
1.40665 -4.24734 0.171933
1.39208 -4.26878 0.172218
1.39208 -4.26878 0.172218
1.39208 -4.26878 0.172218
1.39208 -4.26878 0.172218
1.39208 -4.26878 0.172218
1.39208 -4.26878 0.172218
1.39208 -4.26878 0.172218
1.39208 -4.26878 0.172218
1.39208 -4.26878 0.172218
1.40665 -4.24734 0.171933
1.39208 -4.26878 0.172218
1.40665 -4.24734 0.171933
1.40665 -4.24734 0.171933
1.4215 -4.26712 0.172568
1.40693 -4.28858 0.172853
1.40693 -4.28858 0.172853
1.40693 -4.28858 0.172853
1.39208 -4.26878 0.172218
1.40693 -4.28858 0.172853
1.40693 -4.28858 0.172853
1.40665 -4.29222 0.18473
1.40665 -4.29222 0.18473
1.40665 -4.29222 0.18473
1.40665 -4.29222 0.18473
1.40665 -4.29222 0.18473
1.40693 -4.28858 0.172853
1.40693 -4.28858 0.172853
1.40693 -4.28858 0.172853
1.40693 -4.28858 0.172853
1.40693 -4.28858 0.172853
1.40693 -4.28858 0.172853
1.40693 -4.28858 0.172853
1.40693 -4.28858 0.172853
1.40693 -4.28858 0.172853
1.40693 -4.28858 0.172853
1.40693 -4.28858 0.172853
1.40693 -4.28858 0.172853
1.39208 -4.26878 0.172218
1.39208 -4.26878 0.172218
1.39196 -4.26508 0.184625
1.39208 -4.26878 0.172218
1.39208 -4.26878 0.172218
1.39222 -4.26539 0.16032
1.39222 -4.26539 0.16032
1.39222 -4.26539 0.16032
1.39222 -4.26539 0.16032
1.39222 -4.26539 0.16032
1.39222 -4.26539 0.16032
1.39222 -4.26539 0.16032
1.40706 -4.28518 0.160956
1.37693 -4.2909 0.172172
1.37693 -4.2909 0.172172
1.37693 -4.2909 0.172172
1.37693 -4.2909 0.172172
1.37693 -4.2909 0.172172
1.37693 -4.2909 0.172172
1.3915 -4.26945 0.171888
1.3915 -4.26945 0.171888
1.3915 -4.26945 0.171888
1.3915 -4.26945 0.171888
1.4068 -4.28488 0.185256
1.4068 -4.28488 0.185256
1.4068 -4.28488 0.185256
1.4068 -4.28488 0.185256
1.4068 -4.28488 0.185256
1.4068 -4.28488 0.185256
1.4068 -4.28488 0.185256
1.39196 -4.26508 0.184625
1.39196 -4.26508 0.184625
1.39208 -4.26878 0.172218
1.3913 -4.27117 0.159876
1.3913 -4.27117 0.159876
1.3913 -4.27117 0.159876
1.3913 -4.27117 0.159876
1.3913 -4.27117 0.159876
1.3913 -4.27117 0.159876
1.3913 -4.27117 0.159876
1.40614 -4.29097 0.160514
1.40614 -4.29097 0.160514
1.40614 -4.29097 0.160514
1.39196 -4.26508 0.184625
1.39196 -4.26508 0.184625
1.39196 -4.26508 0.184625
1.39196 -4.26508 0.184625
1.39196 -4.26508 0.184625
1.39196 -4.26508 0.184625
1.39196 -4.26508 0.184625
1.39196 -4.26508 0.184625
1.39196 -4.26508 0.184625
1.39196 -4.26508 0.184625
1.40653 -4.24364 0.184342
1.40653 -4.24364 0.184342
1.40653 -4.24364 0.184342
1.40653 -4.24364 0.184342
1.39196 -4.26508 0.184625
1.39196 -4.26508 0.184625
1.39196 -4.26508 0.184625
1.39196 -4.26508 0.184625
1.39196 -4.26508 0.184625
1.39196 -4.26508 0.184625
1.37654 -4.2979 0.195957
1.37654 -4.2979 0.195957
1.37654 -4.2979 0.195957
1.37654 -4.2979 0.195957
1.37654 -4.2979 0.195957
1.37654 -4.2979 0.195957
1.37654 -4.2979 0.195957
1.37575 -4.30028 0.183624
1.37654 -4.2979 0.195957
1.37654 -4.2979 0.195957
1.4215 -4.26712 0.172568
1.40636 -4.28924 0.172524
1.40636 -4.28924 0.172524
1.40636 -4.28924 0.172524
1.40636 -4.28924 0.172524
1.40636 -4.28924 0.172524
1.39179 -4.3107 0.172808
1.39179 -4.3107 0.172808
1.40693 -4.28858 0.172853
1.40693 -4.28858 0.172853
1.40653 -4.24364 0.184342
1.40653 -4.24364 0.184342
1.40653 -4.24364 0.184342
1.40653 -4.24364 0.184342
1.40653 -4.24364 0.184342
1.40653 -4.24364 0.184342
1.40653 -4.24364 0.184342
1.39196 -4.26508 0.184625
1.3768 -4.28721 0.18458
1.39208 -4.26878 0.172218
1.40712 -4.25004 0.184164
1.37693 -4.2909 0.172172
1.36141 -4.26801 0.17234
1.40646 -4.24908 0.159918
1.40646 -4.24908 0.159918
1.42208 -4.26649 0.1729
1.40712 -4.25004 0.184164
1.42182 -4.22524 0.171979
1.39112 -4.22443 0.172101
1.39112 -4.22443 0.172101
1.3916 -4.22711 0.184329
1.3916 -4.22711 0.184329
1.3916 -4.22711 0.184329
1.3916 -4.22711 0.184329
1.40712 -4.25004 0.184164
1.40712 -4.25004 0.184164
1.40697 -4.25032 0.184134
1.40697 -4.25032 0.184134
1.39181 -4.27241 0.18409
1.39181 -4.27241 0.18409
1.39103 -4.2748 0.17175
1.39103 -4.2748 0.17175
1.37551 -4.2519 0.171911
1.37629 -4.2495 0.184251
1.37551 -4.2519 0.171911
1.37551 -4.2519 0.171911
1.37551 -4.2519 0.171911
1.3913 -4.27117 0.159876
1.39208 -4.26878 0.172218
1.39208 -4.26878 0.172218
1.39196 -4.27213 0.184123
1.39196 -4.27213 0.184123
1.39196 -4.27213 0.184123
1.39196 -4.27213 0.184123
1.40712 -4.25004 0.184164
1.39196 -4.27213 0.184123
1.40712 -4.25004 0.184164
1.42169 -4.22859 0.183873
1.39169 -4.27578 0.195995
1.40685 -4.25369 0.196035
1.39034 -4.22682 0.159753
1.40628 -4.20231 0.172147
1.39112 -4.22443 0.172101
1.39172 -4.22376 0.172432
1.39172 -4.22376 0.172432
1.37656 -4.24587 0.172385
1.40725 -4.24669 0.172265
1.39181 -4.27241 0.18409
1.37629 -4.2495 0.184251
1.39145 -4.22739 0.184296
1.40712 -4.25004 0.184164
1.40712 -4.25004 0.184164
1.40712 -4.25004 0.184164
1.40712 -4.25004 0.184164
1.40712 -4.25004 0.184164
1.40712 -4.25004 0.184164
1.40712 -4.25004 0.184164
1.42229 -4.22798 0.184207
1.40712 -4.25004 0.184164
1.40685 -4.25369 0.196035
1.37617 -4.25287 0.196155
1.37629 -4.2495 0.184251
1.37617 -4.25287 0.196155
1.39181 -4.27241 0.18409
1.36114 -4.27164 0.184208
1.37617 -4.25287 0.196155
1.39169 -4.27578 0.195995
1.37654 -4.2979 0.195957
1.37654 -4.2979 0.195957
1.37654 -4.2979 0.195957
1.39181 -4.27241 0.18409
1.40697 -4.25032 0.184134
1.39169 -4.27578 0.195995
1.39169 -4.27578 0.195995
1.40697 -4.25032 0.184134
1.37617 -4.25287 0.196155
1.39145 -4.22739 0.184296
1.40697 -4.25032 0.184134
1.39181 -4.27241 0.18409
1.39145 -4.22739 0.184296
1.40725 -4.24669 0.172265
1.4222 -4.21724 0.197135
1.40819 -4.18954 0.222046
1.39352 -4.18222 0.221132
1.42255 -4.22837 0.159914
1.42255 -4.22837 0.159914
1.42242 -4.22462 0.172313
1.4223 -4.22092 0.18472
1.4222 -4.21724 0.197135
1.39349 -4.22712 0.245178
1.40725 -4.24669 0.172265
1.40685 -4.25369 0.196035
1.42012 -4.24987 0.255215
1.42055 -4.24298 0.231407
1.42143 -4.23224 0.195744
1.40685 -4.25369 0.196035
1.40685 -4.25369 0.196035
1.40685 -4.25369 0.196035
1.39011 -4.24503 0.243738
1.42023 -4.24649 0.243311
1.3909 -4.27817 0.183657
1.39181 -4.27241 0.18409
1.37629 -4.2495 0.184251
1.37551 -4.2519 0.171911
1.40697 -4.25032 0.184134
1.40697 -4.25032 0.184134
1.37629 -4.2495 0.184251
1.37551 -4.2519 0.171911
1.40697 -4.25032 0.184134
1.37551 -4.2519 0.171911
1.39181 -4.27241 0.18409
1.3913 -4.27117 0.159876
1.40725 -4.24669 0.172265
1.39094 -4.22615 0.160084
1.39208 -4.26878 0.172218
1.40725 -4.24669 0.172265
1.40725 -4.24669 0.172265
1.39208 -4.26878 0.172218
1.37644 -4.24922 0.184288
1.3916 -4.22711 0.184329
1.37566 -4.25162 0.171948
1.37617 -4.25287 0.196155
1.38995 -4.23382 0.183521
1.37681 -4.29425 0.184083
1.39082 -4.22951 0.171983
1.37617 -4.25287 0.196155
1.38995 -4.23382 0.183521
1.40606 -4.25608 0.183691
1.42064 -4.23463 0.183395
1.39055 -4.23316 0.18385
1.39169 -4.27578 0.195995
1.37654 -4.2979 0.195957
1.39169 -4.27578 0.195995
1.39169 -4.27578 0.195995
1.37654 -4.2979 0.195957
1.40626 -4.25433 0.195705
1.39133 -4.23076 0.196194
1.40626 -4.25433 0.195705
1.40685 -4.25369 0.196035
1.42143 -4.23224 0.195744
1.39181 -4.27241 0.18409
1.40697 -4.25032 0.184134
1.42182 -4.22524 0.171979
1.42182 -4.22524 0.171979
1.42155 -4.22888 0.183849
1.40697 -4.25032 0.184134
1.42155 -4.22888 0.183849
1.40697 -4.25032 0.184134
1.40697 -4.25032 0.184134
1.40697 -4.25032 0.184134
1.40712 -4.25004 0.184164
1.40725 -4.24669 0.172265
1.40725 -4.24669 0.172265
1.40725 -4.24669 0.172265
1.40725 -4.24669 0.172265
1.42208 -4.26649 0.1729
1.42155 -4.22888 0.183849
1.40725 -4.24669 0.172265
1.40725 -4.24669 0.172265
1.40725 -4.24669 0.172265
1.39181 -4.27241 0.18409
1.39181 -4.27241 0.18409
1.39181 -4.27241 0.18409
1.39181 -4.27241 0.18409
1.39181 -4.27241 0.18409
1.40697 -4.25032 0.184134
1.39208 -4.26878 0.172218
1.40697 -4.25032 0.184134
1.40697 -4.25032 0.184134
1.40697 -4.25032 0.184134
1.39099 -4.22778 0.183998
1.37644 -4.24922 0.184288
1.39196 -4.27213 0.184123
1.40712 -4.25004 0.184164
1.39099 -4.22778 0.183998
1.37644 -4.24922 0.184288
1.40653 -4.25069 0.183833
1.39196 -4.27213 0.184123
1.37644 -4.24922 0.184288
1.39196 -4.27213 0.184123
1.40685 -4.25369 0.196035
1.39133 -4.23076 0.196194
1.39133 -4.23076 0.196194
1.40606 -4.25608 0.183691
1.40685 -4.25369 0.196035
1.40606 -4.25608 0.183691
1.39133 -4.23076 0.196194
1.40606 -4.25608 0.183691
1.40685 -4.25369 0.196035
1.39133 -4.23076 0.196194
1.39195 -4.27615 0.171693
1.37617 -4.25287 0.196155
1.39208 -4.26878 0.172218
1.39181 -4.27241 0.18409
1.39208 -4.26878 0.172218
1.37656 -4.24587 0.172385
1.40697 -4.25032 0.184134
1.40697 -4.25032 0.184134
1.40725 -4.24669 0.172265
1.39172 -4.22376 0.172432
1.39172 -4.22376 0.172432
1.39172 -4.22376 0.172432
1.3916 -4.22005 0.184845
1.39172 -4.22376 0.172432
1.40655 -4.24355 0.173068
1.3916 -4.22005 0.184845
1.39172 -4.22376 0.172432
1.42169 -4.22154 0.184388
1.39172 -4.22376 0.172432
1.3916 -4.22005 0.184845
1.40725 -4.24669 0.172265
1.40725 -4.24669 0.172265
1.43737 -4.24817 0.160554
1.4222 -4.21724 0.197135
1.394 -4.22393 0.209016
1.4218 -4.27013 0.184775
1.40674 -4.25702 0.207942
1.40699 -4.25743 0.18364
1.40674 -4.25702 0.207942
1.40674 -4.25702 0.207942
1.39181 -4.27241 0.18409
1.40697 -4.25032 0.184134
1.42155 -4.22888 0.183849
1.40576 -4.26454 0.231697
1.40576 -4.26454 0.231697
1.42155 -4.22888 0.183849
1.40697 -4.25032 0.184134
1.42155 -4.22888 0.183849
1.40697 -4.25032 0.184134
1.39181 -4.27241 0.18409
1.40725 -4.24669 0.172265
1.40725 -4.24669 0.172265
1.40725 -4.24669 0.172265
1.40725 -4.24669 0.172265
1.40725 -4.24669 0.172265
1.40725 -4.24669 0.172265
1.40725 -4.24669 0.172265
1.40725 -4.24669 0.172265
1.40725 -4.24669 0.172265
1.40725 -4.24669 0.172265
1.39103 -4.2748 0.17175
1.39181 -4.27241 0.18409
1.40697 -4.25032 0.184134
1.40697 -4.25032 0.184134
1.40725 -4.24669 0.172265
1.39208 -4.26878 0.172218
1.39172 -4.22376 0.172432
1.40725 -4.24669 0.172265
1.39208 -4.26878 0.172218
1.39208 -4.26878 0.172218
1.39145 -4.22739 0.184296
1.39181 -4.27241 0.18409
1.40685 -4.25369 0.196035
1.40685 -4.25369 0.196035
1.39169 -4.27578 0.195995
1.40697 -4.25032 0.184134
1.40697 -4.25032 0.184134
1.39181 -4.27241 0.18409
1.39145 -4.22739 0.184296
1.40685 -4.25369 0.196035
1.39169 -4.27578 0.195995
1.40697 -4.25032 0.184134
1.40685 -4.25369 0.196035
1.39169 -4.27578 0.195995
1.40685 -4.25369 0.196035
1.40697 -4.25032 0.184134
1.40685 -4.25369 0.196035
1.40685 -4.25369 0.196035
1.40685 -4.25369 0.196035
1.40685 -4.25369 0.196035
1.40685 -4.25369 0.196035
1.39156 -4.27208 0.208399
1.39156 -4.27208 0.208399
1.40763 -4.25134 0.208387
1.40685 -4.25369 0.196035
1.40685 -4.25369 0.196035
1.40685 -4.25369 0.196035
1.40712 -4.25004 0.184164
1.40613 -4.25063 0.208111
1.40763 -4.25134 0.208387
1.37644 -4.24922 0.184288
1.37617 -4.25287 0.196155
1.40569 -4.26152 0.219476
1.40569 -4.26152 0.219476
1.37538 -4.25527 0.183816
1.37617 -4.25287 0.196155
1.40548 -4.25672 0.183362
1.40685 -4.25369 0.196035
1.38978 -4.23405 0.183497
1.38986 -4.24215 0.231517
1.40712 -4.25004 0.184164
1.40712 -4.25004 0.184164
1.39133 -4.23076 0.196194
1.40685 -4.25369 0.196035
1.40685 -4.25369 0.196035
1.40685 -4.25369 0.196035
1.40685 -4.25369 0.196035
1.42143 -4.23224 0.195744
1.40712 -4.25004 0.184164
1.42183 -4.23233 0.171475
1.37681 -4.29425 0.184083
1.37644 -4.24922 0.184288
1.36128 -4.27137 0.184248
1.39118 -4.27452 0.171783
1.40712 -4.25004 0.184164
1.37644 -4.24922 0.184288
1.39196 -4.27213 0.184123
1.42169 -4.22859 0.183873
1.39118 -4.27452 0.171783
1.40712 -4.25004 0.184164
1.42182 -4.22524 0.171979
1.40665 -4.24734 0.171933
1.42182 -4.22524 0.171979
1.42182 -4.22524 0.171979
1.4055 -4.20471 0.159793
1.39145 -4.22739 0.184296
1.40626 -4.25433 0.195705
1.40685 -4.25369 0.196035
1.40589 -4.20931 0.195904
1.40626 -4.25433 0.195705
1.37644 -4.24922 0.184288
1.40725 -4.24669 0.172265
1.37578 -4.24826 0.160043
1.3913 -4.27117 0.159876
1.39208 -4.26878 0.172218
1.40665 -4.24734 0.171933
1.39112 -4.22443 0.172101
1.39034 -4.22682 0.159753
1.37693 -4.2909 0.172172
1.39208 -4.26878 0.172218
1.39145 -4.22739 0.184296
1.40725 -4.24669 0.172265
1.39172 -4.22376 0.172432
1.39172 -4.22376 0.172432
1.37656 -4.24587 0.172385
1.37656 -4.24587 0.172385
1.39172 -4.22376 0.172432
1.42255 -4.22837 0.159914
1.43663 -4.19916 0.208737
1.39301 -4.22575 0.220948
1.40681 -4.29194 0.184758
1.39196 -4.27213 0.184123
1.39169 -4.27578 0.195995
1.39169 -4.27578 0.195995
1.39169 -4.27578 0.195995
1.40712 -4.25004 0.184164
1.40685 -4.25369 0.196035
1.40685 -4.25369 0.196035
1.39048 -4.29005 0.243567
1.39048 -4.29005 0.243567
1.40697 -4.25032 0.184134
1.40697 -4.25032 0.184134
1.40697 -4.25032 0.184134
1.40697 -4.25032 0.184134
1.40697 -4.25032 0.184134
1.40697 -4.25032 0.184134
1.40697 -4.25032 0.184134
1.39145 -4.22739 0.184296
1.39145 -4.22739 0.184296
1.39133 -4.23076 0.196194
1.39145 -4.22739 0.184296
1.40697 -4.25032 0.184134
1.40697 -4.25032 0.184134
1.40697 -4.25032 0.184134
1.40697 -4.25032 0.184134
1.39145 -4.22739 0.184296
1.39145 -4.22739 0.184296
1.39145 -4.22739 0.184296
1.39145 -4.22739 0.184296
1.39145 -4.22739 0.184296
1.39147 -4.2234 0.19674
1.37582 -4.19682 0.209337
1.36176 -4.1746 0.221069
1.36229 -4.17189 0.257766
1.39335 -4.12168 0.28269
1.34866 -4.13118 0.332468
1.36551 -4.06218 0.381182
1.33737 -4.10081 0.466996
1.33853 -4.04511 0.565931
1.33893 -4.04577 0.614697
1.34048 -4.04738 0.723959
1.32681 -4.06011 0.798335
1.37216 -4.08268 0.871607
1.37317 -4.07588 0.958022
1.41858 -4.13389 1.03251
1.40329 -4.20354 1.11804
1.40658 -4.2399 1.29072
1.31811 -4.22951 1.3709
1.30378 -4.25509 1.49352
1.30473 -4.47758 1.65419
1.37275 -4.56208 1.78202
1.46688 -4.69109 2.04759
1.49818 -4.82006 2.11479
1.31665 -4.82636 2.34075
1.31906 -5.00812 2.43957
1.26072 -5.23014 2.55157
1.12707 -5.43051 2.71406
1.06091 -5.42205 2.65502
0.973722 -5.32839 2.88769
1.25758 -5.82647 3.06819
1.60721 -6.92148 3.96097
1.67407 -7.00863 4.09425
1.66541 -7.17031 4.30851
1.75229 -7.35918 4.42636
1.96957 -7.61384 4.52932
2.10055 -7.7787 4.62917
2.18401 -8.19137 4.74707
2.20655 -8.38954 4.84556
2.36486 -8.47987 4.56699
2.36331 -8.66697 4.64264
2.39648 -8.93722 4.7307
2.38028 -9.27717 4.84555
2.48766 -9.47611 4.92167
2.46122 -9.74381 4.98467
2.55377 -9.92434 5.04884
2.62972 -10.0855 5.10077
2.66509 -10.3442 5.1532
2.70808 -10.5867 5.17909
2.73473 -10.7245 5.19187
2.81087 -10.9256 5.26827
2.87439 -11.2228 5.26936
2.93931 -11.487 5.34225
2.99786 -11.7062 5.3682
3.04445 -11.946 5.40703
3.14981 -12.102 5.39601
3.18059 -12.3171 5.42228
3.21051 -12.4967 5.4236
3.26517 -12.7278 5.44979
3.34206 -12.927 5.49652
3.37299 -13.0637 5.54607
3.43505 -13.2334 5.54705
3.49969 -13.4061 5.60731
3.5661 -13.578 5.68031
3.64943 -13.7241 5.73724
3.75956 -13.9608 5.79642
3.8128 -14.1478 5.84103
3.86088 -14.3478 5.92486
3.93457 -14.4906 6.16325
3.99662 -14.7061 6.24186
4.06099 -14.8393 6.26978
4.12206 -14.9747 6.31763
4.27386 -15.2442 6.26145
4.31597 -15.3226 6.3331
4.2652 -15.5676 6.1829
4.43744 -15.5922 6.52309
4.51071 -15.7839 6.58569
4.50903 -15.9988 6.41513
4.53664 -16.1728 6.51887
4.5487 -16.4189 6.54602
4.83036 -16.319 6.77297
4.8873 -16.4471 6.78998
4.97874 -16.9766 6.68855
5.10651 -17.1423 6.76849
5.17001 -17.2648 6.78657
5.23865 -17.3637 6.69643
5.44865 -17.1772 6.83061
5.30193 -17.6154 6.72067
5.37884 -17.669 6.65123
5.44925 -17.7896 6.72449
5.49931 -17.8781 6.66733
5.72859 -17.5721 6.77865
5.81597 -17.6426 6.87315
5.85805 -17.7208 6.91491
5.91381 -17.8036 6.87832
5.98002 -17.8492 6.91254
6.08873 -17.911 6.96091
6.15969 -17.9689 6.97212
6.26738 -17.9967 6.93965
6.35911 -18.0575 7.00266
6.43423 -18.1207 7.02381
6.64292 -18.2385 6.90501
6.63358 -18.1879 6.9803
6.70092 -18.204 7.12395
6.81125 -18.3011 7.14997
6.87019 -18.3823 7.20649
6.97312 -18.4343 7.29045
6.96917 -18.3854 7.28124
7.21723 -18.6123 7.44791
7.38698 -18.7385 7.53034
7.47378 -18.8604 7.60075
7.60644 -19.0083 7.69667
7.6896 -19.0762 7.78923
7.78957 -19.1317 7.89514
7.91637 -19.2255 8.03428
8.02929 -19.3326 8.13899
8.14233 -19.4397 8.24359
8.24963 -19.5387 8.32541
8.3233 -19.6091 8.41477
8.43647 -19.717 8.55353
8.54369 -19.8719 8.64883
8.65366 -19.9807 8.82461
8.78149 -20.0691 8.89808
8.83243 -20.227 9.02542
8.93965 -20.3273 9.12286
9.03999 -20.4329 9.2294
9.15721 -20.5425 9.34591
9.27102 -20.6499 9.48425
9.41278 -20.7432 9.60469
9.47139 -20.8362 9.77431
9.63069 -20.9646 9.85802
9.71862 -21.0324 9.98209
9.86168 -21.12 10.106
9.91994 -21.2578 10.1909
9.98545 -21.3269 10.3046
10.1138 -21.4219 10.4081
10.2512 -21.5593 10.5165
10.298 -21.6371 10.6178
10.4198 -21.7168 10.6848
10.5157 -21.8225 10.7587
10.6376 -21.9027 10.7907
10.6512 -21.9864 10.8824
10.7583 -22.0807 10.9298
10.867 -22.2277 10.9705
10.9535 -22.2639 11.0153
10.9801 -22.3077 11.0655
11.0748 -22.3538 11.1151
11.119 -22.3819 11.1258
11.1556 -22.411 11.1644
11.2067 -22.4848 11.2121
11.2627 -22.5043 11.2122
11.3137 -22.5191 11.2355
11.3303 -22.5693 11.2455
11.3675 -22.595 11.2686
11.4201 -22.6671 11.2654
11.4064 -22.6781 11.265
11.4493 -22.7641 11.2733
11.4567 -22.8063 11.2948
11.434 -22.8361 11.2864
11.3896 -22.8668 11.3001
11.4108 -22.8614 11.2976
11.3578 -22.8814 11.3072
11.3881 -22.9201 11.3174
11.3745 -22.9313 11.3171
11.3473 -22.9536 11.3164
11.3655 -22.9501 11.3089
11.3564 -22.9976 11.329
11.3647 -22.9817 11.3528
11.3385 -22.946 11.3545
11.3175 -22.9151 11.3327
11.3324 -22.9608 11.3062
11.2897 -22.9304 11.3065
11.3075 -22.9224 11.3187
11.2911 -22.9277 11.3173
11.2747 -22.9331 11.3159
11.2528 -22.9004 11.3295
11.3011 -22.8542 11.3433
11.3143 -22.8462 11.3593
11.3165 -22.7855 11.3459
11.3483 -22.7668 11.3584
11.3622 -22.6627 11.388
11.3952 -22.6192 11.3846
11.3985 -22.5602 11.3358
11.4064 -22.4916 11.3667
11.4279 -22.4248 11.3301
11.4023 -22.3319 11.3851
11.4565 -22.2339 11.4288
11.5017 -22.1516 11.4489
11.5045 -22.0907 11.4353
11.5648 -21.9927 11.4032
11.5945 -21.852 11.4168
11.6649 -21.738 11.4288
11.7444 -21.6148 11.4816
11.7944 -21.4174 11.5428
11.8338 -21.289 11.5256
11.9077 -21.1211 11.5056
11.9549 -20.9768 11.5486
11.9556 -20.8593 11.5421
12.0478 -20.7454 11.5959
12.0842 -20.5557 11.5702
12.1567 -20.4511 11.6281
12.2233 -20.3362 11.6437
12.3122 -20.2172 11.6336
12.3686 -20.0602 11.6812
12.4083 -19.9232 11.6311
12.5427 -19.7162 11.6249
12.5951 -19.5515 11.6436
12.667 -19.3769 11.658
12.7765 -19.2326 11.6753
12.7837 -19.0558 11.6828
12.9067 -18.9256 11.6662
12.9715 -18.7062 11.659
13.0654 -18.5093 11.6796
13.1381 -18.3006 11.6786
13.2431 -18.152 11.6974
13.3275 -17.9238 11.6499
13.4491 -17.7265 11.6197
13.5525 -17.4687 11.6637
13.6543 -17.3195 11.62
13.7711 -17.1081 11.5775
13.8345 -16.8864 11.5338
13.9671 -16.7138 11.5666
14.0386 -16.4799 11.5954
14.157 -16.2767 11.5197
14.2921 -16.0647 11.524
14.3664 -15.8767 11.5439
14.4131 -15.5927 11.5513
14.528 -15.353 11.5803
14.6096 -15.0987 11.5705
14.6782 -14.9454 11.5453
14.7443 -14.6904 11.4967
14.9209 -14.4803 11.4495
15.0543 -14.3035 11.4485
14.3726 -13.467 11.2894
14.4548 -13.2551 11.3312
14.5541 -12.9679 11.3702
15.1849 -12.67 11.3679
15.8947 -11.9161 11.4025
15.9426 -11.5971 11.4421
16.057 -11.4089 11.4212
16.1167 -11.2152 11.432
16.1485 -11.0131 11.4763
16.1402 -10.825 11.4542
16.1339 -10.6819 11.5293
16.1571 -10.4252 11.4604
16.1787 -10.2408 11.5703
16.2096 -10.04 11.6072
16.2353 -9.94645 11.591
16.1804 -9.76589 11.6189
16.18 -9.62909 11.6175
16.213 -9.42877 11.6126
16.0552 -9.19659 11.5682
16.1819 -9.13351 11.6517
16.1769 -8.99649 11.6562
16.1239 -8.8165 11.6422
16.1011 -8.68608 11.6467
16.0681 -8.47815 11.6544
16.0648 -8.28996 11.7046
16.0897 -8.19827 11.7079
16.1011 -8.0195 11.7162
16.1045 -7.7717 11.7259
16.1183 -7.60144 11.7324
16.113 -7.40755 11.7625
16.1065 -7.2719 11.7871
16.0791 -7.13384 11.813
16.0725 -6.99799 11.8376
16.0479 -6.86192 11.8218
16.0786 -6.68324 11.8283
16.1019 -6.49917 11.8622
16.0547 -6.38884 11.8656
16.01 -6.19044 11.8997
16.0055 -6.08114 11.8946
15.9633 -5.91339 11.9192
15.9946 -5.70484 11.907
16.0409 -5.4866 11.9366
16.0665 -5.30375 11.9283
16.0436 -5.07692 11.9566
16.0933 -4.88322 11.9778
16.0953 -4.72985 11.9526
16.125 -4.52283 11.9607
16.1701 -4.30633 12.0106
16.215 -4.08215 12.0188
15.7763 -3.47376 12.0441
15.8308 -3.23731 12.0516
15.8896 -3.0305 12.1286
15.9145 -2.78403 12.132
16.444 -2.98928 12.0792
15.9862 -2.39388 12.1372
16.5215 -2.53421 12.0852
16.5304 -2.35783 12.0908
16.5863 -2.09705 12.1061
16.6315 -1.88329 12.1351
16.2846 -1.32491 12.2043
16.3863 -1.10961 12.2048
16.394 -0.894847 12.2215
16.4272 -0.645561 12.2196
16.4868 -0.505087 12.2396
16.8961 -0.512964 12.2035
16.9722 -0.337762 12.1882
17.06 -0.0980596 12.2411
16.7441 0.436531 12.2885
16.7549 0.593167 12.3114
16.7724 0.740808 12.325
17.1446 0.597886 12.2767
17.2064 0.720722 12.2873
17.2283 0.93911 12.272
16.8705 1.47771 12.3661
17.2253 1.24746 12.2859
16.8963 1.73569 12.313
16.9622 1.82354 12.3141
16.8968 2.01884 12.2901
16.8898 2.24871 12.2783
17.2797 1.99249 12.2351
17.2394 2.19017 12.2412
17.2571 2.31625 12.2453
17.2561 2.49894 12.2339
17.2365 2.65562 12.218
17.1809 2.8799 12.2066
17.1663 3.05037 12.1682
17.1074 3.28151 12.1765
17.1411 3.50651 12.1664
17.0863 3.73835 12.1677
16.7628 4.22325 12.2044
16.6863 4.4424 12.2108
16.6065 4.76131 12.1982
16.7403 4.74595 12.0884
16.4593 5.24732 12.2043
16.3429 5.54015 12.1622
16.2049 5.88886 12.1373
16.0889 6.14297 12.124
16.0225 6.44759 12.0978
15.9821 6.77266 12.0853
15.9191 7.27827 12.1175
15.831 7.57276 12.0876
15.7441 7.87639 12.091
15.7493 8.19135 12.0921
15.6469 8.58826 12.1508
15.6404 8.9049 12.0738
15.4899 9.18169 12.0588
15.422 9.55034 12.1165
15.3559 9.89176 12.0771
15.2746 10.1228 12.1061
15.133 10.5369 12.0467
15.0824 10.9756 11.9786
15.1409 11.3626 11.9622
15.0817 11.7142 11.9705
15.0994 12.1068 11.9688
15.0358 12.532 11.9155
15.0332 12.8586 11.9248
14.9819 13.1843 11.911
15.3949 13.0118 11.7369
15.3999 13.4245 11.7174
15.3707 13.7259 11.719
15.4539 14.1218 11.7266
15.5139 14.3894 11.723
15.5688 14.7147 11.7096
15.6131 15.0771 11.7078
15.6484 15.3746 11.6913
15.6839 15.6344 11.6864
15.7849 16.0427 11.6852
15.8768 16.3332 11.7247
15.9188 16.6195 11.7093
15.9964 16.8168 11.696
16.0436 17.1519 11.7151
16.214 17.472 11.6951
16.2134 17.7874 11.6958
16.2768 18.0283 11.7099
16.375 18.3421 11.6701
16.3958 18.6173 11.6726
16.5314 18.9767 11.6697
16.6522 19.1786 11.6912
16.6757 19.4892 11.6746
16.7394 19.7087 11.6649
16.7956 19.9463 11.6845
16.72 20.6362 12.0226
16.7848 20.9557 12.016
17.0622 20.9259 11.6523
16.9942 21.6061 12.0152
17.047 21.8403 12.027
17.1105 22.0694 12.014
17.192 22.3092 12.0065
17.2192 22.5572 12.0362
17.2719 22.8696 12.0163
17.3317 23.0815 12.0338
17.366 23.347 12.0492
17.5321 23.0983 11.7311
17.5925 23.2849 11.7299
17.5749 23.5441 11.7101
17.6207 23.7212 11.7486
17.594 23.9449 11.7282
17.4715 24.659 11.991
17.6299 24.3607 11.7146
17.6096 24.5352 11.7013
17.6248 24.6465 11.67
17.6446 24.864 11.6229
17.6184 25.0552 11.5851
17.5685 25.2694 11.5558
17.5437 25.4521 11.5017
17.5202 25.629 11.404
17.5242 25.8104 11.3346
17.4931 25.9509 11.264
17.4595 26.098 11.2086
17.436 26.2321 11.1154
17.3773 26.4421 11.0639
17.3672 26.5261 11.0269
17.2627 26.6519 10.8669
17.2091 26.7803 10.8435
17.1786 26.9106 10.7568
17.1218 26.9922 10.7031
17.0617 27.0834 10.6087
17.0065 27.1579 10.5402
16.9527 27.2471 10.495
16.8971 27.2953 10.4507
16.7953 27.39 10.4041
16.73 27.44 10.3229
16.6427 27.5136 10.2409
16.5489 27.5539 10.1869
16.5287 27.571 10.1712
16.3995 27.5713 10.1165
16.3441 27.6262 10.121
16.1462 27.8503 10.1278
16.0428 27.8844 10.1008
16.0104 27.7796 9.98294
15.8994 27.7692 9.95856
15.7994 27.8532 10.0151
15.7308 27.8766 9.99875
15.6289 27.906 9.9618
15.5288 27.8877 9.95891
15.4203 27.8697 9.94506
15.3416 27.8343 9.95909
15.2767 27.8217 9.98186
15.1772 27.7937 10.0068
15.0442 27.7678 9.99923
14.8629 27.7483 10.0141
14.768 27.7347 10.0103
14.5994 27.7376 9.99116
14.5239 27.7135 10.0255
14.3727 27.6952 9.99065
14.2419 27.6973 9.97648
14.09 27.6721 9.99499
13.9752 27.6215 10.0038
13.8735 27.5274 9.99702
13.7332 27.4698 9.99768
13.6103 27.397 9.9996
13.4861 27.3658 9.96572
13.3566 27.2941 9.99585
13.2087 27.2205 9.97943
13.0497 27.1847 10.0106
12.9353 27.1047 10.0094
12.5799 27.3095 9.90158
12.3931 27.2671 9.89671
12.4559 26.9126 9.98318
12.2943 26.8893 10.0004
12.1419 26.7809 9.96811
11.9947 26.6574 9.99295
11.8736 26.5503 9.9944
11.8258 26.4321 10.0029
11.7007 26.2869 10.0039
11.6922 26.1052 10.0047
11.626 25.9398 10.0233
11.4869 25.8802 10.0377
11.4729 25.6903 10.0552
11.376 25.4839 9.96772
11.3366 25.3146 9.98443
11.2652 25.1609 9.97774
11.2188 24.9608 9.98962
11.1601 24.7769 9.99038
11.1378 24.5395 9.98207
11.0748 24.3185 9.97729
11.0073 24.0806 9.9856
10.9611 23.8291 10.031
10.9409 23.563 10.0162
10.9163 23.3143 9.95064
10.9058 23.0257 9.94293
10.9065 22.8166 9.93232
10.8899 22.5761 9.95103
10.8626 22.3008 9.95146
10.8138 22.0232 9.91969
10.7388 21.7381 9.9465
10.7063 21.4336 9.92365
10.7458 21.175 9.95909
10.6939 20.8498 9.97326
10.6529 20.5594 10.0125
10.6401 20.2185 10.0083
10.6395 19.9434 9.95988
10.6313 19.6071 9.94003
10.6773 19.244 9.96255
10.6913 18.9569 9.94435
10.6748 18.6889 9.95536
10.6422 18.4155 9.94836
10.6444 18.0593 9.91214
10.6626 17.8424 9.91413
10.6853 17.5272 9.91043
10.7498 17.2522 9.90226
10.7589 17.0294 9.90685
10.7145 16.7998 9.8821
10.6574 16.5073 9.89716
10.7008 16.2872 9.87474
10.6633 16.0423 9.87943
10.657 15.8022 9.86528
10.6717 15.6225 9.87761
10.6738 15.3634 9.88508
10.7271 15.0946 9.89483
10.7575 14.8535 9.93631
10.774 14.5451 9.93801
10.7775 14.3761 9.93534
10.8326 14.1806 9.91262
10.8684 13.9252 9.91625
10.9161 13.6588 9.92449
10.9527 13.439 9.92636
10.9604 13.0891 9.94594
10.9743 12.8109 9.96715
10.9941 12.5245 9.98256
11.0614 12.2721 9.9876
11.0785 11.9944 10.022
11.1331 11.7104 10.0276
11.152 11.4314 10.0386
11.2121 11.0363 10.0476
11.2304 10.7628 10.0528
11.2824 10.5263 10.0412
11.3326 10.2498 10.0339
11.3622 9.99233 10.0362
11.4384 9.70646 10.0327
11.4999 9.41254 10.0464
11.5324 9.09911 10.0387
11.5383 8.78222 10.036
11.508 8.43741 10.0281
11.5436 8.07463 10.0422
11.5704 7.77734 10.0375
11.5924 7.42794 10.0112
11.695 7.24388 10.0221
11.8203 6.97465 10.0235
11.8555 6.71533 10.0303
11.8723 6.46938 10.015
11.9268 6.25381 9.99692
11.9843 5.99594 10.0072
11.9598 5.69063 10.0184
11.9881 5.42956 10.0048
12.0471 5.1627 10.0242
12.1085 4.91232 10.0104
12.1355 4.6328 10.0336
12.0778 4.38745 10.0273
12.0806 4.14604 10.0207
12.1077 3.87798 10.0402
12.0866 3.60864 10.0333
12.1675 3.3982 10.025
12.1646 3.18623 10.0338
12.1949 2.92169 10.0065
12.194 2.63366 10.0127
12.2108 2.3734 10.0175
12.1362 2.0644 9.99708
12.0775 1.72296 10.0066
12.0461 1.42756 10.0009
12.0065 1.16409 10.0063
11.9703 0.906379 9.98863
11.9027 0.622485 9.96716
11.9125 0.290439 10.0017
11.8967 -0.00698589 9.97103
11.8149 -0.286904 9.95413
11.7364 -0.598879 9.97912
11.8996 -0.983701 10.078
11.6315 -1.14074 9.98947
11.6538 -1.39705 9.96896
11.612 -1.68682 9.97124
11.5437 -1.95222 9.97073
11.4549 -2.25333 9.97817
11.3692 -2.5055 9.95436
11.3158 -2.80603 9.98414
11.4677 -3.21711 10.1213
11.4176 -3.54608 10.1107
11.2728 -3.63624 10.0055
11.2021 -3.92747 10.0185
11.1337 -4.21183 10.0194
11.2598 -4.64936 10.1916
11.1769 -4.93287 10.1607
11.1294 -5.28009 10.1829
10.9123 -5.44766 10.0826
10.8311 -5.78708 10.1737
10.8283 -6.04323 10.2344
10.7325 -6.24553 10.3394
10.6936 -6.51635 10.4018
10.6648 -6.86633 10.4971
10.6173 -7.17194 10.5698
10.5544 -7.47445 10.6587
10.57 -7.7439 10.7925
10.5023 -8.04418 10.8685
10.6515 -8.45216 11.1573
10.4764 -8.64029 11.1168
10.3875 -8.95841 11.2542
10.2528 -9.2262 11.4159
10.2586 -9.52893 11.5302
10.2377 -9.83199 11.6702
10.1826 -10.1994 11.8088
10.148 -10.4314 11.963
10.1436 -10.6823 12.0916
10.0806 -10.9981 12.2499
9.97221 -11.2786 12.358
9.92865 -11.5798 12.453
10.1038 -12.0153 12.7019
10.0715 -12.2809 12.8289
10.0554 -12.5794 12.905
10.0531 -12.8808 13.012
9.99185 -13.2257 13.1373
9.95771 -13.5748 13.2511
9.76315 -13.8531 13.1677
9.95543 -14.1862 13.3867
9.94731 -14.4784 13.4925
9.94175 -14.7524 13.5683
9.9008 -15.0719 13.6361
9.85602 -15.3176 13.6387
9.87834 -15.6501 13.7195
9.92758 -15.9144 13.7755
9.89705 -16.3268 13.8065
9.88236 -16.6918 13.8431
9.9131 -17.068 13.9195
9.91819 -17.4432 13.9507
9.93939 -17.7478 14.0003
9.92629 -18.027 14.0268
9.94762 -18.3282 14.0228
9.87857 -18.6787 14.0971
10.3764 -19.4629 13.7592
10.0093 -19.3886 14.1729
10.1168 -19.7292 14.1624
10.5487 -20.5056 13.7542
10.5393 -20.9477 13.747
10.5847 -21.2272 13.6881
10.6637 -21.5357 13.6786
10.7274 -21.9189 13.6986
10.4286 -21.7988 14.1272
10.9267 -22.4363 13.707
11.0338 -22.7186 13.7386
10.9366 -23.2068 13.7221
11.0036 -23.6557 13.7641
11.0056 -23.9171 13.7189
11.0685 -24.265 13.7122
11.1463 -24.5921 13.7007
11.2061 -24.9118 13.653
11.2275 -25.1579 13.6709
11.3039 -25.3829 13.6275
11.3581 -25.5487 13.6272
11.3991 -25.7488 13.6128
11.3983 -25.9754 13.5859
11.518 -26.219 13.6078
11.7601 -26.558 13.5716
11.8238 -26.687 13.5836
11.9364 -26.9374 13.6179
12.1908 -27.1285 13.5881
12.1479 -27.2057 13.534
12.2509 -27.3452 13.5195
11.589 -26.992 13.7974
11.6604 -27.0503 13.7741
12.6031 -27.645 13.4892
12.6013 -27.6323 13.4394
11.902 -27.2176 13.6938
11.9573 -27.2887 13.6638
12.1439 -27.417 13.6507
12.5966 -27.8694 13.1794
11.6415 -27.5791 13.3455
11.8176 -27.7209 13.3575
12.0871 -28.0124 13.3586
12.4025 -28.3658 13.3388
12.8886 -27.527 13.5113
14.0754 -28.2463 13.2196
13.3214 -27.6585 13.4449
13.5098 -27.7279 13.428
13.5241 -27.5952 13.4441
14.4691 -27.0947 13.7831
14.6908 -27.1708 13.7792
14.3165 -27.6594 13.0547
14.4872 -27.5159 13.0522
14.6703 -27.2757 13.177
14.8702 -27.1599 13.0153
14.9469 -27.0082 13.0795
15.207 -26.8508 13.0371
15.2588 -26.6385 12.9291
15.4559 -26.5309 12.8883
15.4828 -26.3158 12.8976
15.5608 -26.1733 12.9092
15.6121 -25.9936 12.9195
15.7674 -25.7087 12.9048
15.7982 -25.3646 12.9071
15.8369 -25.2875 12.8509
16.1039 -25.0404 12.9442
16.2711 -24.8916 12.9012
17.5336 -24.2478 12.8811
18.3347 -24.8704 13.0585
18.4268 -24.568 12.9796
18.7481 -24.3977 13.0276
19.0255 -24.2143 13.0133
18.9896 -23.8348 12.9908
19.117 -23.6368 13.0141
19.5033 -23.2498 13.1225
19.5084 -23.0017 12.9877
19.7159 -22.3986 12.908
19.9062 -22.1198 12.9219
20.877 -21.3663 12.9726
21.0676 -21.3161 13.0182
20.6774 -21.5248 12.9709
21.4897 -20.7434 12.9944
20.9985 -20.9047 13.0181
21.9208 -20.2755 13.1927
21.3152 -20.4634 13.1079
21.4867 -20.1458 13.0807
21.6886 -19.8529 13.0753
21.8537 -19.5598 13.1292
22.732 -18.75 13.1043
22.856 -18.4239 13.1383
22.4128 -18.5522 13.2177
23.0885 -17.9083 13.2125
22.4413 -18.158 13.3218
22.5939 -17.8623 13.3272
22.7493 -17.6986 13.334
22.6153 -17.3839 13.3315
22.6931 -17.1605 13.3375
22.6998 -16.9434 13.3266
23.4761 -16.2444 13.3104
23.5704 -15.9517 13.3009
23.6138 -15.62 13.2746
22.894 -15.6422 13.3271
22.9891 -15.2481 13.3588
23.6626 -14.6229 13.3593
23.744 -14.2403 13.3841
23.8999 -13.9397 13.3623
23.9401 -13.5658 13.3388
24.0178 -13.2368 13.3661
24.0051 -12.9015 13.3782
24.0094 -12.5311 13.3793
24.0142 -12.1784 13.3855
23.957 -11.821 13.4039
23.9534 -11.5021 13.4178
23.9891 -11.2038 13.4174
23.9653 -10.9402 13.3975
24.0118 -10.6754 13.417
23.9972 -10.4783 13.4283
24.0352 -10.2322 13.3895
24.1403 -10.0097 13.4167
24.1384 -9.79732 13.4209
24.1114 -9.60037 13.4232
24.1383 -9.37128 13.4009
24.2126 -9.20927 13.4075
24.2366 -9.05697 13.428
24.3523 -8.93103 13.423
24.3088 -8.70391 13.4282
24.4354 -8.5629 13.4064
24.4189 -8.33816 13.4002
24.4358 -8.28328 13.3841
24.4467 -8.08855 13.3883
24.3885 -7.93537 13.3924
24.4498 -7.84482 13.3911
24.4401 -7.68998 13.4098
24.3522 -7.48777 13.4064
24.2804 -7.32481 13.4015
24.2786 -7.21008 13.4128
24.2199 -7.04245 13.4148
24.1859 -6.89945 13.4244
24.1597 -6.81285 13.407
24.1514 -6.69818 13.4003
23.9867 -6.5235 13.4166
24.0488 -6.52812 13.4236
23.9247 -6.48015 13.4091
23.8707 -6.38513 13.4118
23.899 -6.46627 13.4214
24.4289 -6.61322 13.495
23.7755 -6.42868 13.3874
23.7783 -6.46316 13.3586
23.6523 -6.39795 13.3353
23.5153 -6.33132 13.3403
23.4112 -6.30828 13.3685
23.2456 -6.2204 13.3547
23.2099 -6.3176 13.3453
23.1153 -6.33778 13.3479
23.0419 -6.34306 13.3478
23.7337 -6.57463 13.4901
23.6733 -6.57613 13.4428
23.5579 -6.56678 13.3813
22.5672 -6.08722 13.2773
22.4199 -5.94239 13.2369
22.3886 -6.00264 13.244
22.3333 -5.92312 13.2023
22.2536 -5.92627 13.1941
22.1148 -5.86099 13.1808
22.0251 -5.79837 13.1563
21.8955 -5.66598 13.188
21.8072 -5.7003 13.1806
21.7677 -5.71336 13.201
21.7386 -5.75282 13.2376
22.2935 -6.10209 13.2138
22.1756 -6.04814 13.2374
21.5218 -5.78288 13.3142
21.9995 -6.07289 13.2825
21.3119 -5.7056 13.4386
21.1961 -5.72207 13.4876
21.0124 -5.62422 13.5244
20.918 -5.6751 13.5919
20.8544 -5.68807 13.6301
20.7219 -5.67957 13.6505
20.6467 -5.64174 13.6967
20.4371 -5.53958 13.7836
20.2978 -5.47623 13.8244
20.2242 -5.45813 13.8813
19.9784 -5.40328 13.9489
19.8397 -5.37179 14.0115
19.8308 -5.35397 14.0864
19.6984 -5.29847 14.1334
19.6537 -5.31324 14.2045
19.5699 -5.35422 14.2537
19.4406 -5.32701 14.3013
19.2949 -5.23844 14.3399
19.1695 -5.15377 14.3744
19.1228 -5.21214 14.4189
18.9767 -5.19523 14.5002
18.8189 -5.14349 14.5588
18.7986 -5.15594 14.6389
18.6601 -5.18233 14.7125
18.5571 -5.16545 14.7872
18.4228 -5.02382 14.8181
18.0689 -4.83001 14.9046
18.1759 -4.91088 14.8848
18.1145 -4.97111 14.9459
17.846 -4.90076 14.981
17.7469 -4.84843 15.0337
17.6607 -4.78236 15.0781
17.3824 -4.59024 15.1357
17.2466 -4.51856 15.1837
17.2714 -4.52838 15.2418
17.3297 -4.60957 15.3206
17.0807 -4.52082 15.2936
17.0516 -4.5617 15.3423
16.8706 -4.43567 15.3795
16.7667 -4.37021 15.3987
16.6182 -4.3189 15.413
16.5107 -4.26223 15.4329
16.4352 -4.20039 15.4837
16.3286 -4.16087 15.4812
16.2241 -4.13005 15.5156
16.1173 -4.07677 15.5222
16.0249 -4.06978 15.5724
15.9742 -3.92992 15.6215
15.8682 -3.83335 15.6723
15.7907 -3.75579 15.6237
15.7024 -3.58838 15.6916
15.6127 -3.51618 15.6815
15.5176 -3.46219 15.6668
15.3767 -3.34419 15.7227
15.3634 -3.22576 15.707
15.1911 -3.11612 15.7383
15.0697 -2.97914 15.7337
14.9751 -2.80912 15.7511
14.8636 -2.72046 15.7539
14.6798 -2.49045 15.7499
14.5757 -2.35465 15.7657
14.4318 -2.25275 15.7929
14.3364 -2.07265 15.8318
14.1845 -1.82988 15.8074
14.6182 -2.05438 16.4374
14.3413 -2.12515 16.4
14.0417 -2.23328 16.3562
13.6054 -2.58859 16.3075
13.2157 -2.70966 16.2573
12.9309 -2.75295 16.2396
12.6527 -2.70331 16.2039
12.3796 -2.78779 16.1414
12.1745 -2.82658 16.1242
11.9395 -2.8784 16.0507
11.655 -2.92895 16.0287
11.4729 -2.78422 16.029
11.2135 -2.81784 16.0099
10.7313 -3.1644 15.9516
10.4722 -3.18557 15.9341
10.1998 -3.23523 15.8501
9.97955 -3.17501 15.8112
9.7724 -3.1352 15.8134
9.40364 -3.30744 15.8147
9.26756 -3.37761 15.6778
9.14277 -3.28247 15.6876
8.70953 -3.51031 15.672
8.43063 -3.64904 15.5157
8.17854 -3.68853 15.4904
8.0607 -3.71488 15.4049
7.78177 -3.81253 15.3152
7.38902 -3.98016 15.2725
7.16702 -3.93746 15.2652
6.97098 -3.96311 15.2426
6.79227 -3.9384 15.1889
6.45855 -3.95514 15.1755
6.2156 -4.09239 15.0194
5.97114 -4.07639 14.9297
5.75332 -4.10227 14.8843
5.51039 -3.98953 14.8933
5.17924 -4.01579 14.8821
5.20945 -4.05996 14.7376
4.9464 -4.06493 14.7215
4.88898 -3.98424 14.6754
4.71935 -4.0065 14.5459
4.54623 -4.04098 14.4863
4.4711 -3.97013 14.4376
4.41056 -3.79073 14.4365
4.18757 -3.80027 14.3714
4.04056 -3.84149 14.2617
3.7532 -3.71231 14.2841
3.58322 -3.58054 14.3159
3.32557 -3.52462 14.3586
3.60247 -3.37839 14.1668
3.53025 -3.23484 14.1311
3.46346 -3.14175 14.1719
3.07244 -3.04901 14.0666
3.05427 -3.04857 13.9092
2.78304 -2.68658 13.9516
2.61343 -2.71877 13.8285
2.50086 -2.66165 13.7981
2.39215 -2.57025 13.739
2.27116 -2.4792 13.7128
2.28706 -2.32276 13.6981
2.28852 -2.18191 13.7193
2.20133 -2.16849 13.6704
2.06917 -2.1014 13.6219
2.01143 -2.01598 13.5498
1.47858 -1.90427 13.5565
1.38908 -1.82033 13.48
1.36184 -1.71208 13.4481
1.26816 -1.65939 13.4218
1.19814 -1.36935 13.4557
1.05944 -1.2967 13.3905
0.89689 -1.22687 13.4005
0.740056 -1.02913 13.3687
0.680989 -0.964296 13.3474
0.624683 -0.89275 13.3037
0.507913 -0.840407 13.2853
0.250661 -0.698393 13.2478
0.278867 -0.681882 13.2175
0.157717 -0.532813 13.1798
0.0333567 -0.402334 13.1533
-0.019914 -0.340058 13.1489
-0.0872866 -0.299211 13.1002
-0.198859 -0.136568 13.0525
-0.292214 -0.0928467 12.9977
-0.420148 0.0467588 12.9737
-0.528183 0.222137 12.9542
-0.69156 0.332612 12.8665
-0.795643 0.401876 12.8627
-0.936787 0.617531 12.859
-1.04037 0.736324 12.8409
-1.15886 0.835467 12.7795
-1.25552 0.95692 12.75
-1.37724 1.08081 12.7645
-1.47333 1.21054 12.7164
-1.60701 1.31398 12.7034
-1.74691 1.44102 12.6701
-1.84531 1.53644 12.6802
-2.02399 1.71627 12.6833
-2.13967 1.85856 12.6655
-2.22499 1.91221 12.6514
-2.31925 2.0212 12.6092
-2.41806 2.12226 12.601
-2.53132 2.22868 12.591
-2.66074 2.32418 12.6166
-3.14873 3.34557 11.8049
-3.19046 3.31198 11.8177
-3.23733 3.13044 11.7831
-3.28678 3.06585 11.7815
-3.35791 3.00428 11.7384
-3.77845 4.23144 12.4696
-3.83821 4.08504 12.5126
-3.85328 3.99227 12.5262
-3.91222 3.90201 12.5681
-4.33942 3.83353 12.5192
-4.38054 3.8903 12.5213
-4.47367 4.00705 12.5068
-4.58575 4.06141 12.5202
-4.68716 4.0557 12.5308
-4.7727 4.14779 12.5226
-4.91467 4.25464 12.5242
-4.97682 4.27256 12.5332
-5.0952 4.30693 12.5301
-5.21197 4.36067 12.5559
-5.24614 4.37271 12.5489
-5.34338 4.43919 12.5739
-5.41574 4.41576 12.6002
-5.55223 4.54833 12.6253
-5.61729 4.57813 12.6282
-5.72639 4.57334 12.6631
-5.80897 4.56584 12.6724
-5.91712 4.62025 12.6832
-6.04122 4.63429 12.7101
-6.08945 4.51116 12.7271
-6.24028 4.63734 12.7505
-6.29541 4.55764 12.7901
-6.38315 4.52569 12.7823
-6.44935 4.53807 12.8031
-6.51652 4.51242 12.8456
-6.81749 4.27771 12.9192
-6.88352 4.28483 12.9397
-6.9502 4.2523 12.9818
-7.03342 4.17105 12.9627
-7.05784 4.10793 13.0153
-7.13993 4.01237 13.0469
-7.19826 4.01145 13.0677
-7.29713 3.94924 13.0856
-7.30836 3.81893 13.1512
-7.41584 3.77636 13.1841
-7.41034 3.555 13.1196
-7.51061 3.49329 13.1266
-7.65213 3.20937 13.1483
-7.78712 3.29146 13.1686
-7.8259 3.28258 13.1586
-7.88627 3.11686 13.1519
-7.92249 2.98555 13.1578
-7.91287 2.87663 13.1226
-8.06477 2.86417 13.1707
-9.07621 2.74375 14.2473
-9.07773 2.96349 14.2236
-9.04867 3.1924 14.1888
-9.16497 3.66453 14.0186
-9.20752 3.84272 13.9687
-8.54607 4.1855 13.5559
-8.5896 4.29396 13.5566
-8.66734 4.28919 13.5478
-8.77656 4.37935 13.5218
-8.79047 4.48345 13.4972
-8.94981 4.50038 13.4838
-9.04811 4.64653 13.4787
-9.13664 4.75583 13.4648
-9.2334 4.80227 13.4275
-9.37738 4.72814 13.4462
-9.47025 4.88714 13.4136
-9.51939 4.95002 13.4036
-9.57104 5.07643 13.3715
-9.63569 5.12915 13.3885
-9.7359 5.1728 13.3933
-9.85601 5.23589 13.3809
-9.91791 5.27676 13.3752
-9.9789 5.32734 13.3564
-10.0847 5.3875 13.3594
-10.1909 5.47328 13.3309
-10.2789 5.48844 13.3028
-10.3408 5.55772 13.3197
-10.3861 5.63665 13.3526
-10.5587 5.61388 13.3379
-10.617 5.74265 13.2782
-10.7232 5.76375 13.31
-10.8523 5.70843 13.3312
-10.8973 5.73673 13.3145
-10.9318 5.81411 13.2934
-11.0225 5.83654 13.3076
-11.0929 5.90441 13.3028
-11.1531 5.87088 13.3321
-11.4518 5.97861 13.3271
-11.4734 5.91424 13.3441
-11.524 5.92585 13.3703
-11.5373 5.99831 13.3652
-11.5247 5.98452 13.3421
-11.4574 5.97362 13.386
-11.5654 5.96963 13.4105
-11.8717 6.03497 13.4275
-11.8456 6.07033 13.4298
-11.8774 6.11434 13.4281
-11.9195 6.1727 13.4428
-11.894 6.13137 13.4153
-11.8165 6.17453 13.4648
-11.8038 6.27133 13.5034
-11.8042 6.31212 13.5028
-11.3903 6.27952 13.4886
-11.2453 6.20543 13.5183
-11.0783 6.22072 13.5195
-10.8148 6.17531 13.5152
-10.8302 6.28203 13.5633
