ply
format ascii 1.0
element vertex 1171
property float x
property float y
property float z
element face 0
property list uchar int vertex_index
end_header
-0.282399 12.0182 -0.0247102
-0.313697 12.035 -0.0149423
-0.313697 12.035 -0.0149423
-0.312969 12.0331 -0.00563004
-0.312969 12.0331 -0.00563004
-0.312969 12.0331 -0.00563004
-0.312969 12.0331 -0.00563004
-0.312969 12.0331 -0.00563004
-0.312969 12.0331 -0.00563004
-0.312969 12.0331 -0.00563004
-0.303111 12.0507 0.00403213
-0.325158 12.0516 0.00378652
-0.325158 12.0516 0.00378652
-0.313907 12.0316 0.0041189
-0.313907 12.0316 0.0041189
-0.31319 12.0298 0.0134378
-0.31319 12.0298 0.0134378
-0.31319 12.0298 0.0134378
-0.314115 12.0283 0.0231926
-0.314115 12.0283 0.0231926
-0.313907 12.0316 0.0041189
-0.312969 12.0331 -0.00563004
-0.312969 12.0331 -0.00563004
-0.312969 12.0331 -0.00563004
-0.313697 12.035 -0.0149423
-0.313697 12.035 -0.0149423
-0.313907 12.0316 0.0041189
-0.313907 12.0316 0.0041189
-0.313907 12.0316 0.0041189
-0.313907 12.0316 0.0041189
-0.325158 12.0516 0.00378652
-0.325886 12.0535 -0.00552096
-0.325886 12.0535 -0.00552096
-0.325886 12.0535 -0.00552096
-0.325158 12.0516 0.00378652
-0.325158 12.0516 0.00378652
-0.325158 12.0516 0.00378652
-0.325158 12.0516 0.00378652
-0.325158 12.0516 0.00378652
-0.325158 12.0516 0.00378652
-0.325243 12.0578 0.00963178
-0.325243 12.0578 0.00963178
-0.325243 12.0578 0.00963178
-0.314923 12.0363 0.019709
-0.326176 12.0564 0.0193846
-0.314923 12.0363 0.019709
-0.325243 12.0578 0.00963178
-0.325243 12.0578 0.00963178
-0.325243 12.0578 0.00963178
-0.326176 12.0564 0.0193846
-0.313907 12.0316 0.0041189
-0.314636 12.0334 -0.00519291
-0.313907 12.0316 0.0041189
-0.314636 12.0334 -0.00519291
-0.314636 12.0334 -0.00519291
-0.293084 12.0132 0.00372017
-0.293084 12.0132 0.00372017
-0.313907 12.0316 0.0041189
-0.313907 12.0316 0.0041189
-0.313907 12.0316 0.0041189
-0.313907 12.0316 0.0041189
-0.313907 12.0316 0.0041189
-0.313907 12.0316 0.0041189
-0.313907 12.0316 0.0041189
-0.313907 12.0316 0.0041189
-0.314636 12.0334 -0.00519291
-0.314636 12.0334 -0.00519291
-0.313907 12.0316 0.0041189
-0.315744 12.0286 0.0236356
-0.316473 12.0305 0.0143247
-0.315289 12.0692 0.0134496
-0.303111 12.0507 0.00403213
-0.303111 12.0507 0.00403213
-0.313907 12.0316 0.0041189
-0.325158 12.0516 0.00378652
-0.313907 12.0316 0.0041189
-0.303111 12.0507 0.00403213
-0.303111 12.0507 0.00403213
-0.303111 12.0507 0.00403213
-0.303111 12.0507 0.00403213
-0.326814 12.052 0.0042337
-0.326814 12.052 0.0042337
-0.326814 12.052 0.0042337
-0.314832 12.0301 0.0138741
-0.314832 12.0301 0.0138741
-0.314832 12.0301 0.0138741
-0.304036 12.0492 0.013783
-0.304036 12.0492 0.013783
-0.304036 12.0492 0.013783
-0.304036 12.0492 0.013783
-0.314636 12.0334 -0.00519291
-0.314636 12.0334 -0.00519291
-0.314636 12.0334 -0.00519291
-0.314636 12.0334 -0.00519291
-0.314636 12.0334 -0.00519291
-0.314636 12.0334 -0.00519291
-0.314636 12.0334 -0.00519291
-0.314636 12.0334 -0.00519291
-0.314636 12.0334 -0.00519291
-0.314636 12.0334 -0.00519291
-0.314636 12.0334 -0.00519291
-0.314636 12.0334 -0.00519291
-0.313907 12.0316 0.0041189
-0.313907 12.0316 0.0041189
-0.313907 12.0316 0.0041189
-0.313907 12.0316 0.0041189
-0.312969 12.0331 -0.00563004
-0.313907 12.0316 0.0041189
-0.313907 12.0316 0.0041189
-0.312969 12.0331 -0.00563004
-0.314635 12.0302 -0.0199426
-0.314635 12.0302 -0.0199426
-0.314636 12.0334 -0.00519291
-0.314636 12.0334 -0.00519291
-0.313907 12.0316 0.0041189
-0.314636 12.0334 -0.00519291
-0.314636 12.0334 -0.00519291
-0.314636 12.0334 -0.00519291
-0.326814 12.052 0.0042337
-0.326814 12.052 0.0042337
-0.314832 12.0301 0.0138741
-0.313907 12.0316 0.0041189
-0.313907 12.0316 0.0041189
-0.313907 12.0316 0.0041189
-0.313907 12.0316 0.0041189
-0.313907 12.0316 0.0041189
-0.313907 12.0316 0.0041189
-0.313907 12.0316 0.0041189
-0.313907 12.0316 0.0041189
-0.313907 12.0316 0.0041189
-0.313907 12.0316 0.0041189
-0.313907 12.0316 0.0041189
-0.313907 12.0316 0.0041189
-0.313907 12.0316 0.0041189
-0.313907 12.0316 0.0041189
-0.313907 12.0316 0.0041189
-0.313907 12.0316 0.0041189
-0.313907 12.0316 0.0041189
-0.313907 12.0316 0.0041189
-0.325158 12.0516 0.00378652
-0.314636 12.0334 -0.00519291
-0.314636 12.0334 -0.00519291
-0.314636 12.0334 -0.00519291
-0.314636 12.0334 -0.00519291
-0.314636 12.0334 -0.00519291
-0.314636 12.0334 -0.00519291
-0.313993 12.0378 0.00995521
-0.313993 12.0378 0.00995521
-0.313993 12.0378 0.00995521
-0.313993 12.0378 0.00995521
-0.313907 12.0316 0.0041189
-0.313907 12.0316 0.0041189
-0.313911 12.0283 -0.0106293
-0.312969 12.0331 -0.00563004
-0.312969 12.0331 -0.00563004
-0.313907 12.0316 0.0041189
-0.313907 12.0316 0.0041189
-0.313907 12.0316 0.0041189
-0.313907 12.0316 0.0041189
-0.313907 12.0316 0.0041189
-0.314635 12.0302 -0.0199426
-0.314635 12.0302 -0.0199426
-0.314636 12.0334 -0.00519291
-0.314636 12.0334 -0.00519291
-0.314636 12.0334 -0.00519291
-0.314636 12.0334 -0.00519291
-0.314636 12.0334 -0.00519291
-0.314636 12.0334 -0.00519291
-0.315561 12.032 0.00456274
-0.314832 12.0301 0.0138741
-0.325158 12.0516 0.00378652
-0.312969 12.0331 -0.00563004
-0.312975 12.0298 -0.02038
-0.312975 12.0298 -0.02038
-0.312975 12.0298 -0.02038
-0.312975 12.0298 -0.02038
-0.312969 12.0331 -0.00563004
-0.312969 12.0331 -0.00563004
-0.312969 12.0331 -0.00563004
-0.312969 12.0331 -0.00563004
-0.325158 12.0516 0.00378652
-0.325158 12.0516 0.00378652
-0.325158 12.0516 0.00378652
-0.325886 12.0535 -0.00552096
-0.325158 12.0516 0.00378652
-0.325158 12.0516 0.00378652
-0.325162 12.0483 -0.0109643
-0.325162 12.0483 -0.0109643
-0.324217 12.0531 -0.00596141
-0.312701 12.0704 0.00327051
-0.313907 12.0316 0.0041189
-0.313911 12.0283 -0.0106293
-0.313911 12.0283 -0.0106293
-0.314832 12.0301 0.0138741
-0.326085 12.0501 0.0135408
-0.326173 12.0531 0.0046336
-0.314635 12.0302 -0.0199426
-0.314636 12.0334 -0.00519291
-0.314635 12.0302 -0.0199426
-0.314635 12.0302 -0.0199426
-0.314636 12.0334 -0.00519291
-0.314636 12.0334 -0.00519291
-0.314636 12.0334 -0.00519291
-0.314636 12.0334 -0.00519291
-0.314636 12.0334 -0.00519291
-0.314636 12.0334 -0.00519291
-0.314636 12.0334 -0.00519291
-0.314636 12.0334 -0.00519291
-0.314636 12.0334 -0.00519291
-0.314636 12.0334 -0.00519291
-0.313907 12.0316 0.0041189
-0.313907 12.0316 0.0041189
-0.313907 12.0316 0.0041189
-0.313907 12.0316 0.0041189
-0.313907 12.0316 0.0041189
-0.313907 12.0316 0.0041189
-0.313907 12.0316 0.0041189
-0.313907 12.0316 0.0041189
-0.314832 12.0301 0.0138741
-0.29401 12.0117 0.013475
-0.325158 12.0516 0.00378652
-0.324217 12.0531 -0.00596141
-0.324217 12.0531 -0.00596141
-0.324217 12.0531 -0.00596141
-0.324217 12.0531 -0.00596141
-0.324217 12.0531 -0.00596141
-0.324217 12.0531 -0.00596141
-0.324217 12.0531 -0.00596141
-0.324217 12.0531 -0.00596141
-0.324217 12.0531 -0.00596141
-0.324945 12.055 -0.0152693
-0.324297 12.0594 -0.000114714
-0.324297 12.0594 -0.000114714
-0.314832 12.0301 0.0138741
-0.324945 12.055 -0.0152693
-0.324945 12.055 -0.0152693
-0.324945 12.055 -0.0152693
-0.324945 12.055 -0.0152693
-0.324297 12.0594 -0.000114714
-0.314832 12.0301 0.0138741
-0.313907 12.0316 0.0041189
-0.313907 12.0316 0.0041189
-0.312486 12.028 0.0227637
-0.300986 12.0453 0.0320079
-0.313907 12.0316 0.0041189
-0.314636 12.0334 -0.00519291
-0.313907 12.0316 0.0041189
-0.313697 12.035 -0.0149423
-0.322796 12.0495 0.0126755
-0.300745 12.0486 0.0129319
-0.313907 12.0316 0.0041189
-0.312975 12.0298 -0.02038
-0.312975 12.0298 -0.02038
-0.313911 12.0283 -0.0106293
-0.312969 12.0331 -0.00563004
-0.312969 12.0331 -0.00563004
-0.312975 12.0298 -0.02038
-0.312975 12.0298 -0.02038
-0.324217 12.0531 -0.00596141
-0.324223 12.0498 -0.020714
-0.313907 12.0316 0.0041189
-0.313907 12.0316 0.0041189
-0.313907 12.0316 0.0041189
-0.313907 12.0316 0.0041189
-0.313907 12.0316 0.0041189
-0.314636 12.0334 -0.00519291
-0.313907 12.0316 0.0041189
-0.313907 12.0316 0.0041189
-0.315561 12.032 0.00456274
-0.315561 12.032 0.00456274
-0.325886 12.0535 -0.00552096
-0.325886 12.0535 -0.00552096
-0.325243 12.0578 0.00963178
-0.325886 12.0535 -0.00552096
-0.325886 12.0535 -0.00552096
-0.314636 12.0334 -0.00519291
-0.314636 12.0334 -0.00519291
-0.314636 12.0334 -0.00519291
-0.325886 12.0535 -0.00552096
-0.314636 12.0334 -0.00519291
-0.313907 12.0316 0.0041189
-0.313907 12.0316 0.0041189
-0.313907 12.0316 0.0041189
-0.313907 12.0316 0.0041189
-0.313907 12.0316 0.0041189
-0.31319 12.0298 0.0134378
-0.313907 12.0316 0.0041189
-0.313907 12.0316 0.0041189
-0.313907 12.0316 0.0041189
-0.313907 12.0316 0.0041189
-0.314636 12.0334 -0.00519291
-0.325886 12.0535 -0.00552096
-0.325886 12.0535 -0.00552096
-0.326814 12.052 0.0042337
-0.326814 12.052 0.0042337
-0.326814 12.052 0.0042337
-0.314636 12.0334 -0.00519291
-0.314636 12.0334 -0.00519291
-0.314636 12.0334 -0.00519291
-0.325886 12.0535 -0.00552096
-0.313907 12.0316 0.0041189
-0.313907 12.0316 0.0041189
-0.313907 12.0316 0.0041189
-0.313907 12.0316 0.0041189
-0.313907 12.0316 0.0041189
-0.313907 12.0316 0.0041189
-0.313907 12.0316 0.0041189
-0.313907 12.0316 0.0041189
-0.313907 12.0316 0.0041189
-0.313907 12.0316 0.0041189
-0.324947 12.0517 -0.0300233
-0.324947 12.0517 -0.0300233
-0.324947 12.0517 -0.0300233
-0.324223 12.0498 -0.020714
-0.324947 12.0517 -0.0300233
-0.324947 12.0517 -0.0300233
-0.324945 12.055 -0.0152693
-0.324947 12.0517 -0.0300233
-0.325886 12.0535 -0.00552096
-0.325886 12.0535 -0.00552096
-0.314832 12.0301 0.0138741
-0.314636 12.0334 -0.00519291
-0.313907 12.0316 0.0041189
-0.313907 12.0316 0.0041189
-0.313907 12.0316 0.0041189
-0.313907 12.0316 0.0041189
-0.313907 12.0316 0.0041189
-0.313907 12.0316 0.0041189
-0.313907 12.0316 0.0041189
-0.313697 12.035 -0.0149423
-0.312969 12.0331 -0.00563004
-0.312969 12.0331 -0.00563004
-0.312969 12.0331 -0.00563004
-0.312969 12.0331 -0.00563004
-0.312969 12.0331 -0.00563004
-0.312969 12.0331 -0.00563004
-0.312969 12.0331 -0.00563004
-0.312969 12.0331 -0.00563004
-0.312969 12.0331 -0.00563004
-0.312969 12.0331 -0.00563004
-0.314636 12.0334 -0.00519291
-0.314636 12.0334 -0.00519291
-0.314636 12.0334 -0.00519291
-0.314636 12.0334 -0.00519291
-0.313907 12.0316 0.0041189
-0.312969 12.0331 -0.00563004
-0.313697 12.035 -0.0149423
-0.313907 12.0316 0.0041189
-0.313907 12.0316 0.0041189
-0.313697 12.035 -0.0149423
-0.3245 12.0159 -0.01486
-0.313697 12.035 -0.0149423
-0.313697 12.035 -0.0149423
-0.3245 12.0159 -0.01486
-0.3245 12.0159 -0.01486
-0.3245 12.0159 -0.01486
-0.3245 12.0159 -0.01486
-0.3245 12.0159 -0.01486
-0.3245 12.0159 -0.01486
-0.3245 12.0159 -0.01486
-0.325886 12.0535 -0.00552096
-0.325886 12.0535 -0.00552096
-0.325886 12.0535 -0.00552096
-0.325243 12.0578 0.00963178
-0.327729 12.0505 0.0139946
-0.326814 12.052 0.0042337
-0.325886 12.0535 -0.00552096
-0.314636 12.0334 -0.00519291
-0.326814 12.052 0.0042337
-0.326814 12.052 0.0042337
-0.326814 12.052 0.0042337
-0.314636 12.0334 -0.00519291
-0.313907 12.0316 0.0041189
-0.301682 12.0471 0.0226757
-0.301682 12.0471 0.0226757
-0.325158 12.0516 0.00378652
-0.325158 12.0516 0.00378652
-0.325158 12.0516 0.00378652
-0.325158 12.0516 0.00378652
-0.325158 12.0516 0.00378652
-0.314636 12.0334 -0.00519291
-0.314636 12.0334 -0.00519291
-0.314636 12.0334 -0.00519291
-0.314636 12.0334 -0.00519291
-0.314636 12.0334 -0.00519291
-0.314636 12.0334 -0.00519291
-0.314636 12.0334 -0.00519291
-0.314636 12.0334 -0.00519291
-0.314636 12.0334 -0.00519291
-0.314636 12.0334 -0.00519291
-0.314636 12.0334 -0.00519291
-0.314636 12.0334 -0.00519291
-0.314636 12.0334 -0.00519291
-0.315561 12.032 0.00456274
-0.315561 12.032 0.00456274
-0.316473 12.0305 0.0143247
-0.314636 12.0334 -0.00519291
-0.314636 12.0334 -0.00519291
-0.314636 12.0334 -0.00519291
-0.336182 12.075 -0.0155955
-0.324945 12.055 -0.0152693
-0.336182 12.075 -0.0155955
-0.336182 12.075 -0.0155955
-0.336182 12.075 -0.0155955
-0.336182 12.075 -0.0155955
-0.335454 12.0731 -0.00629191
-0.336182 12.075 -0.0155955
-0.336182 12.075 -0.0155955
-0.335454 12.0731 -0.00629191
-0.335454 12.0731 -0.00629191
-0.346984 12.056 -0.0155131
-0.327353 12.0771 -0.0245145
-0.346984 12.056 -0.0155131
-0.335747 12.0359 -0.015187
-0.346984 12.056 -0.0155131
-0.346984 12.056 -0.0155131
-0.346984 12.056 -0.0155131
-0.347928 12.0545 -0.00576138
-0.336182 12.075 -0.0155955
-0.347928 12.0545 -0.00576138
-0.347928 12.0545 -0.00576138
-0.316335 12.0537 -0.00514454
-0.324611 12.0883 0.0302753
-0.319548 12.0166 0.0627477
-0.328176 12.01 0.0241926
-0.335747 12.0359 -0.015187
-0.315808 12.0942 -0.0153004
-0.303857 12.0724 -0.00566642
-0.313755 12.1011 0.0243233
-0.350931 12.0564 0.0868924
-0.319258 12.0492 0.0579663
-0.315394 12.0552 -0.0148914
-0.289578 12.0826 0.0408929
-0.29879 12.0634 0.0405957
-0.314441 12.0567 -0.024632
-0.314441 12.0567 -0.024632
-0.313717 12.0549 -0.0153229
-0.335747 12.0359 -0.015187
-0.333341 12.0678 0.021661
-0.288918 12.0809 0.0502422
-0.326618 12.0752 -0.0152173
-0.315394 12.0552 -0.0148914
-0.315394 12.0552 -0.0148914
-0.314671 12.0533 -0.00558276
-0.316335 12.0537 -0.00514454
-0.316335 12.0537 -0.00514454
-0.315081 12.0924 -0.00599664
-0.315081 12.0924 -0.00599664
-0.315394 12.0552 -0.0148914
-0.326618 12.0752 -0.0152173
-0.335747 12.0359 -0.015187
-0.335747 12.0359 -0.015187
-0.335747 12.0359 -0.015187
-0.31613 12.057 -0.024193
-0.316547 12.0961 -0.0245971
-0.358945 12.0779 -0.0251311
-0.327353 12.0771 -0.0245145
-0.326618 12.0752 -0.0152173
-0.326618 12.0752 -0.0152173
-0.337438 12.0562 -0.0151336
-0.346984 12.056 -0.0155131
-0.346984 12.056 -0.0155131
-0.346984 12.056 -0.0155131
-0.34772 12.0578 -0.0248102
-0.346984 12.056 -0.0155131
-0.35821 12.076 -0.0158384
-0.346984 12.056 -0.0155131
-0.347928 12.0545 -0.00576138
-0.347204 12.0526 0.00354237
-0.358741 12.0355 -0.00567406
-0.336689 12.0344 -0.00543422
-0.324945 12.055 -0.0152693
-0.324945 12.055 -0.0152693
-0.336182 12.075 -0.0155955
-0.346984 12.056 -0.0155131
-0.346984 12.056 -0.0155131
-0.346984 12.056 -0.0155131
-0.346984 12.056 -0.0155131
-0.346984 12.056 -0.0155131
-0.335747 12.0359 -0.015187
-0.336689 12.0344 -0.00543422
-0.336689 12.0344 -0.00543422
-0.336182 12.075 -0.0155955
-0.336397 12.0716 0.00345501
-0.336182 12.075 -0.0155955
-0.34626 12.0541 -0.00620892
-0.34626 12.0541 -0.00620892
-0.34561 12.0585 0.00894639
-0.347284 12.0589 0.00939375
-0.338532 12.0315 0.0140901
-0.325886 12.0535 -0.00552096
-0.336182 12.075 -0.0155955
-0.336182 12.075 -0.0155955
-0.336182 12.075 -0.0155955
-0.346984 12.056 -0.0155131
-0.335747 12.0359 -0.015187
-0.335747 12.0359 -0.015187
-0.335747 12.0359 -0.015187
-0.324217 12.0531 -0.00596141
-0.336397 12.0716 0.00345501
-0.336182 12.075 -0.0155955
-0.336182 12.075 -0.0155955
-0.336182 12.075 -0.0155955
-0.346984 12.056 -0.0155131
-0.346984 12.056 -0.0155131
-0.346984 12.056 -0.0155131
-0.335023 12.0341 -0.00587845
-0.335023 12.0341 -0.00587845
-0.335747 12.0359 -0.015187
-0.336182 12.075 -0.0155955
-0.336182 12.075 -0.0155955
-0.336182 12.075 -0.0155955
-0.336182 12.075 -0.0155955
-0.336182 12.075 -0.0155955
-0.346984 12.056 -0.0155131
-0.335023 12.0341 -0.00587845
-0.335023 12.0341 -0.00587845
-0.335023 12.0341 -0.00587845
-0.325886 12.0535 -0.00552096
-0.336182 12.075 -0.0155955
-0.337125 12.0735 -0.00584814
-0.346984 12.056 -0.0155131
-0.335747 12.0359 -0.015187
-0.335747 12.0359 -0.015187
-0.335747 12.0359 -0.015187
-0.335747 12.0359 -0.015187
-0.347502 12.0154 -0.00534694
-0.335747 12.0359 -0.015187
-0.347928 12.0545 -0.00576138
-0.347928 12.0545 -0.00576138
-0.346984 12.056 -0.0155131
-0.346984 12.056 -0.0155131
-0.327103 12.036 -0.00616373
-0.315871 12.016 -0.00583742
-0.347502 12.0154 -0.00534694
-0.315611 12.0518 0.00416369
-0.314676 12.0566 0.00918001
-0.303863 12.0756 0.00910078
-0.315086 12.0956 0.00877318
-0.313898 12.0529 0.00262756
-0.324721 12.0338 0.00271135
-0.345964 12.0914 0.00268473
-0.314366 12.0906 0.00331414
-0.334738 12.0713 0.0030187
-0.334738 12.0713 0.0030187
-0.334738 12.0713 0.0030187
-0.335034 12.0742 0.0279192
-0.335759 12.0793 0.0333739
-0.336494 12.0811 0.0240738
-0.347416 12.0982 -0.00115228
-0.325509 12.0419 -0.000763372
-0.325509 12.0419 -0.000763372
-0.325509 12.0419 -0.000763372
-0.31289 12.0244 0.0240247
-0.31729 12.0205 0.0774221
-0.318167 12.0159 0.0724336
-0.324782 12.0401 0.00854465
-0.314913 12.0608 0.0329732
-0.315342 12.0565 -0.0159977
-0.315342 12.0565 -0.0159977
-0.314613 12.0579 0.0080775
-0.326161 12.0408 -0.001152
-0.325432 12.0389 0.00815626
-0.312486 12.0525 0.0360428
-0.298588 12.0256 0.0737845
-0.303385 12.0379 0.00840456
-0.315234 12.0236 0.024067
-0.30347 12.0442 0.0142424
-0.315346 12.0598 -0.00123017
-0.314613 12.0579 0.0080775
-0.326378 12.0342 0.00314552
-0.325433 12.0357 -0.0066054
-0.325433 12.0357 -0.0066054
-0.326379 12.0374 0.0179055
-0.325332 12.0027 0.0334589
-0.324781 12.0433 0.0233068
-0.336728 12.0652 0.013683
-0.35757 12.0837 0.0140878
-0.325913 12.0842 0.013607
-0.303683 12.0408 0.0332966
-0.315642 12.0594 0.0089014
-0.314281 12.0219 -0.000442692
-0.324781 12.0433 0.0233068
-0.324782 12.0401 0.00854465
-0.313245 12.0573 0.0177782
-0.302433 12.0763 0.0176972
-0.313245 12.0573 0.0177782
-0.313963 12.0591 0.0084637
-0.313245 12.0573 0.0177782
-0.313963 12.0591 0.0084637
-0.324782 12.0401 0.00854465
-0.302735 12.0391 0.00878873
-0.302017 12.0372 0.0181076
-0.334086 12.0757 0.0181746
-0.302017 12.0372 0.0181076
-0.334086 12.0757 0.0181746
-0.302735 12.0391 0.00878873
-0.313554 12.02 0.00886965
-0.323567 12.0575 0.00919153
-0.302735 12.0391 0.00878873
-0.324782 12.0401 0.00854465
-0.314912 12.0576 0.0182084
-0.323567 12.0575 0.00919153
-0.324782 12.0401 0.00854465
-0.302735 12.0391 0.00878873
-0.313554 12.02 0.00886965
-0.324782 12.0401 0.00854465
-0.302735 12.0391 0.00878873
-0.325509 12.0419 -0.000763372
-0.313554 12.02 0.00886965
-0.314501 12.0185 0.0186197
-0.326458 12.0404 0.00898611
-0.314912 12.0576 0.0182084
-0.325732 12.0385 0.0182937
-0.294867 12.0396 0.00959453
-0.327395 12.0389 0.0187419
-0.305359 12.0578 0.0185809
-0.315435 12.017 0.0283761
-0.304615 12.0361 0.0282864
-0.305078 12.0738 0.0289708
-0.315228 12.0204 0.00930781
-0.325509 12.0419 -0.000763372
-0.325509 12.0419 -0.000763372
-0.325732 12.0385 0.0182937
-0.325509 12.0419 -0.000763372
-0.314281 12.0219 -0.000442692
-0.325509 12.0419 -0.000763372
-0.314281 12.0219 -0.000442692
-0.336334 12.0229 -0.000682449
-0.325509 12.0419 -0.000763372
-0.316101 12.0971 0.00959609
-0.346558 12.057 0.0186958
-0.314913 12.0608 0.0329732
-0.327859 12.0799 0.0341954
-0.314253 12.0652 0.0481336
-0.313962 12.0623 0.0232302
-0.295808 12.0414 0.0341083
-0.313963 12.0591 0.0084637
-0.325733 12.0418 0.0330541
-0.314503 12.0218 0.0333775
-0.303682 12.0375 0.0185344
-0.325509 12.0419 -0.000763372
-0.325509 12.0419 -0.000763372
-0.314501 12.0185 0.0186197
-0.326458 12.0404 0.00898611
-0.326458 12.0404 0.00898611
-0.326458 12.0404 0.00898611
-0.325509 12.0419 -0.000763372
-0.324781 12.0433 0.0233068
-0.325733 12.0418 0.0330541
-0.334139 12.0819 0.0240328
-0.324782 12.0401 0.00854465
-0.334804 12.0775 0.00886563
-0.324782 12.0401 0.00854465
-0.324781 12.0433 0.0233068
-0.345364 12.1019 0.0237124
-0.324782 12.0401 0.00854465
-0.324117 12.0444 0.0237043
-0.34561 12.0585 0.00894639
-0.336058 12.0421 0.0244739
-0.325585 12.0481 0.00509872
-0.293257 12.0487 0.029771
-0.304509 12.0489 0.0298432
-0.324845 12.0462 0.014398
-0.293477 12.0454 0.048821
-0.283387 12.0663 0.0394333
-0.324116 12.0477 0.0384669
-0.312889 12.0276 0.0387847
-0.303024 12.0452 0.0484525
-0.313843 12.0261 0.0485311
-0.314576 12.028 0.0392223
-0.324849 12.0495 0.029162
-0.324849 12.0495 0.029162
-0.313298 12.0667 0.0383926
-0.324849 12.0495 0.029162
-0.314034 12.0685 0.0290883
-0.324116 12.0477 0.0384669
-0.324116 12.0477 0.0384669
-0.303738 12.0669 0.0387629
-0.350407 12.0671 0.107902
-0.350311 12.0574 0.0636131
-0.345683 12.068 0.0295729
-0.345683 12.068 0.0295729
-0.345683 12.068 0.0295729
-0.345683 12.068 0.0295729
-0.344714 12.0695 0.019833
-0.344714 12.0695 0.019833
-0.34495 12.0661 0.0388723
-0.31983 12.0953 0.085321
-0.329979 12.0745 0.0947383
-0.324117 12.0444 0.0237043
-0.324117 12.0444 0.0237043
-0.324845 12.0462 0.014398
-0.324845 12.0462 0.014398
-0.31457 12.0247 0.0244626
-0.324171 12.0538 0.0443333
-0.313235 12.0398 0.0843312
-0.314469 12.0443 0.13379
-0.347976 12.0902 0.208385
-0.347597 12.1034 0.278178
-0.401338 12.1272 0.327677
-0.434933 12.1761 0.417361
-0.455691 12.2068 0.531949
-0.46051 12.2215 0.681882
-0.492774 12.2736 0.785301
-0.517563 12.2873 0.919153
-0.622879 12.3821 1.07889
-0.787582 12.5007 1.29726
-0.637049 12.3871 1.39077
-0.725317 12.4303 1.51831
-0.878603 12.5912 1.64901
-1.04687 12.6766 1.88436
-1.13041 12.7336 2.10853
-1.17266 12.7999 2.30045
-1.28414 12.864 2.58181
-1.55794 13.044 2.84874
-1.705 13.0423 3.05271
-1.7354 13.1049 3.30246
-1.87454 13.133 3.49385
-2.02638 13.2136 3.74864
-2.10556 13.3235 3.92636
-2.27472 13.3581 4.13915
-2.34833 13.3723 4.31951
-2.47638 13.3381 4.44255
-2.65012 13.3729 4.64501
-2.80378 13.4329 4.81065
-2.95527 13.4375 4.98892
-3.10645 13.4738 5.13684
-3.26784 13.4507 5.26909
-3.4651 13.399 5.40754
-3.66682 13.2939 5.52506
-3.8174 13.235 5.65626
-3.96905 13.2026 5.74635
-4.06708 13.176 5.83193
-4.19903 13.1774 5.88773
-4.30642 13.1116 5.99789
-4.47935 13.0294 6.0874
-4.57586 12.9503 6.11241
-4.64556 12.9106 6.22164
-4.74283 12.863 6.30276
-4.81983 12.8064 6.34587
-4.88851 12.7514 6.33698
-4.95379 12.7118 6.36514
-5.0685 12.559 6.38524
-5.13715 12.5601 6.42757
-5.18992 12.4976 6.45077
-5.26295 12.4024 6.45173
-5.3261 12.3616 6.44107
-5.42476 12.2348 6.48848
-5.51294 12.2027 6.48099
-5.62632 12.0095 6.44071
-5.72945 11.923 6.41605
-5.76851 11.864 6.39623
-5.79157 11.8491 6.37822
-5.91452 11.7598 6.35492
-5.99819 11.6944 6.30202
-6.04116 11.6377 6.28589
-6.10885 11.5964 6.25192
-6.14951 11.5392 6.23186
-6.28302 11.3862 6.20903
-6.45143 11.2444 6.20977
-6.53362 11.172 6.17012
-6.64381 11.0733 6.16022
-6.69324 11.0554 6.14008
-6.78674 11.0091 6.12153
-6.87912 10.929 6.12227
-7.00099 10.8018 6.1048
-7.072 10.7526 6.10545
-7.13127 10.7123 6.08746
-7.24224 10.6535 6.08838
-7.38698 10.5442 6.10569
-7.4906 10.4473 6.0947
-7.5703 10.423 6.11162
-7.67245 10.3219 6.10298
-7.76642 10.2832 6.10314
-7.84716 10.218 6.13445
-7.96841 10.1416 6.14455
-8.05268 10.114 6.15618
-8.14489 10.0328 6.17079
-8.25442 9.92353 6.19107
-8.35997 9.86867 6.19317
-8.4436 9.79902 6.19783
-8.54365 9.70387 6.2153
-8.63588 9.66608 6.24781
-8.78851 9.58451 6.25559
-8.85919 9.52962 6.25591
-8.96991 9.46261 6.2702
-9.07459 9.40911 6.27938
-9.17634 9.31364 6.31493
-9.24469 9.30166 6.31515
-9.38898 9.2349 6.31233
-9.46982 9.1665 6.33842
-9.52202 9.18139 6.32594
-9.61234 9.14091 6.33511
-9.70171 9.05881 6.33574
-9.83648 8.96466 6.36158
-9.88408 8.93792 6.37872
-9.96521 8.86905 6.40179
-10.0706 8.85966 6.40872
-10.1721 8.80656 6.44355
-10.2432 8.75203 6.45712
-10.2809 8.73898 6.46985
-10.3872 8.67051 6.49165
-10.4676 8.68834 6.55055
-10.5636 8.60817 6.64633
-10.6515 8.56782 6.64644
-10.7011 8.49888 6.60404
-10.825 8.46327 6.62929
-10.9094 8.44039 6.6806
-11.0005 8.44299 6.71041
-11.0616 8.40272 6.74535
-11.1273 8.45273 6.7737
-11.2367 8.38331 6.82219
-11.2951 8.34309 6.8653
-11.4379 8.34006 6.92544
-11.4848 8.35464 6.96812
-11.5534 8.34009 7.00303
-11.6318 8.37384 7.06288
-11.6764 8.44836 7.12225
-11.8065 8.41579 7.1695
-11.8681 8.41866 7.21231
-11.912 8.45208 7.25913
-12.0155 8.44422 7.31929
-12.1021 8.42401 7.36232
-12.1765 8.5019 7.39967
-12.1935 8.56965 7.45579
-12.2917 8.5188 7.50765
-12.3333 8.51022 7.58098
-12.368 8.55519 7.61501
-12.4189 8.5255 7.66323
-12.4479 8.60685 7.74494
-12.5174 8.66176 7.77373
-12.5952 8.65487 7.82552
-12.6374 8.68607 7.89838
-12.6904 8.69891 7.93743
-12.8247 8.79917 7.96967
-12.9151 8.98037 8.01322
-13.2622 9.61072 8.04006
-13.0479 9.05072 8.10567
-13.3433 9.69622 8.11962
-13.1407 9.10024 8.26132
-13.2115 9.14992 8.28146
-13.2222 9.18208 8.28901
-13.2592 9.22649 8.31843
-13.3503 9.26464 8.35482
-13.3966 9.33938 8.36636
-13.4642 9.39593 8.37286
-13.47 9.43944 8.41064
-13.4711 9.4739 8.47172
-13.5043 9.59311 8.49008
-13.5995 9.75518 8.52992
-13.5818 9.78616 8.53765
-13.6059 9.85137 8.54415
-13.6099 9.93714 8.55101
-13.6231 9.92637 8.54626
-13.639 10.0432 8.57018
-13.6209 10.076 8.5908
-13.5967 10.1935 8.60656
-13.6528 10.265 8.63871
-13.6407 10.3346 8.64615
-13.6407 10.4193 8.67537
-13.6675 10.4766 8.71745
-13.6293 10.5297 8.73834
-13.6471 10.6023 8.7503
-13.6643 10.7164 8.76125
-13.6495 10.7912 8.78106
-13.6748 10.8968 8.77834
-13.6616 10.9696 8.81157
-13.6873 11.0267 8.82716
-13.669 11.1411 8.83749
-13.6833 11.2248 8.86573
-13.6889 11.3074 8.88577
-13.7057 11.3814 8.88429
-13.6871 11.4884 8.90854
-13.6625 11.5671 8.92091
-13.6729 11.5927 8.96811
-13.6961 11.7589 8.96411
-13.7071 11.8965 8.98183
-13.7561 12.0562 8.9861
-13.7927 12.1419 9.01064
-13.7918 12.2806 9.03723
-13.8089 12.3959 9.04257
-13.8628 12.5999 9.06662
-13.8948 12.6437 9.06535
-13.8978 12.7792 9.07142
-13.9484 12.8372 9.10884
-13.9672 12.9051 9.10547
-13.9894 12.9607 9.14342
-13.9953 13.0353 9.15065
-14.0435 13.2019 9.15032
-14.0815 13.2502 9.17277
-14.1198 13.368 9.17855
-14.1631 13.4412 9.16834
-14.2313 13.5276 9.1874
-14.2583 13.6589 9.19197
-14.3073 13.6434 9.19887
-14.376 13.7666 9.22431
-14.3678 13.9109 9.21086
-14.4899 14.0724 9.23109
-14.5409 14.2291 9.26077
-14.6134 14.397 9.25623
-14.7099 14.4974 9.23311
-14.7779 14.6265 9.2419
-14.8654 14.7474 9.22521
-14.9556 14.8875 9.22856
-15.0035 15.0174 9.1984
-15.0837 15.189 9.23658
-15.1852 15.3624 9.22663
-15.2492 15.4983 9.19483
-15.3779 15.6358 9.21686
-15.4526 15.8037 9.21925
-15.5104 16.0095 9.1881
-15.5932 16.1706 9.20256
-15.6627 16.3402 9.17084
-15.72 16.4958 9.16461
-15.8074 16.6566 9.16487
-15.8672 16.8042 9.17374
-15.8832 17.0043 9.18788
-15.9203 17.162 9.17581
-15.9564 17.337 9.20439
-15.9677 17.5322 9.20556
-15.9907 17.7105 9.19347
-16.0486 17.858 9.1609
-16.1202 17.9913 9.16982
-16.163 18.12 9.16921
-16.1879 18.2332 9.17115
-16.1964 18.4463 9.17156
-16.1876 18.5824 9.19956
-16.1785 18.7505 9.17402
-16.2448 18.8571 9.17807
-16.2275 19.0062 9.14336
-16.2161 19.1329 9.14253
-16.2746 19.1576 9.13895
-16.2658 19.2859 9.13558
-16.3026 19.4217 9.14904
-16.2985 19.57 9.18551
-16.3111 19.7205 9.18846
-16.3332 19.7712 9.16395
-16.3459 19.977 9.20145
-16.3757 20.1107 9.19037
-16.3645 20.2247 9.13116
-16.4277 20.3502 9.13295
-16.4237 20.4773 9.12172
-16.4913 20.564 9.13623
-16.5095 20.7595 9.14693
-16.4874 20.8627 9.12326
-16.482 20.9179 9.12119
-16.4634 21.0654 9.12221
-16.4646 21.1467 9.11985
-16.462 21.1968 9.13556
-16.4892 21.3256 9.1181
-16.5382 21.4 9.12729
-16.5243 21.4857 9.11657
-16.4936 21.6169 9.10174
-16.5415 21.7231 9.15781
-16.4863 21.7866 9.15654
-15.9889 22.2608 9.15067
-16.3868 21.8804 9.15669
-16.3913 21.8857 9.18233
-16.4347 21.8618 9.20041
-16.5024 21.892 9.22175
-16.515 21.8871 9.23553
-16.389 22.0802 9.32741
-16.3859 22.089 9.30854
-16.2971 22.1685 9.32851
-16.2193 22.1701 9.33597
-16.2593 22.1228 9.34059
-16.3116 22.0688 9.3409
-16.2727 22.0661 9.3444
-16.2406 22.0906 9.32067
-16.2585 22.0919 9.32025
-16.219 22.061 9.35046
-16.2156 22.0276 9.36472
-16.2769 21.9514 9.34785
-16.3207 21.8932 9.40185
-16.2822 21.804 9.39796
-16.3154 21.7207 9.47715
-16.3322 21.6393 9.46775
-16.38 21.498 9.51288
-16.4225 21.4017 9.48384
-16.386 21.3326 9.51548
-16.342 21.286 9.52199
-16.3689 21.1356 9.5226
-16.3512 21.0203 9.48821
-16.3313 20.8755 9.47508
-16.3726 20.6884 9.47068
-16.3799 20.518 9.47369
-16.6957 19.8295 9.35986
-16.7339 19.6041 9.37102
-16.4668 19.8889 9.54502
-16.5166 19.5965 9.50219
-16.5353 19.3927 9.49764
-16.6181 19.1236 9.51892
-16.7988 18.5974 9.49293
-16.8103 18.3198 9.47607
-16.7804 17.9934 9.46843
-16.7774 17.752 9.44782
-16.8079 17.3859 9.48262
-16.8565 17.1326 9.48328
-16.8576 16.8517 9.50019
-16.9369 16.555 9.49867
-16.9364 16.3057 9.46167
-16.9836 16.0436 9.44505
-17.1667 15.5765 9.4247
-17.169 15.3054 9.43423
-17.2061 14.9958 9.42093
-17.2402 14.7235 9.47628
-17.3323 14.3789 9.4211
-17.3764 13.9664 9.43251
-17.4062 13.7533 9.45284
-17.4959 13.4789 9.4594
-17.5957 13.1968 9.38513
-17.6658 12.9042 9.38359
-17.7811 12.6429 9.39514
-17.856 12.3359 9.35887
-17.914 11.9941 9.35788
-18.0027 11.755 9.3967
-18.1587 11.4688 9.41041
-18.2258 11.3319 9.49531
-18.2628 11.0333 9.40362
-18.4525 10.7801 9.53268
-18.5686 10.4654 9.45447
-18.6221 10.2841 9.39093
-18.8117 9.93967 9.35318
-18.9137 9.73264 9.33935
-19.0292 9.52752 9.34991
-19.1743 9.27533 9.34619
-19.9763 8.37224 9.14037
-20.0955 8.15669 9.12108
-20.2473 7.89342 9.12659
-19.802 8.08493 9.31046
-20.4821 7.37344 9.12155
-20.034 7.53177 9.2404
-20.7082 6.75878 9.05499
-20.8067 6.50231 9.03404
-20.4128 6.55476 9.12559
-20.5105 6.31148 9.12747
-20.646 5.99332 9.08145
-20.6475 5.81536 9.07886
-21.105 5.2798 8.99594
-21.1553 5.01916 9.01804
-21.2027 4.78927 8.97169
-21.2363 4.48933 8.96856
-21.2674 4.22323 9.00511
-21.3036 4.04309 8.99802
-21.3446 3.82258 9.0014
-21.3425 3.60451 9.01349
-21.386 3.37389 9.0151
-21.3662 3.12528 9.04304
-21.3808 2.90333 8.99943
-21.373 2.42843 8.98701
-21.333 2.09445 8.96116
-21.2845 1.67812 8.9992
-21.3295 1.44544 8.96653
-21.3513 1.21772 9.04631
-21.3763 1.03993 9.00908
-21.3612 0.724559 8.96272
-21.367 0.418539 8.97234
-21.4373 0.142072 8.9693
-21.4399 -0.061026 8.95967
-21.5489 -0.363248 8.9539
-21.5712 -0.63476 8.94274
-21.5823 -1.06273 8.95939
-21.6139 -1.39611 8.96384
-21.6322 -1.6651 8.8922
-21.6441 -2.02646 8.87886
-21.725 -2.35616 8.86522
-21.7923 -2.63833 8.87628
-21.8195 -2.95911 8.82689
-21.8738 -3.18508 8.83687
-21.9002 -3.54308 8.8224
-21.963 -3.82285 8.7965
-22.0235 -4.13765 8.74692
-22.0639 -4.45554 8.7425
-22.1237 -4.76881 8.77283
-22.136 -5.03472 8.78082
-22.1814 -5.31737 8.74416
-22.1686 -5.62305 8.73847
-22.2447 -5.89507 8.71158
-22.217 -6.20328 8.67325
-22.2295 -6.43714 8.70358
-22.2798 -6.80181 8.68699
-22.2384 -7.19586 8.73545
-22.2064 -7.46088 8.71791
-22.1803 -7.73566 8.67902
-22.2154 -8.04757 8.68478
-22.1673 -8.35397 8.62343
-22.1585 -8.58594 8.61778
-22.1275 -8.97134 8.631
-22.1182 -9.19878 8.62631
-22.1081 -9.46356 8.64397
-22.0753 -9.72751 8.65973
-22.0215 -10.0298 8.70738
-22.0172 -10.34 8.67898
-21.9697 -10.6066 8.7058
-21.8802 -10.9093 8.71987
-21.8464 -11.1698 8.71372
-21.7786 -11.4743 8.70562
-21.6997 -11.6883 8.7214
-21.6288 -11.9894 8.70165
-21.6085 -12.2992 8.68437
-21.5386 -12.6013 8.69633
-21.4482 -12.9003 8.66498
-21.3807 -13.1611 8.65833
-21.2923 -13.4601 8.63784
-21.2072 -13.8368 8.6939
-21.0857 -14.06 8.70662
-20.9779 -14.2774 8.68784
-20.9114 -14.5375 8.71192
-20.7526 -14.9475 8.73475
-20.622 -15.1598 8.68354
-20.4612 -15.4145 8.67398
-20.3398 -15.6534 8.68702
-20.086 -15.8857 8.65883
-19.868 -16.1146 8.70639
-19.6512 -16.3439 8.71014
-19.5084 -16.482 8.73673
-19.3025 -16.6271 8.78634
-19.5165 -16.2498 9.36457
-19.289 -16.4055 9.35894
-19.0121 -16.5218 9.46127
-18.7746 -16.6782 9.48194
-18.4698 -16.7429 9.52516
-18.1382 -16.7556 9.5553
-17.7791 -16.7903 9.55487
-17.4813 -16.9175 9.49789
-17.1422 -17.0103 9.58441
-16.7696 -17.1254 9.5615
-16.4525 -17.2059 9.60286
-16.1614 -17.1999 9.63279
-15.9227 -17.2287 9.67712
-15.7102 -17.2401 9.72252
-15.479 -17.2036 9.7321
-15.0677 -17.2846 9.69368
-14.8059 -17.3423 9.76039
-14.5582 -17.2412 9.76146
-14.2373 -17.2045 9.80055
-13.5357 -17.7506 9.2711
-13.3051 -17.5789 9.34692
-13.043 -17.549 9.3352
-13.187 -16.8735 9.96634
-12.8818 -16.6204 9.90288
-12.636 -16.3952 9.96511
-12.3308 -16.2872 9.99197
-12.5176 -17.5451 9.46969
-12.8726 -18.6009 9.09152
-12.5971 -18.0007 9.04006
-12.3733 -17.3852 8.9697
-12.1219 -16.9503 8.93103
-11.6664 -16.1486 8.97032
-11.3431 -15.302 8.94111
-11.1548 -14.718 8.80045
-11.0519 -14.9327 9.99417
-10.9418 -14.7914 9.89318
-10.5731 -14.2255 9.84152
-10.4249 -14.0551 9.71889
-10.4477 -14.0622 9.60006
-10.4748 -13.9886 9.5352
-10.3822 -13.8866 9.50836
-10.163 -13.4893 9.40747
-9.93558 -13.2146 9.37819
-9.79652 -12.9578 9.29128
-9.63509 -12.6999 9.28126
-9.41545 -12.3635 9.25477
-9.23339 -12.1288 9.22374
-9.01513 -11.7938 9.20146
-8.78366 -11.5296 9.1914
-8.6097 -11.2078 9.17122
-8.39821 -10.9384 9.14258
-8.19137 -10.5977 9.11349
-9.13335 -10.5871 8.58447
